%
M48
M72
T01C0.0120
T02C0.0315
T03C0.0320
T04C0.0400
T05C0.0433
T06C0.0470
T07C0.1181
T08C0.1260
T09C0.1400
%
T01
X20180Y10680
X26680Y20180
X18680Y20180
X9180Y17180
X4680Y15680
X1180Y12680
X12680Y11180
X24680Y9680
X12680Y14180
X23180Y7180
X16680Y6180
X15680Y5680
X18680Y7180
T02
X5849Y24723
X5849Y23936
X5849Y23149
X5849Y22361
X5849Y21574
X5849Y20786
X5849Y19999
X5849Y19211
X5849Y18424
X5849Y17637
X14511Y17637
X14511Y18424
X14511Y19211
X14511Y19999
X14511Y20786
X14511Y21574
X14511Y22361
X14511Y23149
X14511Y23936
X14511Y24723
T03
X9680Y9680
X10680Y9680
X15680Y9680
X16680Y9680
X11680Y9680
X12680Y9680
X14680Y9680
X13680Y9680
X17680Y9680
X18680Y9680
X18680Y12680
X17680Y12680
X16680Y12680
X15680Y12680
X14680Y12680
X13680Y12680
X12680Y12680
X11680Y12680
X10680Y12680
X9680Y12680
X4680Y10180
X4680Y12180
X7180Y10180
X7180Y12180
X7180Y6180
X7180Y8180
X4680Y6180
X4680Y8180
X2180Y14680
X2180Y9680
X14180Y8180
X9180Y8180
X24680Y20680
X24680Y21680
X24680Y17180
X24680Y18180
X15180Y8180
X20180Y8180
X15180Y6180
X20180Y6180
X9180Y6180
X14180Y6180
X20180Y4180
X15180Y4180
T04
X2180Y16680
X2180Y17680
X2180Y18680
X2180Y19680
X2180Y20680
X2180Y21680
X2180Y7680
X2180Y6680
X2180Y5680
X24680Y5203
X24680Y8157
X14180Y2180
X15180Y2180
X16180Y2180
X17180Y2180
X18180Y2180
X19180Y2180
X20180Y2180
X21180Y2180
X22180Y2180
X23180Y2180
T05
X23680Y11680
X23680Y13680
X25680Y11680
X25680Y13680
T06
X10180Y2430
X12180Y2430
T07
X2180Y25680
X25680Y25680
X25680Y2180
X2180Y2180
T08
X6180Y1499
X8070Y2680
T09
X6180Y3900
M30
