G75*
%MOIN*%
%OFA0B0*%
%FSLAX24Y24*%
%IPPOS*%
%LPD*%
%AMOC8*
5,1,8,0,0,1.08239X$1,22.5*
%
%ADD10C,0.0000*%
%ADD11C,0.0060*%
%ADD12R,0.1500X0.5000*%
D10*
X000100Y000100D02*
X000100Y020096D01*
X015470Y020096D01*
X015470Y000100D01*
X000100Y000100D01*
X001509Y002100D02*
X001511Y002148D01*
X001517Y002196D01*
X001527Y002243D01*
X001540Y002289D01*
X001558Y002334D01*
X001578Y002378D01*
X001603Y002420D01*
X001631Y002459D01*
X001661Y002496D01*
X001695Y002530D01*
X001732Y002562D01*
X001770Y002591D01*
X001811Y002616D01*
X001854Y002638D01*
X001899Y002656D01*
X001945Y002670D01*
X001992Y002681D01*
X002040Y002688D01*
X002088Y002691D01*
X002136Y002690D01*
X002184Y002685D01*
X002232Y002676D01*
X002278Y002664D01*
X002323Y002647D01*
X002367Y002627D01*
X002409Y002604D01*
X002449Y002577D01*
X002487Y002547D01*
X002522Y002514D01*
X002554Y002478D01*
X002584Y002440D01*
X002610Y002399D01*
X002632Y002356D01*
X002652Y002312D01*
X002667Y002267D01*
X002679Y002220D01*
X002687Y002172D01*
X002691Y002124D01*
X002691Y002076D01*
X002687Y002028D01*
X002679Y001980D01*
X002667Y001933D01*
X002652Y001888D01*
X002632Y001844D01*
X002610Y001801D01*
X002584Y001760D01*
X002554Y001722D01*
X002522Y001686D01*
X002487Y001653D01*
X002449Y001623D01*
X002409Y001596D01*
X002367Y001573D01*
X002323Y001553D01*
X002278Y001536D01*
X002232Y001524D01*
X002184Y001515D01*
X002136Y001510D01*
X002088Y001509D01*
X002040Y001512D01*
X001992Y001519D01*
X001945Y001530D01*
X001899Y001544D01*
X001854Y001562D01*
X001811Y001584D01*
X001770Y001609D01*
X001732Y001638D01*
X001695Y001670D01*
X001661Y001704D01*
X001631Y001741D01*
X001603Y001780D01*
X001578Y001822D01*
X001558Y001866D01*
X001540Y001911D01*
X001527Y001957D01*
X001517Y002004D01*
X001511Y002052D01*
X001509Y002100D01*
X013009Y002100D02*
X013011Y002148D01*
X013017Y002196D01*
X013027Y002243D01*
X013040Y002289D01*
X013058Y002334D01*
X013078Y002378D01*
X013103Y002420D01*
X013131Y002459D01*
X013161Y002496D01*
X013195Y002530D01*
X013232Y002562D01*
X013270Y002591D01*
X013311Y002616D01*
X013354Y002638D01*
X013399Y002656D01*
X013445Y002670D01*
X013492Y002681D01*
X013540Y002688D01*
X013588Y002691D01*
X013636Y002690D01*
X013684Y002685D01*
X013732Y002676D01*
X013778Y002664D01*
X013823Y002647D01*
X013867Y002627D01*
X013909Y002604D01*
X013949Y002577D01*
X013987Y002547D01*
X014022Y002514D01*
X014054Y002478D01*
X014084Y002440D01*
X014110Y002399D01*
X014132Y002356D01*
X014152Y002312D01*
X014167Y002267D01*
X014179Y002220D01*
X014187Y002172D01*
X014191Y002124D01*
X014191Y002076D01*
X014187Y002028D01*
X014179Y001980D01*
X014167Y001933D01*
X014152Y001888D01*
X014132Y001844D01*
X014110Y001801D01*
X014084Y001760D01*
X014054Y001722D01*
X014022Y001686D01*
X013987Y001653D01*
X013949Y001623D01*
X013909Y001596D01*
X013867Y001573D01*
X013823Y001553D01*
X013778Y001536D01*
X013732Y001524D01*
X013684Y001515D01*
X013636Y001510D01*
X013588Y001509D01*
X013540Y001512D01*
X013492Y001519D01*
X013445Y001530D01*
X013399Y001544D01*
X013354Y001562D01*
X013311Y001584D01*
X013270Y001609D01*
X013232Y001638D01*
X013195Y001670D01*
X013161Y001704D01*
X013131Y001741D01*
X013103Y001780D01*
X013078Y001822D01*
X013058Y001866D01*
X013040Y001911D01*
X013027Y001957D01*
X013017Y002004D01*
X013011Y002052D01*
X013009Y002100D01*
X013009Y018100D02*
X013011Y018148D01*
X013017Y018196D01*
X013027Y018243D01*
X013040Y018289D01*
X013058Y018334D01*
X013078Y018378D01*
X013103Y018420D01*
X013131Y018459D01*
X013161Y018496D01*
X013195Y018530D01*
X013232Y018562D01*
X013270Y018591D01*
X013311Y018616D01*
X013354Y018638D01*
X013399Y018656D01*
X013445Y018670D01*
X013492Y018681D01*
X013540Y018688D01*
X013588Y018691D01*
X013636Y018690D01*
X013684Y018685D01*
X013732Y018676D01*
X013778Y018664D01*
X013823Y018647D01*
X013867Y018627D01*
X013909Y018604D01*
X013949Y018577D01*
X013987Y018547D01*
X014022Y018514D01*
X014054Y018478D01*
X014084Y018440D01*
X014110Y018399D01*
X014132Y018356D01*
X014152Y018312D01*
X014167Y018267D01*
X014179Y018220D01*
X014187Y018172D01*
X014191Y018124D01*
X014191Y018076D01*
X014187Y018028D01*
X014179Y017980D01*
X014167Y017933D01*
X014152Y017888D01*
X014132Y017844D01*
X014110Y017801D01*
X014084Y017760D01*
X014054Y017722D01*
X014022Y017686D01*
X013987Y017653D01*
X013949Y017623D01*
X013909Y017596D01*
X013867Y017573D01*
X013823Y017553D01*
X013778Y017536D01*
X013732Y017524D01*
X013684Y017515D01*
X013636Y017510D01*
X013588Y017509D01*
X013540Y017512D01*
X013492Y017519D01*
X013445Y017530D01*
X013399Y017544D01*
X013354Y017562D01*
X013311Y017584D01*
X013270Y017609D01*
X013232Y017638D01*
X013195Y017670D01*
X013161Y017704D01*
X013131Y017741D01*
X013103Y017780D01*
X013078Y017822D01*
X013058Y017866D01*
X013040Y017911D01*
X013027Y017957D01*
X013017Y018004D01*
X013011Y018052D01*
X013009Y018100D01*
X001509Y018100D02*
X001511Y018148D01*
X001517Y018196D01*
X001527Y018243D01*
X001540Y018289D01*
X001558Y018334D01*
X001578Y018378D01*
X001603Y018420D01*
X001631Y018459D01*
X001661Y018496D01*
X001695Y018530D01*
X001732Y018562D01*
X001770Y018591D01*
X001811Y018616D01*
X001854Y018638D01*
X001899Y018656D01*
X001945Y018670D01*
X001992Y018681D01*
X002040Y018688D01*
X002088Y018691D01*
X002136Y018690D01*
X002184Y018685D01*
X002232Y018676D01*
X002278Y018664D01*
X002323Y018647D01*
X002367Y018627D01*
X002409Y018604D01*
X002449Y018577D01*
X002487Y018547D01*
X002522Y018514D01*
X002554Y018478D01*
X002584Y018440D01*
X002610Y018399D01*
X002632Y018356D01*
X002652Y018312D01*
X002667Y018267D01*
X002679Y018220D01*
X002687Y018172D01*
X002691Y018124D01*
X002691Y018076D01*
X002687Y018028D01*
X002679Y017980D01*
X002667Y017933D01*
X002652Y017888D01*
X002632Y017844D01*
X002610Y017801D01*
X002584Y017760D01*
X002554Y017722D01*
X002522Y017686D01*
X002487Y017653D01*
X002449Y017623D01*
X002409Y017596D01*
X002367Y017573D01*
X002323Y017553D01*
X002278Y017536D01*
X002232Y017524D01*
X002184Y017515D01*
X002136Y017510D01*
X002088Y017509D01*
X002040Y017512D01*
X001992Y017519D01*
X001945Y017530D01*
X001899Y017544D01*
X001854Y017562D01*
X001811Y017584D01*
X001770Y017609D01*
X001732Y017638D01*
X001695Y017670D01*
X001661Y017704D01*
X001631Y017741D01*
X001603Y017780D01*
X001578Y017822D01*
X001558Y017866D01*
X001540Y017911D01*
X001527Y017957D01*
X001517Y018004D01*
X001511Y018052D01*
X001509Y018100D01*
D11*
X004037Y014412D02*
X003930Y014306D01*
X003930Y014092D01*
X004037Y013985D01*
X003930Y013768D02*
X003930Y013341D01*
X003930Y013554D02*
X004571Y013554D01*
X004357Y013341D01*
X004464Y013123D02*
X004037Y013123D01*
X003930Y013017D01*
X003930Y012803D01*
X004037Y012696D01*
X004464Y013123D01*
X004571Y013017D01*
X004571Y012803D01*
X004464Y012696D01*
X004037Y012696D01*
X003930Y012479D02*
X003930Y012052D01*
X004357Y012479D01*
X004464Y012479D01*
X004571Y012372D01*
X004571Y012159D01*
X004464Y012052D01*
X004357Y011190D02*
X004357Y010869D01*
X004250Y010763D01*
X004144Y010869D01*
X004144Y011083D01*
X004037Y011190D01*
X003930Y011083D01*
X003930Y010763D01*
X003930Y010545D02*
X003930Y010225D01*
X004037Y010118D01*
X004144Y010225D01*
X004144Y010545D01*
X004250Y010545D02*
X004357Y010438D01*
X004357Y010225D01*
X004250Y009901D02*
X003930Y009901D01*
X003930Y009687D02*
X004250Y009687D01*
X004357Y009794D01*
X004250Y009901D01*
X004250Y009687D02*
X004357Y009580D01*
X004357Y009474D01*
X003930Y009474D01*
X003930Y009257D02*
X004037Y009151D01*
X004464Y009151D01*
X004357Y009257D02*
X004357Y009044D01*
X004357Y008826D02*
X004357Y008506D01*
X004250Y008399D01*
X004144Y008506D01*
X004144Y008720D01*
X004037Y008826D01*
X003930Y008720D01*
X003930Y008399D01*
X003930Y008183D02*
X003930Y007970D01*
X003930Y008076D02*
X004357Y008076D01*
X004357Y007970D01*
X004357Y007753D02*
X004357Y007646D01*
X004144Y007433D01*
X004357Y007433D02*
X003930Y007433D01*
X003930Y007215D02*
X004250Y007215D01*
X004357Y007108D01*
X004357Y006895D01*
X004250Y006788D01*
X004464Y006570D02*
X004571Y006464D01*
X004571Y006250D01*
X004464Y006143D01*
X004037Y006143D01*
X003930Y006250D01*
X003930Y006464D01*
X004037Y006570D01*
X003930Y006788D02*
X004571Y006788D01*
X004571Y008076D02*
X004677Y008076D01*
X003627Y008184D02*
X003521Y008184D01*
X003307Y008184D02*
X003307Y008077D01*
X003307Y008184D02*
X002880Y008184D01*
X002880Y008077D02*
X002880Y008291D01*
X002880Y008507D02*
X003307Y008507D01*
X003307Y008614D01*
X003200Y008720D01*
X003307Y008827D01*
X003200Y008934D01*
X002880Y008934D01*
X002880Y008720D02*
X003200Y008720D01*
X003307Y009151D02*
X002987Y009151D01*
X002880Y009258D01*
X002880Y009578D01*
X003307Y009578D01*
X003200Y009796D02*
X003307Y009903D01*
X003307Y010223D01*
X003094Y010116D02*
X003094Y009903D01*
X003200Y009796D01*
X002880Y009796D02*
X002880Y010116D01*
X002987Y010223D01*
X003094Y010116D01*
X003200Y011085D02*
X003200Y011298D01*
X002880Y011085D02*
X003521Y011085D01*
X003521Y011512D01*
X003307Y011730D02*
X002880Y011730D01*
X003094Y011730D02*
X003307Y011943D01*
X003307Y012050D01*
X003307Y012267D02*
X003307Y012373D01*
X002880Y012373D01*
X002880Y012267D02*
X002880Y012480D01*
X002987Y012803D02*
X002880Y012910D01*
X002987Y012803D02*
X003414Y012803D01*
X003307Y012696D02*
X003307Y012910D01*
X003307Y013126D02*
X003307Y013553D01*
X002880Y013126D01*
X002880Y013553D01*
X003521Y012373D02*
X003627Y012373D01*
X004464Y013985D02*
X004571Y014092D01*
X004571Y014306D01*
X004464Y014412D01*
X004357Y014412D01*
X004250Y014306D01*
X004144Y014412D01*
X004037Y014412D01*
X004250Y014306D02*
X004250Y014199D01*
X006830Y014117D02*
X006937Y014011D01*
X007150Y014011D01*
X007257Y014117D01*
X007257Y014331D01*
X007150Y014438D01*
X006937Y014438D01*
X006830Y014331D01*
X006830Y014117D01*
X006830Y013688D02*
X007364Y013688D01*
X007471Y013795D01*
X007150Y013795D02*
X007150Y013581D01*
X007150Y013363D02*
X006830Y013363D01*
X006830Y013150D02*
X007150Y013150D01*
X007257Y013257D01*
X007150Y013363D01*
X007150Y013150D02*
X007257Y013043D01*
X007257Y012936D01*
X006830Y012936D01*
X006937Y012719D02*
X006830Y012612D01*
X006830Y012399D01*
X006937Y012292D01*
X007150Y012292D01*
X007257Y012399D01*
X007257Y012612D01*
X007150Y012719D01*
X006937Y012719D01*
X006830Y012074D02*
X006830Y011754D01*
X006937Y011647D01*
X007150Y011647D01*
X007257Y011754D01*
X007257Y012074D01*
X007880Y011968D02*
X007880Y011647D01*
X007880Y011431D02*
X007987Y011324D01*
X008414Y011324D01*
X008307Y011218D02*
X008307Y011431D01*
X008200Y011647D02*
X008307Y011754D01*
X008307Y012074D01*
X008200Y012292D02*
X008307Y012399D01*
X008307Y012612D01*
X008200Y012719D01*
X008094Y012719D01*
X008094Y012292D01*
X008200Y012292D02*
X007987Y012292D01*
X007880Y012399D01*
X007880Y012612D01*
X007880Y012936D02*
X007880Y013150D01*
X007880Y013043D02*
X008521Y013043D01*
X008521Y012936D01*
X008200Y013366D02*
X008200Y013580D01*
X008414Y013473D02*
X007880Y013473D01*
X008414Y013473D02*
X008521Y013580D01*
X008930Y013472D02*
X009037Y013365D01*
X009464Y013365D01*
X009357Y013259D02*
X009357Y013472D01*
X009250Y013688D02*
X009357Y013795D01*
X009357Y014009D01*
X009250Y014115D01*
X008930Y014115D01*
X009037Y014333D02*
X009144Y014440D01*
X009144Y014760D01*
X009250Y014760D02*
X008930Y014760D01*
X008930Y014440D01*
X009037Y014333D01*
X009357Y014440D02*
X009357Y014653D01*
X009250Y014760D01*
X009357Y014978D02*
X009357Y015191D01*
X009464Y015084D02*
X009037Y015084D01*
X008930Y015191D01*
X008307Y015085D02*
X008307Y015405D01*
X008200Y015512D01*
X007987Y015512D01*
X007880Y015405D01*
X007880Y015085D01*
X007666Y015085D02*
X008307Y015085D01*
X008200Y014867D02*
X007880Y014867D01*
X007880Y014547D01*
X007987Y014440D01*
X008094Y014547D01*
X008094Y014867D01*
X008200Y014867D02*
X008307Y014761D01*
X008307Y014547D01*
X008930Y013688D02*
X009571Y013688D01*
X009357Y012398D02*
X009357Y012184D01*
X009464Y012291D02*
X009037Y012291D01*
X008930Y012398D01*
X008930Y011967D02*
X009250Y011967D01*
X009357Y011860D01*
X009357Y011647D01*
X009250Y011540D01*
X009357Y011322D02*
X009357Y011002D01*
X009250Y010895D01*
X009037Y010895D01*
X008930Y011002D01*
X008930Y011322D01*
X008823Y011322D02*
X009357Y011322D01*
X009571Y011540D02*
X008930Y011540D01*
X008823Y011322D02*
X008716Y011216D01*
X008716Y011109D01*
X008627Y010895D02*
X008521Y010895D01*
X008307Y010895D02*
X007880Y010895D01*
X007880Y011001D02*
X007880Y010788D01*
X007471Y010787D02*
X007364Y010680D01*
X006830Y010680D01*
X006937Y010356D02*
X007150Y010356D01*
X007257Y010249D01*
X007257Y010035D01*
X007150Y009929D01*
X006937Y009929D01*
X006830Y010035D01*
X006830Y010249D01*
X006937Y010356D01*
X007150Y010573D02*
X007150Y010787D01*
X007987Y009926D02*
X007880Y009819D01*
X007880Y009499D01*
X008094Y009606D02*
X008094Y009819D01*
X007987Y009926D01*
X008307Y009926D02*
X008307Y009606D01*
X008200Y009499D01*
X008094Y009606D01*
X007987Y009281D02*
X007880Y009175D01*
X007880Y008854D01*
X008094Y008961D02*
X008200Y008854D01*
X008307Y008961D01*
X008307Y009281D01*
X008094Y009175D02*
X008094Y008961D01*
X008094Y009175D02*
X007987Y009281D01*
X008094Y008637D02*
X008094Y008210D01*
X008200Y008210D02*
X007987Y008210D01*
X007880Y008317D01*
X007880Y008530D01*
X008094Y008637D02*
X008200Y008637D01*
X008307Y008530D01*
X008307Y008317D01*
X008200Y008210D01*
X008200Y007992D02*
X007880Y007992D01*
X008200Y007992D02*
X008307Y007885D01*
X008307Y007565D01*
X007880Y007565D01*
X007880Y007348D02*
X008094Y007028D01*
X008307Y007348D01*
X008521Y007028D02*
X007880Y007028D01*
X008307Y006704D02*
X008094Y006491D01*
X008307Y006491D02*
X007880Y006491D01*
X007880Y006273D02*
X007880Y005953D01*
X007987Y005846D01*
X008094Y005953D01*
X008094Y006273D01*
X008200Y006273D02*
X007880Y006273D01*
X008200Y006273D02*
X008307Y006167D01*
X008307Y005953D01*
X008414Y005629D02*
X007987Y005629D01*
X007880Y005522D01*
X007880Y005202D01*
X008521Y005202D01*
X008521Y005522D01*
X008414Y005629D01*
X008930Y005738D02*
X009571Y005738D01*
X009571Y005951D02*
X009571Y005524D01*
X009677Y005309D02*
X009464Y005309D01*
X009357Y005202D01*
X009357Y006169D02*
X009037Y006169D01*
X008930Y006275D01*
X009037Y006382D01*
X008930Y006489D01*
X009037Y006596D01*
X009357Y006596D01*
X009357Y006920D02*
X009357Y007134D01*
X009250Y007240D01*
X008930Y007240D01*
X008930Y006920D01*
X009037Y006813D01*
X009144Y006920D01*
X009144Y007240D01*
X009250Y007458D02*
X009357Y007565D01*
X009357Y007885D01*
X009144Y007778D02*
X009144Y007565D01*
X009250Y007458D01*
X008930Y007458D02*
X008930Y007778D01*
X009037Y007885D01*
X009144Y007778D01*
X009037Y008747D02*
X008930Y008854D01*
X008930Y009174D01*
X009250Y009174D01*
X009357Y009067D01*
X009357Y008854D01*
X009144Y008854D02*
X009144Y009174D01*
X009144Y008854D02*
X009037Y008747D01*
X008930Y010036D02*
X008930Y010249D01*
X008930Y010143D02*
X009571Y010143D01*
X009571Y010036D01*
X009357Y010466D02*
X009357Y010572D01*
X008930Y010572D01*
X008930Y010466D02*
X008930Y010679D01*
X008307Y010788D02*
X008307Y010895D01*
X008200Y011647D02*
X008094Y011754D01*
X008094Y011968D01*
X007987Y012074D01*
X007880Y011968D01*
X009571Y010572D02*
X009677Y010572D01*
X007577Y007672D02*
X007471Y007672D01*
X007257Y007672D02*
X006830Y007672D01*
X006830Y007565D02*
X006830Y007779D01*
X006830Y007995D02*
X007257Y007995D01*
X007257Y008315D01*
X007150Y008422D01*
X006830Y008422D01*
X006937Y008639D02*
X006830Y008746D01*
X006830Y009066D01*
X006723Y009066D02*
X007257Y009066D01*
X007257Y008746D01*
X007150Y008639D01*
X006937Y008639D01*
X006616Y008853D02*
X006616Y008960D01*
X006723Y009066D01*
X007257Y007672D02*
X007257Y007565D01*
X007150Y007348D02*
X006830Y007348D01*
X007150Y007348D02*
X007257Y007241D01*
X007257Y007027D01*
X007150Y006921D01*
X007257Y006704D02*
X007257Y006491D01*
X007364Y006598D02*
X006937Y006598D01*
X006830Y006704D01*
X006830Y006921D02*
X007471Y006921D01*
X008307Y006811D02*
X008307Y006704D01*
X007257Y005629D02*
X007471Y005415D01*
X007257Y005202D01*
X006830Y005202D01*
X007150Y005202D02*
X007150Y005629D01*
X007257Y005629D02*
X006830Y005629D01*
X003521Y006143D02*
X003307Y006357D01*
X003521Y006570D01*
X002880Y006570D01*
X002987Y006788D02*
X003094Y006895D01*
X003094Y007215D01*
X003200Y007215D02*
X002880Y007215D01*
X002880Y006895D01*
X002987Y006788D01*
X003307Y006895D02*
X003307Y007108D01*
X003200Y007215D01*
X003307Y007433D02*
X002880Y007860D01*
X002880Y007433D02*
X003307Y007860D01*
X003521Y006143D02*
X002880Y006143D01*
X003930Y010545D02*
X004250Y010545D01*
X006830Y014655D02*
X007257Y014655D01*
X007044Y014655D02*
X007257Y014869D01*
X007257Y014976D01*
X007257Y015192D02*
X007257Y015406D01*
X007364Y015299D02*
X006937Y015299D01*
X006830Y015406D01*
X006830Y015622D02*
X006830Y015729D01*
X006937Y015729D01*
X006937Y015622D01*
X006830Y015622D01*
X007666Y015730D02*
X008307Y015730D01*
X008307Y016050D01*
X008200Y016157D01*
X007987Y016157D01*
X007880Y016050D01*
X007880Y015730D01*
X007987Y016374D02*
X007880Y016481D01*
X007880Y016694D01*
X008094Y016801D02*
X008094Y016374D01*
X008200Y016374D02*
X007987Y016374D01*
X008200Y016374D02*
X008307Y016481D01*
X008307Y016694D01*
X008200Y016801D01*
X008094Y016801D01*
X007987Y017019D02*
X007880Y017125D01*
X007880Y017446D01*
X008200Y017446D01*
X008307Y017339D01*
X008307Y017125D01*
X008094Y017125D02*
X008094Y017446D01*
X008094Y017663D02*
X008307Y017877D01*
X008307Y017983D01*
X008307Y017663D02*
X007880Y017663D01*
X008094Y017125D02*
X007987Y017019D01*
X008930Y017123D02*
X008930Y016803D01*
X009037Y016696D01*
X009144Y016803D01*
X009144Y017123D01*
X009250Y017123D02*
X008930Y017123D01*
X009037Y017341D02*
X009250Y017341D01*
X009357Y017448D01*
X009357Y017768D01*
X009571Y017768D02*
X008930Y017768D01*
X008930Y017448D01*
X009037Y017341D01*
X009250Y017123D02*
X009357Y017017D01*
X009357Y016803D01*
X009250Y016479D02*
X008930Y016479D01*
X008930Y016265D02*
X009250Y016265D01*
X009357Y016372D01*
X009250Y016479D01*
X009250Y016265D02*
X009357Y016159D01*
X009357Y016052D01*
X008930Y016052D01*
X009037Y017985D02*
X008930Y018092D01*
X008930Y018306D01*
X009144Y018412D02*
X009144Y017985D01*
X009250Y017985D02*
X009037Y017985D01*
X009250Y017985D02*
X009357Y018092D01*
X009357Y018306D01*
X009250Y018412D01*
X009144Y018412D01*
X014430Y010412D02*
X014430Y009985D01*
X014537Y009985D01*
X014964Y010412D01*
X015071Y010412D01*
X015071Y009985D01*
X015071Y009768D02*
X015071Y009341D01*
X015071Y009554D02*
X014430Y009554D01*
X014430Y009125D02*
X014430Y008911D01*
X014430Y009018D02*
X015071Y009018D01*
X015071Y008911D02*
X015071Y009125D01*
X014964Y008694D02*
X014750Y008694D01*
X014644Y008587D01*
X014644Y008267D01*
X014644Y008480D02*
X014430Y008694D01*
X014430Y008267D02*
X015071Y008267D01*
X015071Y008587D01*
X014964Y008694D01*
X015071Y008049D02*
X015071Y007622D01*
X014430Y007622D01*
X014750Y007622D02*
X014750Y007836D01*
X014071Y007806D02*
X014071Y007592D01*
X013964Y007485D01*
X013537Y007485D01*
X013964Y007912D01*
X013537Y007912D01*
X013430Y007806D01*
X013430Y007592D01*
X013537Y007485D01*
X013964Y007912D02*
X014071Y007806D01*
X014537Y006760D02*
X014430Y006653D01*
X014430Y006440D01*
X014537Y006333D01*
X014430Y006115D02*
X014430Y005688D01*
X014430Y005902D02*
X015071Y005902D01*
X014857Y005688D01*
X014964Y005471D02*
X014537Y005044D01*
X014430Y005151D01*
X014430Y005364D01*
X014537Y005471D01*
X014964Y005471D01*
X015071Y005364D01*
X015071Y005151D01*
X014964Y005044D01*
X014537Y005044D01*
X014430Y004826D02*
X014430Y004399D01*
X014857Y004826D01*
X014964Y004826D01*
X015071Y004720D01*
X015071Y004506D01*
X014964Y004399D01*
X014071Y004907D02*
X014071Y005228D01*
X013964Y005334D01*
X013750Y005334D01*
X013644Y005228D01*
X013644Y004907D01*
X013644Y005121D02*
X013430Y005334D01*
X013430Y005552D02*
X013430Y005979D01*
X013644Y006196D02*
X013430Y006410D01*
X013644Y006623D01*
X014071Y006623D01*
X014071Y006196D02*
X013644Y006196D01*
X013750Y005765D02*
X013750Y005552D01*
X013430Y005552D02*
X014071Y005552D01*
X014071Y005979D01*
X014750Y006547D02*
X014750Y006653D01*
X014644Y006760D01*
X014537Y006760D01*
X014750Y006653D02*
X014857Y006760D01*
X014964Y006760D01*
X015071Y006653D01*
X015071Y006440D01*
X014964Y006333D01*
X014071Y004907D02*
X013430Y004907D01*
D12*
X012350Y008100D03*
M02*
