G75*
%MOIN*%
%OFA0B0*%
%FSLAX24Y24*%
%IPPOS*%
%LPD*%
%AMOC8*
5,1,8,0,0,1.08239X$1,22.5*
%
%ADD10C,0.0000*%
%ADD11C,0.0060*%
%ADD12C,0.0040*%
%ADD13C,0.0080*%
%ADD14C,0.0120*%
%ADD15C,0.0050*%
%ADD16R,0.0240X0.0340*%
%ADD17R,0.0340X0.0240*%
%ADD18R,0.0300X0.4200*%
%ADD19R,0.0200X0.0750*%
%ADD20R,0.0200X0.0300*%
%ADD21C,0.0100*%
D10*
X000300Y000180D02*
X000300Y027739D01*
X027859Y027739D01*
X027859Y000180D01*
X000300Y000180D01*
X001709Y002180D02*
X001711Y002228D01*
X001717Y002276D01*
X001727Y002323D01*
X001740Y002369D01*
X001758Y002414D01*
X001778Y002458D01*
X001803Y002500D01*
X001831Y002539D01*
X001861Y002576D01*
X001895Y002610D01*
X001932Y002642D01*
X001970Y002671D01*
X002011Y002696D01*
X002054Y002718D01*
X002099Y002736D01*
X002145Y002750D01*
X002192Y002761D01*
X002240Y002768D01*
X002288Y002771D01*
X002336Y002770D01*
X002384Y002765D01*
X002432Y002756D01*
X002478Y002744D01*
X002523Y002727D01*
X002567Y002707D01*
X002609Y002684D01*
X002649Y002657D01*
X002687Y002627D01*
X002722Y002594D01*
X002754Y002558D01*
X002784Y002520D01*
X002810Y002479D01*
X002832Y002436D01*
X002852Y002392D01*
X002867Y002347D01*
X002879Y002300D01*
X002887Y002252D01*
X002891Y002204D01*
X002891Y002156D01*
X002887Y002108D01*
X002879Y002060D01*
X002867Y002013D01*
X002852Y001968D01*
X002832Y001924D01*
X002810Y001881D01*
X002784Y001840D01*
X002754Y001802D01*
X002722Y001766D01*
X002687Y001733D01*
X002649Y001703D01*
X002609Y001676D01*
X002567Y001653D01*
X002523Y001633D01*
X002478Y001616D01*
X002432Y001604D01*
X002384Y001595D01*
X002336Y001590D01*
X002288Y001589D01*
X002240Y001592D01*
X002192Y001599D01*
X002145Y001610D01*
X002099Y001624D01*
X002054Y001642D01*
X002011Y001664D01*
X001970Y001689D01*
X001932Y001718D01*
X001895Y001750D01*
X001861Y001784D01*
X001831Y001821D01*
X001803Y001860D01*
X001778Y001902D01*
X001758Y001946D01*
X001740Y001991D01*
X001727Y002037D01*
X001717Y002084D01*
X001711Y002132D01*
X001709Y002180D01*
X001709Y025680D02*
X001711Y025728D01*
X001717Y025776D01*
X001727Y025823D01*
X001740Y025869D01*
X001758Y025914D01*
X001778Y025958D01*
X001803Y026000D01*
X001831Y026039D01*
X001861Y026076D01*
X001895Y026110D01*
X001932Y026142D01*
X001970Y026171D01*
X002011Y026196D01*
X002054Y026218D01*
X002099Y026236D01*
X002145Y026250D01*
X002192Y026261D01*
X002240Y026268D01*
X002288Y026271D01*
X002336Y026270D01*
X002384Y026265D01*
X002432Y026256D01*
X002478Y026244D01*
X002523Y026227D01*
X002567Y026207D01*
X002609Y026184D01*
X002649Y026157D01*
X002687Y026127D01*
X002722Y026094D01*
X002754Y026058D01*
X002784Y026020D01*
X002810Y025979D01*
X002832Y025936D01*
X002852Y025892D01*
X002867Y025847D01*
X002879Y025800D01*
X002887Y025752D01*
X002891Y025704D01*
X002891Y025656D01*
X002887Y025608D01*
X002879Y025560D01*
X002867Y025513D01*
X002852Y025468D01*
X002832Y025424D01*
X002810Y025381D01*
X002784Y025340D01*
X002754Y025302D01*
X002722Y025266D01*
X002687Y025233D01*
X002649Y025203D01*
X002609Y025176D01*
X002567Y025153D01*
X002523Y025133D01*
X002478Y025116D01*
X002432Y025104D01*
X002384Y025095D01*
X002336Y025090D01*
X002288Y025089D01*
X002240Y025092D01*
X002192Y025099D01*
X002145Y025110D01*
X002099Y025124D01*
X002054Y025142D01*
X002011Y025164D01*
X001970Y025189D01*
X001932Y025218D01*
X001895Y025250D01*
X001861Y025284D01*
X001831Y025321D01*
X001803Y025360D01*
X001778Y025402D01*
X001758Y025446D01*
X001740Y025491D01*
X001727Y025537D01*
X001717Y025584D01*
X001711Y025632D01*
X001709Y025680D01*
X025209Y025680D02*
X025211Y025728D01*
X025217Y025776D01*
X025227Y025823D01*
X025240Y025869D01*
X025258Y025914D01*
X025278Y025958D01*
X025303Y026000D01*
X025331Y026039D01*
X025361Y026076D01*
X025395Y026110D01*
X025432Y026142D01*
X025470Y026171D01*
X025511Y026196D01*
X025554Y026218D01*
X025599Y026236D01*
X025645Y026250D01*
X025692Y026261D01*
X025740Y026268D01*
X025788Y026271D01*
X025836Y026270D01*
X025884Y026265D01*
X025932Y026256D01*
X025978Y026244D01*
X026023Y026227D01*
X026067Y026207D01*
X026109Y026184D01*
X026149Y026157D01*
X026187Y026127D01*
X026222Y026094D01*
X026254Y026058D01*
X026284Y026020D01*
X026310Y025979D01*
X026332Y025936D01*
X026352Y025892D01*
X026367Y025847D01*
X026379Y025800D01*
X026387Y025752D01*
X026391Y025704D01*
X026391Y025656D01*
X026387Y025608D01*
X026379Y025560D01*
X026367Y025513D01*
X026352Y025468D01*
X026332Y025424D01*
X026310Y025381D01*
X026284Y025340D01*
X026254Y025302D01*
X026222Y025266D01*
X026187Y025233D01*
X026149Y025203D01*
X026109Y025176D01*
X026067Y025153D01*
X026023Y025133D01*
X025978Y025116D01*
X025932Y025104D01*
X025884Y025095D01*
X025836Y025090D01*
X025788Y025089D01*
X025740Y025092D01*
X025692Y025099D01*
X025645Y025110D01*
X025599Y025124D01*
X025554Y025142D01*
X025511Y025164D01*
X025470Y025189D01*
X025432Y025218D01*
X025395Y025250D01*
X025361Y025284D01*
X025331Y025321D01*
X025303Y025360D01*
X025278Y025402D01*
X025258Y025446D01*
X025240Y025491D01*
X025227Y025537D01*
X025217Y025584D01*
X025211Y025632D01*
X025209Y025680D01*
X025209Y002180D02*
X025211Y002228D01*
X025217Y002276D01*
X025227Y002323D01*
X025240Y002369D01*
X025258Y002414D01*
X025278Y002458D01*
X025303Y002500D01*
X025331Y002539D01*
X025361Y002576D01*
X025395Y002610D01*
X025432Y002642D01*
X025470Y002671D01*
X025511Y002696D01*
X025554Y002718D01*
X025599Y002736D01*
X025645Y002750D01*
X025692Y002761D01*
X025740Y002768D01*
X025788Y002771D01*
X025836Y002770D01*
X025884Y002765D01*
X025932Y002756D01*
X025978Y002744D01*
X026023Y002727D01*
X026067Y002707D01*
X026109Y002684D01*
X026149Y002657D01*
X026187Y002627D01*
X026222Y002594D01*
X026254Y002558D01*
X026284Y002520D01*
X026310Y002479D01*
X026332Y002436D01*
X026352Y002392D01*
X026367Y002347D01*
X026379Y002300D01*
X026387Y002252D01*
X026391Y002204D01*
X026391Y002156D01*
X026387Y002108D01*
X026379Y002060D01*
X026367Y002013D01*
X026352Y001968D01*
X026332Y001924D01*
X026310Y001881D01*
X026284Y001840D01*
X026254Y001802D01*
X026222Y001766D01*
X026187Y001733D01*
X026149Y001703D01*
X026109Y001676D01*
X026067Y001653D01*
X026023Y001633D01*
X025978Y001616D01*
X025932Y001604D01*
X025884Y001595D01*
X025836Y001590D01*
X025788Y001589D01*
X025740Y001592D01*
X025692Y001599D01*
X025645Y001610D01*
X025599Y001624D01*
X025554Y001642D01*
X025511Y001664D01*
X025470Y001689D01*
X025432Y001718D01*
X025395Y001750D01*
X025361Y001784D01*
X025331Y001821D01*
X025303Y001860D01*
X025278Y001902D01*
X025258Y001946D01*
X025240Y001991D01*
X025227Y002037D01*
X025217Y002084D01*
X025211Y002132D01*
X025209Y002180D01*
D11*
X024450Y002180D02*
X024452Y002253D01*
X024458Y002326D01*
X024468Y002398D01*
X024482Y002470D01*
X024499Y002541D01*
X024521Y002611D01*
X024546Y002680D01*
X024575Y002747D01*
X024607Y002812D01*
X024643Y002876D01*
X024683Y002938D01*
X024725Y002997D01*
X024771Y003054D01*
X024820Y003108D01*
X024872Y003160D01*
X024926Y003209D01*
X024983Y003255D01*
X025042Y003297D01*
X025104Y003337D01*
X025168Y003373D01*
X025233Y003405D01*
X025300Y003434D01*
X025369Y003459D01*
X025439Y003481D01*
X025510Y003498D01*
X025582Y003512D01*
X025654Y003522D01*
X025727Y003528D01*
X025800Y003530D01*
X025873Y003528D01*
X025946Y003522D01*
X026018Y003512D01*
X026090Y003498D01*
X026161Y003481D01*
X026231Y003459D01*
X026300Y003434D01*
X026367Y003405D01*
X026432Y003373D01*
X026496Y003337D01*
X026558Y003297D01*
X026617Y003255D01*
X026674Y003209D01*
X026728Y003160D01*
X026780Y003108D01*
X026829Y003054D01*
X026875Y002997D01*
X026917Y002938D01*
X026957Y002876D01*
X026993Y002812D01*
X027025Y002747D01*
X027054Y002680D01*
X027079Y002611D01*
X027101Y002541D01*
X027118Y002470D01*
X027132Y002398D01*
X027142Y002326D01*
X027148Y002253D01*
X027150Y002180D01*
X027148Y002107D01*
X027142Y002034D01*
X027132Y001962D01*
X027118Y001890D01*
X027101Y001819D01*
X027079Y001749D01*
X027054Y001680D01*
X027025Y001613D01*
X026993Y001548D01*
X026957Y001484D01*
X026917Y001422D01*
X026875Y001363D01*
X026829Y001306D01*
X026780Y001252D01*
X026728Y001200D01*
X026674Y001151D01*
X026617Y001105D01*
X026558Y001063D01*
X026496Y001023D01*
X026432Y000987D01*
X026367Y000955D01*
X026300Y000926D01*
X026231Y000901D01*
X026161Y000879D01*
X026090Y000862D01*
X026018Y000848D01*
X025946Y000838D01*
X025873Y000832D01*
X025800Y000830D01*
X025727Y000832D01*
X025654Y000838D01*
X025582Y000848D01*
X025510Y000862D01*
X025439Y000879D01*
X025369Y000901D01*
X025300Y000926D01*
X025233Y000955D01*
X025168Y000987D01*
X025104Y001023D01*
X025042Y001063D01*
X024983Y001105D01*
X024926Y001151D01*
X024872Y001200D01*
X024820Y001252D01*
X024771Y001306D01*
X024725Y001363D01*
X024683Y001422D01*
X024643Y001484D01*
X024607Y001548D01*
X024575Y001613D01*
X024546Y001680D01*
X024521Y001749D01*
X024499Y001819D01*
X024482Y001890D01*
X024468Y001962D01*
X024458Y002034D01*
X024452Y002107D01*
X024450Y002180D01*
X023800Y001930D02*
X023550Y001680D01*
X023050Y001680D01*
X022800Y001930D01*
X022550Y001680D01*
X022050Y001680D01*
X021800Y001930D01*
X021550Y001680D01*
X021050Y001680D01*
X020800Y001930D01*
X020550Y001680D01*
X020050Y001680D01*
X019800Y001930D01*
X019550Y001680D01*
X019050Y001680D01*
X018800Y001930D01*
X018550Y001680D01*
X018050Y001680D01*
X017800Y001930D01*
X017550Y001680D01*
X017050Y001680D01*
X016800Y001930D01*
X016550Y001680D01*
X016050Y001680D01*
X015800Y001930D01*
X015550Y001680D01*
X015050Y001680D01*
X014800Y001930D01*
X014550Y001680D01*
X014050Y001680D01*
X013800Y001930D01*
X013800Y002430D01*
X014050Y002680D01*
X014550Y002680D01*
X014800Y002430D01*
X015050Y002680D01*
X015550Y002680D01*
X015800Y002430D01*
X015800Y001930D01*
X015800Y002430D02*
X016050Y002680D01*
X016550Y002680D01*
X016800Y002430D01*
X017050Y002680D01*
X017550Y002680D01*
X017800Y002430D01*
X018050Y002680D01*
X018550Y002680D01*
X018800Y002430D01*
X018800Y001930D01*
X018800Y002430D02*
X019050Y002680D01*
X019550Y002680D01*
X019800Y002430D01*
X020050Y002680D01*
X020550Y002680D01*
X020800Y002430D01*
X021050Y002680D01*
X021550Y002680D01*
X021800Y002430D01*
X021800Y001930D01*
X021800Y002430D02*
X022050Y002680D01*
X022550Y002680D01*
X022800Y002430D01*
X023050Y002680D01*
X023550Y002680D01*
X023800Y002430D01*
X023800Y001930D01*
X022800Y001930D02*
X022800Y002430D01*
X020800Y002430D02*
X020800Y001930D01*
X019800Y001930D02*
X019800Y002430D01*
X019400Y003580D02*
X019150Y003580D01*
X019100Y003630D01*
X016500Y003630D01*
X016450Y003580D01*
X016200Y003580D01*
X016183Y003582D01*
X016166Y003586D01*
X016150Y003593D01*
X016136Y003603D01*
X016123Y003616D01*
X016113Y003630D01*
X016106Y003646D01*
X016102Y003663D01*
X016100Y003680D01*
X016100Y004680D01*
X016102Y004697D01*
X016106Y004714D01*
X016113Y004730D01*
X016123Y004744D01*
X016136Y004757D01*
X016150Y004767D01*
X016166Y004774D01*
X016183Y004778D01*
X016200Y004780D01*
X016450Y004780D01*
X016500Y004730D01*
X019100Y004730D01*
X019150Y004780D01*
X019400Y004780D01*
X019417Y004778D01*
X019434Y004774D01*
X019450Y004767D01*
X019464Y004757D01*
X019477Y004744D01*
X019487Y004730D01*
X019494Y004714D01*
X019498Y004697D01*
X019500Y004680D01*
X019500Y003680D01*
X019498Y003663D01*
X019494Y003646D01*
X019487Y003630D01*
X019477Y003616D01*
X019464Y003603D01*
X019450Y003593D01*
X019434Y003586D01*
X019417Y003582D01*
X019400Y003580D01*
X017800Y002430D02*
X017800Y001930D01*
X016800Y001930D02*
X016800Y002430D01*
X014800Y002430D02*
X014800Y001930D01*
X013300Y001730D02*
X013300Y000780D01*
X009300Y000780D01*
X009300Y001730D01*
X009950Y001730D01*
X009300Y001730D02*
X009300Y004330D01*
X009300Y004430D01*
X013300Y004430D01*
X013300Y004330D01*
X013300Y001730D01*
X012650Y001730D01*
X011950Y001730D02*
X010650Y001730D01*
X010100Y003800D02*
X010102Y003828D01*
X010108Y003855D01*
X010117Y003881D01*
X010130Y003906D01*
X010147Y003929D01*
X010166Y003949D01*
X010188Y003966D01*
X010212Y003980D01*
X010238Y003990D01*
X010265Y003997D01*
X010293Y004000D01*
X010321Y003999D01*
X010348Y003994D01*
X010375Y003985D01*
X010400Y003973D01*
X010423Y003958D01*
X010444Y003939D01*
X010462Y003918D01*
X010477Y003894D01*
X010488Y003868D01*
X010496Y003842D01*
X010500Y003814D01*
X010500Y003786D01*
X010496Y003758D01*
X010488Y003732D01*
X010477Y003706D01*
X010462Y003682D01*
X010444Y003661D01*
X010423Y003642D01*
X010400Y003627D01*
X010375Y003615D01*
X010348Y003606D01*
X010321Y003601D01*
X010293Y003600D01*
X010265Y003603D01*
X010238Y003610D01*
X010212Y003620D01*
X010188Y003634D01*
X010166Y003651D01*
X010147Y003671D01*
X010130Y003694D01*
X010117Y003719D01*
X010108Y003745D01*
X010102Y003772D01*
X010100Y003800D01*
X009300Y004330D02*
X013300Y004330D01*
X012100Y003800D02*
X012102Y003828D01*
X012108Y003855D01*
X012117Y003881D01*
X012130Y003906D01*
X012147Y003929D01*
X012166Y003949D01*
X012188Y003966D01*
X012212Y003980D01*
X012238Y003990D01*
X012265Y003997D01*
X012293Y004000D01*
X012321Y003999D01*
X012348Y003994D01*
X012375Y003985D01*
X012400Y003973D01*
X012423Y003958D01*
X012444Y003939D01*
X012462Y003918D01*
X012477Y003894D01*
X012488Y003868D01*
X012496Y003842D01*
X012500Y003814D01*
X012500Y003786D01*
X012496Y003758D01*
X012488Y003732D01*
X012477Y003706D01*
X012462Y003682D01*
X012444Y003661D01*
X012423Y003642D01*
X012400Y003627D01*
X012375Y003615D01*
X012348Y003606D01*
X012321Y003601D01*
X012293Y003600D01*
X012265Y003603D01*
X012238Y003610D01*
X012212Y003620D01*
X012188Y003634D01*
X012166Y003651D01*
X012147Y003671D01*
X012130Y003694D01*
X012117Y003719D01*
X012108Y003745D01*
X012102Y003772D01*
X012100Y003800D01*
X013150Y005580D02*
X013400Y005580D01*
X013417Y005582D01*
X013434Y005586D01*
X013450Y005593D01*
X013464Y005603D01*
X013477Y005616D01*
X013487Y005630D01*
X013494Y005646D01*
X013498Y005663D01*
X013500Y005680D01*
X013500Y006680D01*
X013498Y006697D01*
X013494Y006714D01*
X013487Y006730D01*
X013477Y006744D01*
X013464Y006757D01*
X013450Y006767D01*
X013434Y006774D01*
X013417Y006778D01*
X013400Y006780D01*
X013150Y006780D01*
X013100Y006730D01*
X010500Y006730D01*
X010450Y006780D01*
X010200Y006780D01*
X010183Y006778D01*
X010166Y006774D01*
X010150Y006767D01*
X010136Y006757D01*
X010123Y006744D01*
X010113Y006730D01*
X010106Y006714D01*
X010102Y006697D01*
X010100Y006680D01*
X010100Y005680D01*
X010102Y005663D01*
X010106Y005646D01*
X010113Y005630D01*
X010123Y005616D01*
X010136Y005603D01*
X010150Y005593D01*
X010166Y005586D01*
X010183Y005582D01*
X010200Y005580D01*
X010450Y005580D01*
X010500Y005630D01*
X013100Y005630D01*
X013150Y005580D01*
X013150Y007580D02*
X013100Y007630D01*
X010500Y007630D01*
X010450Y007580D01*
X010200Y007580D01*
X010183Y007582D01*
X010166Y007586D01*
X010150Y007593D01*
X010136Y007603D01*
X010123Y007616D01*
X010113Y007630D01*
X010106Y007646D01*
X010102Y007663D01*
X010100Y007680D01*
X010100Y008680D01*
X010102Y008697D01*
X010106Y008714D01*
X010113Y008730D01*
X010123Y008744D01*
X010136Y008757D01*
X010150Y008767D01*
X010166Y008774D01*
X010183Y008778D01*
X010200Y008780D01*
X010450Y008780D01*
X010500Y008730D01*
X013100Y008730D01*
X013150Y008780D01*
X013400Y008780D01*
X013417Y008778D01*
X013434Y008774D01*
X013450Y008767D01*
X013464Y008757D01*
X013477Y008744D01*
X013487Y008730D01*
X013494Y008714D01*
X013498Y008697D01*
X013500Y008680D01*
X013500Y007680D01*
X013498Y007663D01*
X013494Y007646D01*
X013487Y007630D01*
X013477Y007616D01*
X013464Y007603D01*
X013450Y007593D01*
X013434Y007586D01*
X013417Y007582D01*
X013400Y007580D01*
X013150Y007580D01*
X016100Y007680D02*
X016100Y008680D01*
X016102Y008697D01*
X016106Y008714D01*
X016113Y008730D01*
X016123Y008744D01*
X016136Y008757D01*
X016150Y008767D01*
X016166Y008774D01*
X016183Y008778D01*
X016200Y008780D01*
X016450Y008780D01*
X016500Y008730D01*
X019100Y008730D01*
X019150Y008780D01*
X019400Y008780D01*
X019417Y008778D01*
X019434Y008774D01*
X019450Y008767D01*
X019464Y008757D01*
X019477Y008744D01*
X019487Y008730D01*
X019494Y008714D01*
X019498Y008697D01*
X019500Y008680D01*
X019500Y007680D01*
X019498Y007663D01*
X019494Y007646D01*
X019487Y007630D01*
X019477Y007616D01*
X019464Y007603D01*
X019450Y007593D01*
X019434Y007586D01*
X019417Y007582D01*
X019400Y007580D01*
X019150Y007580D01*
X019100Y007630D01*
X016500Y007630D01*
X016450Y007580D01*
X016200Y007580D01*
X016183Y007582D01*
X016166Y007586D01*
X016150Y007593D01*
X016136Y007603D01*
X016123Y007616D01*
X016113Y007630D01*
X016106Y007646D01*
X016102Y007663D01*
X016100Y007680D01*
X016200Y006780D02*
X016450Y006780D01*
X016500Y006730D01*
X019100Y006730D01*
X019150Y006780D01*
X019400Y006780D01*
X019417Y006778D01*
X019434Y006774D01*
X019450Y006767D01*
X019464Y006757D01*
X019477Y006744D01*
X019487Y006730D01*
X019494Y006714D01*
X019498Y006697D01*
X019500Y006680D01*
X019500Y005680D01*
X019498Y005663D01*
X019494Y005646D01*
X019487Y005630D01*
X019477Y005616D01*
X019464Y005603D01*
X019450Y005593D01*
X019434Y005586D01*
X019417Y005582D01*
X019400Y005580D01*
X019150Y005580D01*
X019100Y005630D01*
X016500Y005630D01*
X016450Y005580D01*
X016200Y005580D01*
X016183Y005582D01*
X016166Y005586D01*
X016150Y005593D01*
X016136Y005603D01*
X016123Y005616D01*
X016113Y005630D01*
X016106Y005646D01*
X016102Y005663D01*
X016100Y005680D01*
X016100Y006680D01*
X016102Y006697D01*
X016106Y006714D01*
X016113Y006730D01*
X016123Y006744D01*
X016136Y006757D01*
X016150Y006767D01*
X016166Y006774D01*
X016183Y006778D01*
X016200Y006780D01*
X019300Y010530D02*
X019300Y012830D01*
X009300Y012830D01*
X009300Y012080D01*
X009339Y012078D01*
X009378Y012072D01*
X009416Y012063D01*
X009453Y012050D01*
X009489Y012033D01*
X009522Y012013D01*
X009554Y011989D01*
X009583Y011963D01*
X009609Y011934D01*
X009633Y011902D01*
X009653Y011869D01*
X009670Y011833D01*
X009683Y011796D01*
X009692Y011758D01*
X009698Y011719D01*
X009700Y011680D01*
X009698Y011641D01*
X009692Y011602D01*
X009683Y011564D01*
X009670Y011527D01*
X009653Y011491D01*
X009633Y011458D01*
X009609Y011426D01*
X009583Y011397D01*
X009554Y011371D01*
X009522Y011347D01*
X009489Y011327D01*
X009453Y011310D01*
X009416Y011297D01*
X009378Y011288D01*
X009339Y011282D01*
X009300Y011280D01*
X009300Y010530D01*
X019300Y010530D01*
X021023Y011568D02*
X021877Y011568D01*
X021770Y011461D02*
X021770Y011675D01*
X021663Y011782D01*
X021556Y011782D01*
X021450Y011675D01*
X021450Y011461D01*
X021343Y011355D01*
X021236Y011355D01*
X021129Y011461D01*
X021129Y011675D01*
X021236Y011782D01*
X021129Y011999D02*
X021450Y011999D01*
X021343Y012213D01*
X021343Y012319D01*
X021450Y012426D01*
X021663Y012426D01*
X021770Y012319D01*
X021770Y012106D01*
X021663Y011999D01*
X021129Y011999D02*
X021129Y012426D01*
X021770Y011461D02*
X021663Y011355D01*
X021663Y011137D02*
X021129Y011137D01*
X021129Y010710D02*
X021663Y010710D01*
X021770Y010817D01*
X021770Y011030D01*
X021663Y011137D01*
X023800Y006680D02*
X023802Y006724D01*
X023808Y006768D01*
X023818Y006811D01*
X023831Y006853D01*
X023848Y006894D01*
X023869Y006933D01*
X023893Y006970D01*
X023920Y007005D01*
X023950Y007037D01*
X023983Y007067D01*
X024019Y007093D01*
X024056Y007117D01*
X024096Y007136D01*
X024137Y007153D01*
X024180Y007165D01*
X024223Y007174D01*
X024267Y007179D01*
X024311Y007180D01*
X024355Y007177D01*
X024399Y007170D01*
X024442Y007159D01*
X024484Y007145D01*
X024524Y007127D01*
X024563Y007105D01*
X024599Y007081D01*
X024633Y007053D01*
X024665Y007022D01*
X024694Y006988D01*
X024720Y006952D01*
X024742Y006914D01*
X024761Y006874D01*
X024776Y006832D01*
X024788Y006790D01*
X024796Y006746D01*
X024800Y006702D01*
X024800Y006658D01*
X024796Y006614D01*
X024788Y006570D01*
X024776Y006528D01*
X024761Y006486D01*
X024742Y006446D01*
X024720Y006408D01*
X024694Y006372D01*
X024665Y006338D01*
X024633Y006307D01*
X024599Y006279D01*
X024563Y006255D01*
X024524Y006233D01*
X024484Y006215D01*
X024442Y006201D01*
X024399Y006190D01*
X024355Y006183D01*
X024311Y006180D01*
X024267Y006181D01*
X024223Y006186D01*
X024180Y006195D01*
X024137Y006207D01*
X024096Y006224D01*
X024056Y006243D01*
X024019Y006267D01*
X023983Y006293D01*
X023950Y006323D01*
X023920Y006355D01*
X023893Y006390D01*
X023869Y006427D01*
X023848Y006466D01*
X023831Y006507D01*
X023818Y006549D01*
X023808Y006592D01*
X023802Y006636D01*
X023800Y006680D01*
X021900Y006680D02*
X021902Y006778D01*
X021908Y006876D01*
X021918Y006973D01*
X021932Y007070D01*
X021950Y007166D01*
X021972Y007262D01*
X021997Y007356D01*
X022027Y007450D01*
X022060Y007542D01*
X022097Y007632D01*
X022138Y007721D01*
X022182Y007809D01*
X022230Y007894D01*
X022281Y007978D01*
X022336Y008059D01*
X022393Y008138D01*
X022455Y008214D01*
X022519Y008288D01*
X022586Y008360D01*
X022656Y008428D01*
X022728Y008494D01*
X022804Y008556D01*
X022881Y008616D01*
X022962Y008672D01*
X023044Y008725D01*
X023128Y008775D01*
X023215Y008821D01*
X023303Y008863D01*
X023393Y008902D01*
X023484Y008937D01*
X023577Y008969D01*
X023671Y008996D01*
X023766Y009020D01*
X023862Y009040D01*
X023958Y009056D01*
X024056Y009068D01*
X024153Y009076D01*
X024251Y009080D01*
X024349Y009080D01*
X024447Y009076D01*
X024544Y009068D01*
X024642Y009056D01*
X024738Y009040D01*
X024834Y009020D01*
X024929Y008996D01*
X025023Y008969D01*
X025116Y008937D01*
X025207Y008902D01*
X025297Y008863D01*
X025385Y008821D01*
X025472Y008775D01*
X025556Y008725D01*
X025638Y008672D01*
X025719Y008616D01*
X025796Y008556D01*
X025872Y008494D01*
X025944Y008428D01*
X026014Y008360D01*
X026081Y008288D01*
X026145Y008214D01*
X026207Y008138D01*
X026264Y008059D01*
X026319Y007978D01*
X026370Y007894D01*
X026418Y007809D01*
X026462Y007721D01*
X026503Y007632D01*
X026540Y007542D01*
X026573Y007450D01*
X026603Y007356D01*
X026628Y007262D01*
X026650Y007166D01*
X026668Y007070D01*
X026682Y006973D01*
X026692Y006876D01*
X026698Y006778D01*
X026700Y006680D01*
X026698Y006582D01*
X026692Y006484D01*
X026682Y006387D01*
X026668Y006290D01*
X026650Y006194D01*
X026628Y006098D01*
X026603Y006004D01*
X026573Y005910D01*
X026540Y005818D01*
X026503Y005728D01*
X026462Y005639D01*
X026418Y005551D01*
X026370Y005466D01*
X026319Y005382D01*
X026264Y005301D01*
X026207Y005222D01*
X026145Y005146D01*
X026081Y005072D01*
X026014Y005000D01*
X025944Y004932D01*
X025872Y004866D01*
X025796Y004804D01*
X025719Y004744D01*
X025638Y004688D01*
X025556Y004635D01*
X025472Y004585D01*
X025385Y004539D01*
X025297Y004497D01*
X025207Y004458D01*
X025116Y004423D01*
X025023Y004391D01*
X024929Y004364D01*
X024834Y004340D01*
X024738Y004320D01*
X024642Y004304D01*
X024544Y004292D01*
X024447Y004284D01*
X024349Y004280D01*
X024251Y004280D01*
X024153Y004284D01*
X024056Y004292D01*
X023958Y004304D01*
X023862Y004320D01*
X023766Y004340D01*
X023671Y004364D01*
X023577Y004391D01*
X023484Y004423D01*
X023393Y004458D01*
X023303Y004497D01*
X023215Y004539D01*
X023128Y004585D01*
X023044Y004635D01*
X022962Y004688D01*
X022881Y004744D01*
X022804Y004804D01*
X022728Y004866D01*
X022656Y004932D01*
X022586Y005000D01*
X022519Y005072D01*
X022455Y005146D01*
X022393Y005222D01*
X022336Y005301D01*
X022281Y005382D01*
X022230Y005466D01*
X022182Y005551D01*
X022138Y005639D01*
X022097Y005728D01*
X022060Y005818D01*
X022027Y005910D01*
X021997Y006004D01*
X021972Y006098D01*
X021950Y006194D01*
X021932Y006290D01*
X021918Y006387D01*
X021908Y006484D01*
X021902Y006582D01*
X021900Y006680D01*
X027129Y010817D02*
X027236Y010710D01*
X027343Y010710D01*
X027450Y010817D01*
X027450Y011030D01*
X027556Y011137D01*
X027663Y011137D01*
X027770Y011030D01*
X027770Y010817D01*
X027663Y010710D01*
X027129Y010817D02*
X027129Y011030D01*
X027236Y011137D01*
X027129Y011355D02*
X027770Y011355D01*
X027556Y011568D01*
X027770Y011782D01*
X027129Y011782D01*
X027129Y011999D02*
X027129Y012213D01*
X027129Y012106D02*
X027770Y012106D01*
X027770Y011999D02*
X027770Y012213D01*
X027770Y012642D02*
X027129Y012642D01*
X027129Y012429D02*
X027129Y012856D01*
X027236Y013073D02*
X027663Y013073D01*
X027770Y013180D01*
X027770Y013394D01*
X027663Y013500D01*
X027770Y013718D02*
X027129Y013718D01*
X027236Y013500D02*
X027129Y013394D01*
X027129Y013180D01*
X027236Y013073D01*
X027450Y013718D02*
X027450Y014145D01*
X027770Y014145D02*
X027129Y014145D01*
X027877Y014362D02*
X027877Y014789D01*
X027770Y015007D02*
X027129Y015007D01*
X027343Y015221D01*
X027129Y015434D01*
X027770Y015434D01*
X027663Y015652D02*
X027770Y015758D01*
X027770Y015972D01*
X027663Y016079D01*
X027236Y016079D01*
X027129Y015972D01*
X027129Y015758D01*
X027236Y015652D01*
X027663Y015652D01*
X027770Y016296D02*
X027129Y016296D01*
X027343Y016510D01*
X027129Y016723D01*
X027770Y016723D01*
X027770Y016941D02*
X027770Y017368D01*
X027770Y017585D02*
X027129Y017585D01*
X027770Y018012D01*
X027129Y018012D01*
X027129Y018230D02*
X027129Y018657D01*
X027129Y018443D02*
X027770Y018443D01*
X027770Y018874D02*
X027343Y018874D01*
X027129Y019088D01*
X027343Y019301D01*
X027770Y019301D01*
X027770Y019519D02*
X027129Y019519D01*
X027129Y019839D01*
X027236Y019946D01*
X027450Y019946D01*
X027556Y019839D01*
X027556Y019519D01*
X027556Y019732D02*
X027770Y019946D01*
X027770Y020377D02*
X027450Y020377D01*
X027236Y020590D01*
X027129Y020590D01*
X027450Y020377D02*
X027236Y020163D01*
X027129Y020163D01*
X027450Y019301D02*
X027450Y018874D01*
X027129Y017368D02*
X027129Y016941D01*
X027770Y016941D01*
X027450Y016941D02*
X027450Y017154D01*
X023300Y017680D02*
X023302Y017743D01*
X023308Y017805D01*
X023318Y017867D01*
X023331Y017929D01*
X023349Y017989D01*
X023370Y018048D01*
X023395Y018106D01*
X023424Y018162D01*
X023456Y018216D01*
X023491Y018268D01*
X023529Y018317D01*
X023571Y018365D01*
X023615Y018409D01*
X023663Y018451D01*
X023712Y018489D01*
X023764Y018524D01*
X023818Y018556D01*
X023874Y018585D01*
X023932Y018610D01*
X023991Y018631D01*
X024051Y018649D01*
X024113Y018662D01*
X024175Y018672D01*
X024237Y018678D01*
X024300Y018680D01*
X024363Y018678D01*
X024425Y018672D01*
X024487Y018662D01*
X024549Y018649D01*
X024609Y018631D01*
X024668Y018610D01*
X024726Y018585D01*
X024782Y018556D01*
X024836Y018524D01*
X024888Y018489D01*
X024937Y018451D01*
X024985Y018409D01*
X025029Y018365D01*
X025071Y018317D01*
X025109Y018268D01*
X025144Y018216D01*
X025176Y018162D01*
X025205Y018106D01*
X025230Y018048D01*
X025251Y017989D01*
X025269Y017929D01*
X025282Y017867D01*
X025292Y017805D01*
X025298Y017743D01*
X025300Y017680D01*
X025298Y017617D01*
X025292Y017555D01*
X025282Y017493D01*
X025269Y017431D01*
X025251Y017371D01*
X025230Y017312D01*
X025205Y017254D01*
X025176Y017198D01*
X025144Y017144D01*
X025109Y017092D01*
X025071Y017043D01*
X025029Y016995D01*
X024985Y016951D01*
X024937Y016909D01*
X024888Y016871D01*
X024836Y016836D01*
X024782Y016804D01*
X024726Y016775D01*
X024668Y016750D01*
X024609Y016729D01*
X024549Y016711D01*
X024487Y016698D01*
X024425Y016688D01*
X024363Y016682D01*
X024300Y016680D01*
X024237Y016682D01*
X024175Y016688D01*
X024113Y016698D01*
X024051Y016711D01*
X023991Y016729D01*
X023932Y016750D01*
X023874Y016775D01*
X023818Y016804D01*
X023764Y016836D01*
X023712Y016871D01*
X023663Y016909D01*
X023615Y016951D01*
X023571Y016995D01*
X023529Y017043D01*
X023491Y017092D01*
X023456Y017144D01*
X023424Y017198D01*
X023395Y017254D01*
X023370Y017312D01*
X023349Y017371D01*
X023331Y017431D01*
X023318Y017493D01*
X023308Y017555D01*
X023302Y017617D01*
X023300Y017680D01*
X023300Y021680D02*
X023302Y021743D01*
X023308Y021805D01*
X023318Y021867D01*
X023331Y021929D01*
X023349Y021989D01*
X023370Y022048D01*
X023395Y022106D01*
X023424Y022162D01*
X023456Y022216D01*
X023491Y022268D01*
X023529Y022317D01*
X023571Y022365D01*
X023615Y022409D01*
X023663Y022451D01*
X023712Y022489D01*
X023764Y022524D01*
X023818Y022556D01*
X023874Y022585D01*
X023932Y022610D01*
X023991Y022631D01*
X024051Y022649D01*
X024113Y022662D01*
X024175Y022672D01*
X024237Y022678D01*
X024300Y022680D01*
X024363Y022678D01*
X024425Y022672D01*
X024487Y022662D01*
X024549Y022649D01*
X024609Y022631D01*
X024668Y022610D01*
X024726Y022585D01*
X024782Y022556D01*
X024836Y022524D01*
X024888Y022489D01*
X024937Y022451D01*
X024985Y022409D01*
X025029Y022365D01*
X025071Y022317D01*
X025109Y022268D01*
X025144Y022216D01*
X025176Y022162D01*
X025205Y022106D01*
X025230Y022048D01*
X025251Y021989D01*
X025269Y021929D01*
X025282Y021867D01*
X025292Y021805D01*
X025298Y021743D01*
X025300Y021680D01*
X025298Y021617D01*
X025292Y021555D01*
X025282Y021493D01*
X025269Y021431D01*
X025251Y021371D01*
X025230Y021312D01*
X025205Y021254D01*
X025176Y021198D01*
X025144Y021144D01*
X025109Y021092D01*
X025071Y021043D01*
X025029Y020995D01*
X024985Y020951D01*
X024937Y020909D01*
X024888Y020871D01*
X024836Y020836D01*
X024782Y020804D01*
X024726Y020775D01*
X024668Y020750D01*
X024609Y020729D01*
X024549Y020711D01*
X024487Y020698D01*
X024425Y020688D01*
X024363Y020682D01*
X024300Y020680D01*
X024237Y020682D01*
X024175Y020688D01*
X024113Y020698D01*
X024051Y020711D01*
X023991Y020729D01*
X023932Y020750D01*
X023874Y020775D01*
X023818Y020804D01*
X023764Y020836D01*
X023712Y020871D01*
X023663Y020909D01*
X023615Y020951D01*
X023571Y020995D01*
X023529Y021043D01*
X023491Y021092D01*
X023456Y021144D01*
X023424Y021198D01*
X023395Y021254D01*
X023370Y021312D01*
X023349Y021371D01*
X023331Y021431D01*
X023318Y021493D01*
X023308Y021555D01*
X023302Y021617D01*
X023300Y021680D01*
X024450Y025680D02*
X024452Y025753D01*
X024458Y025826D01*
X024468Y025898D01*
X024482Y025970D01*
X024499Y026041D01*
X024521Y026111D01*
X024546Y026180D01*
X024575Y026247D01*
X024607Y026312D01*
X024643Y026376D01*
X024683Y026438D01*
X024725Y026497D01*
X024771Y026554D01*
X024820Y026608D01*
X024872Y026660D01*
X024926Y026709D01*
X024983Y026755D01*
X025042Y026797D01*
X025104Y026837D01*
X025168Y026873D01*
X025233Y026905D01*
X025300Y026934D01*
X025369Y026959D01*
X025439Y026981D01*
X025510Y026998D01*
X025582Y027012D01*
X025654Y027022D01*
X025727Y027028D01*
X025800Y027030D01*
X025873Y027028D01*
X025946Y027022D01*
X026018Y027012D01*
X026090Y026998D01*
X026161Y026981D01*
X026231Y026959D01*
X026300Y026934D01*
X026367Y026905D01*
X026432Y026873D01*
X026496Y026837D01*
X026558Y026797D01*
X026617Y026755D01*
X026674Y026709D01*
X026728Y026660D01*
X026780Y026608D01*
X026829Y026554D01*
X026875Y026497D01*
X026917Y026438D01*
X026957Y026376D01*
X026993Y026312D01*
X027025Y026247D01*
X027054Y026180D01*
X027079Y026111D01*
X027101Y026041D01*
X027118Y025970D01*
X027132Y025898D01*
X027142Y025826D01*
X027148Y025753D01*
X027150Y025680D01*
X027148Y025607D01*
X027142Y025534D01*
X027132Y025462D01*
X027118Y025390D01*
X027101Y025319D01*
X027079Y025249D01*
X027054Y025180D01*
X027025Y025113D01*
X026993Y025048D01*
X026957Y024984D01*
X026917Y024922D01*
X026875Y024863D01*
X026829Y024806D01*
X026780Y024752D01*
X026728Y024700D01*
X026674Y024651D01*
X026617Y024605D01*
X026558Y024563D01*
X026496Y024523D01*
X026432Y024487D01*
X026367Y024455D01*
X026300Y024426D01*
X026231Y024401D01*
X026161Y024379D01*
X026090Y024362D01*
X026018Y024348D01*
X025946Y024338D01*
X025873Y024332D01*
X025800Y024330D01*
X025727Y024332D01*
X025654Y024338D01*
X025582Y024348D01*
X025510Y024362D01*
X025439Y024379D01*
X025369Y024401D01*
X025300Y024426D01*
X025233Y024455D01*
X025168Y024487D01*
X025104Y024523D01*
X025042Y024563D01*
X024983Y024605D01*
X024926Y024651D01*
X024872Y024700D01*
X024820Y024752D01*
X024771Y024806D01*
X024725Y024863D01*
X024683Y024922D01*
X024643Y024984D01*
X024607Y025048D01*
X024575Y025113D01*
X024546Y025180D01*
X024521Y025249D01*
X024499Y025319D01*
X024482Y025390D01*
X024468Y025462D01*
X024458Y025534D01*
X024452Y025607D01*
X024450Y025680D01*
X012228Y022309D02*
X006000Y022309D01*
X006000Y020221D02*
X012228Y020221D01*
X007900Y011630D02*
X006700Y011630D01*
X006683Y011628D01*
X006666Y011624D01*
X006650Y011617D01*
X006636Y011607D01*
X006623Y011594D01*
X006613Y011580D01*
X006606Y011564D01*
X006602Y011547D01*
X006600Y011530D01*
X006600Y008830D01*
X006602Y008813D01*
X006606Y008796D01*
X006613Y008780D01*
X006623Y008766D01*
X006636Y008753D01*
X006650Y008743D01*
X006666Y008736D01*
X006683Y008732D01*
X006700Y008730D01*
X007900Y008730D01*
X007917Y008732D01*
X007934Y008736D01*
X007950Y008743D01*
X007964Y008753D01*
X007977Y008766D01*
X007987Y008780D01*
X007994Y008796D01*
X007998Y008813D01*
X008000Y008830D01*
X008000Y011530D01*
X007998Y011547D01*
X007994Y011564D01*
X007987Y011580D01*
X007977Y011594D01*
X007964Y011607D01*
X007950Y011617D01*
X007934Y011624D01*
X007917Y011628D01*
X007900Y011630D01*
X007300Y010780D02*
X007300Y010310D01*
X007300Y010060D02*
X007300Y009580D01*
X007900Y008130D02*
X006700Y008130D01*
X006683Y008128D01*
X006666Y008124D01*
X006650Y008117D01*
X006636Y008107D01*
X006623Y008094D01*
X006613Y008080D01*
X006606Y008064D01*
X006602Y008047D01*
X006600Y008030D01*
X006600Y005330D01*
X006602Y005313D01*
X006606Y005296D01*
X006613Y005280D01*
X006623Y005266D01*
X006636Y005253D01*
X006650Y005243D01*
X006666Y005236D01*
X006683Y005232D01*
X006700Y005230D01*
X007900Y005230D01*
X007917Y005232D01*
X007934Y005236D01*
X007950Y005243D01*
X007964Y005253D01*
X007977Y005266D01*
X007987Y005280D01*
X007994Y005296D01*
X007998Y005313D01*
X008000Y005330D01*
X008000Y008030D01*
X007998Y008047D01*
X007994Y008064D01*
X007987Y008080D01*
X007977Y008094D01*
X007964Y008107D01*
X007950Y008117D01*
X007934Y008124D01*
X007917Y008128D01*
X007900Y008130D01*
X007300Y007280D02*
X007300Y006800D01*
X007300Y006550D02*
X007300Y006080D01*
X005500Y005330D02*
X005500Y008030D01*
X005498Y008047D01*
X005494Y008064D01*
X005487Y008080D01*
X005477Y008094D01*
X005464Y008107D01*
X005450Y008117D01*
X005434Y008124D01*
X005417Y008128D01*
X005400Y008130D01*
X004200Y008130D01*
X004183Y008128D01*
X004166Y008124D01*
X004150Y008117D01*
X004136Y008107D01*
X004123Y008094D01*
X004113Y008080D01*
X004106Y008064D01*
X004102Y008047D01*
X004100Y008030D01*
X004100Y005330D01*
X004102Y005313D01*
X004106Y005296D01*
X004113Y005280D01*
X004123Y005266D01*
X004136Y005253D01*
X004150Y005243D01*
X004166Y005236D01*
X004183Y005232D01*
X004200Y005230D01*
X005400Y005230D01*
X005417Y005232D01*
X005434Y005236D01*
X005450Y005243D01*
X005464Y005253D01*
X005477Y005266D01*
X005487Y005280D01*
X005494Y005296D01*
X005498Y005313D01*
X005500Y005330D01*
X004800Y006080D02*
X004800Y006560D01*
X004800Y006810D02*
X004800Y007280D01*
X004200Y008730D02*
X005400Y008730D01*
X005417Y008732D01*
X005434Y008736D01*
X005450Y008743D01*
X005464Y008753D01*
X005477Y008766D01*
X005487Y008780D01*
X005494Y008796D01*
X005498Y008813D01*
X005500Y008830D01*
X005500Y011530D01*
X005498Y011547D01*
X005494Y011564D01*
X005487Y011580D01*
X005477Y011594D01*
X005464Y011607D01*
X005450Y011617D01*
X005434Y011624D01*
X005417Y011628D01*
X005400Y011630D01*
X004200Y011630D01*
X004183Y011628D01*
X004166Y011624D01*
X004150Y011617D01*
X004136Y011607D01*
X004123Y011594D01*
X004113Y011580D01*
X004106Y011564D01*
X004102Y011547D01*
X004100Y011530D01*
X004100Y008830D01*
X004102Y008813D01*
X004106Y008796D01*
X004113Y008780D01*
X004123Y008766D01*
X004136Y008753D01*
X004150Y008743D01*
X004166Y008736D01*
X004183Y008732D01*
X004200Y008730D01*
X004800Y009580D02*
X004800Y010060D01*
X004800Y010310D02*
X004800Y010780D01*
X002900Y010830D02*
X002900Y010580D01*
X002898Y010563D01*
X002894Y010546D01*
X002887Y010530D01*
X002877Y010516D01*
X002864Y010503D01*
X002850Y010493D01*
X002834Y010486D01*
X002817Y010482D01*
X002800Y010480D01*
X001800Y010480D01*
X001783Y010482D01*
X001766Y010486D01*
X001750Y010493D01*
X001736Y010503D01*
X001723Y010516D01*
X001713Y010530D01*
X001706Y010546D01*
X001702Y010563D01*
X001700Y010580D01*
X001700Y010830D01*
X001750Y010880D01*
X001750Y013480D01*
X001700Y013530D01*
X001700Y013780D01*
X001702Y013797D01*
X001706Y013814D01*
X001713Y013830D01*
X001723Y013844D01*
X001736Y013857D01*
X001750Y013867D01*
X001766Y013874D01*
X001783Y013878D01*
X001800Y013880D01*
X002800Y013880D01*
X002817Y013878D01*
X002834Y013874D01*
X002850Y013867D01*
X002864Y013857D01*
X002877Y013844D01*
X002887Y013830D01*
X002894Y013814D01*
X002898Y013797D01*
X002900Y013780D01*
X002900Y013530D01*
X002850Y013480D01*
X002850Y010880D01*
X002900Y010830D01*
X002550Y016680D02*
X002050Y016680D01*
X001800Y016930D01*
X001800Y017430D01*
X002050Y017680D01*
X001800Y017930D01*
X001800Y018430D01*
X002050Y018680D01*
X002550Y018680D01*
X002800Y018430D01*
X002800Y017930D01*
X002550Y017680D01*
X002800Y017430D01*
X002800Y016930D01*
X002550Y016680D01*
X002550Y017680D02*
X002050Y017680D01*
X002050Y018680D02*
X001800Y018930D01*
X001800Y019430D01*
X002050Y019680D01*
X001800Y019930D01*
X001800Y020430D01*
X002050Y020680D01*
X001800Y020930D01*
X001800Y021430D01*
X002050Y021680D01*
X001800Y021930D01*
X001800Y022430D01*
X002050Y022680D01*
X002550Y022680D01*
X002800Y022430D01*
X002800Y021930D01*
X002550Y021680D01*
X002800Y021430D01*
X002800Y020930D01*
X002550Y020680D01*
X002800Y020430D01*
X002800Y019930D01*
X002550Y019680D01*
X002800Y019430D01*
X002800Y018930D01*
X002550Y018680D01*
X002550Y019680D02*
X002050Y019680D01*
X002050Y020680D02*
X002550Y020680D01*
X002550Y021680D02*
X002050Y021680D01*
X000950Y025680D02*
X000952Y025753D01*
X000958Y025826D01*
X000968Y025898D01*
X000982Y025970D01*
X000999Y026041D01*
X001021Y026111D01*
X001046Y026180D01*
X001075Y026247D01*
X001107Y026312D01*
X001143Y026376D01*
X001183Y026438D01*
X001225Y026497D01*
X001271Y026554D01*
X001320Y026608D01*
X001372Y026660D01*
X001426Y026709D01*
X001483Y026755D01*
X001542Y026797D01*
X001604Y026837D01*
X001668Y026873D01*
X001733Y026905D01*
X001800Y026934D01*
X001869Y026959D01*
X001939Y026981D01*
X002010Y026998D01*
X002082Y027012D01*
X002154Y027022D01*
X002227Y027028D01*
X002300Y027030D01*
X002373Y027028D01*
X002446Y027022D01*
X002518Y027012D01*
X002590Y026998D01*
X002661Y026981D01*
X002731Y026959D01*
X002800Y026934D01*
X002867Y026905D01*
X002932Y026873D01*
X002996Y026837D01*
X003058Y026797D01*
X003117Y026755D01*
X003174Y026709D01*
X003228Y026660D01*
X003280Y026608D01*
X003329Y026554D01*
X003375Y026497D01*
X003417Y026438D01*
X003457Y026376D01*
X003493Y026312D01*
X003525Y026247D01*
X003554Y026180D01*
X003579Y026111D01*
X003601Y026041D01*
X003618Y025970D01*
X003632Y025898D01*
X003642Y025826D01*
X003648Y025753D01*
X003650Y025680D01*
X003648Y025607D01*
X003642Y025534D01*
X003632Y025462D01*
X003618Y025390D01*
X003601Y025319D01*
X003579Y025249D01*
X003554Y025180D01*
X003525Y025113D01*
X003493Y025048D01*
X003457Y024984D01*
X003417Y024922D01*
X003375Y024863D01*
X003329Y024806D01*
X003280Y024752D01*
X003228Y024700D01*
X003174Y024651D01*
X003117Y024605D01*
X003058Y024563D01*
X002996Y024523D01*
X002932Y024487D01*
X002867Y024455D01*
X002800Y024426D01*
X002731Y024401D01*
X002661Y024379D01*
X002590Y024362D01*
X002518Y024348D01*
X002446Y024338D01*
X002373Y024332D01*
X002300Y024330D01*
X002227Y024332D01*
X002154Y024338D01*
X002082Y024348D01*
X002010Y024362D01*
X001939Y024379D01*
X001869Y024401D01*
X001800Y024426D01*
X001733Y024455D01*
X001668Y024487D01*
X001604Y024523D01*
X001542Y024563D01*
X001483Y024605D01*
X001426Y024651D01*
X001372Y024700D01*
X001320Y024752D01*
X001271Y024806D01*
X001225Y024863D01*
X001183Y024922D01*
X001143Y024984D01*
X001107Y025048D01*
X001075Y025113D01*
X001046Y025180D01*
X001021Y025249D01*
X000999Y025319D01*
X000982Y025390D01*
X000968Y025462D01*
X000958Y025534D01*
X000952Y025607D01*
X000950Y025680D01*
X000950Y002180D02*
X000952Y002253D01*
X000958Y002326D01*
X000968Y002398D01*
X000982Y002470D01*
X000999Y002541D01*
X001021Y002611D01*
X001046Y002680D01*
X001075Y002747D01*
X001107Y002812D01*
X001143Y002876D01*
X001183Y002938D01*
X001225Y002997D01*
X001271Y003054D01*
X001320Y003108D01*
X001372Y003160D01*
X001426Y003209D01*
X001483Y003255D01*
X001542Y003297D01*
X001604Y003337D01*
X001668Y003373D01*
X001733Y003405D01*
X001800Y003434D01*
X001869Y003459D01*
X001939Y003481D01*
X002010Y003498D01*
X002082Y003512D01*
X002154Y003522D01*
X002227Y003528D01*
X002300Y003530D01*
X002373Y003528D01*
X002446Y003522D01*
X002518Y003512D01*
X002590Y003498D01*
X002661Y003481D01*
X002731Y003459D01*
X002800Y003434D01*
X002867Y003405D01*
X002932Y003373D01*
X002996Y003337D01*
X003058Y003297D01*
X003117Y003255D01*
X003174Y003209D01*
X003228Y003160D01*
X003280Y003108D01*
X003329Y003054D01*
X003375Y002997D01*
X003417Y002938D01*
X003457Y002876D01*
X003493Y002812D01*
X003525Y002747D01*
X003554Y002680D01*
X003579Y002611D01*
X003601Y002541D01*
X003618Y002470D01*
X003632Y002398D01*
X003642Y002326D01*
X003648Y002253D01*
X003650Y002180D01*
X003648Y002107D01*
X003642Y002034D01*
X003632Y001962D01*
X003618Y001890D01*
X003601Y001819D01*
X003579Y001749D01*
X003554Y001680D01*
X003525Y001613D01*
X003493Y001548D01*
X003457Y001484D01*
X003417Y001422D01*
X003375Y001363D01*
X003329Y001306D01*
X003280Y001252D01*
X003228Y001200D01*
X003174Y001151D01*
X003117Y001105D01*
X003058Y001063D01*
X002996Y001023D01*
X002932Y000987D01*
X002867Y000955D01*
X002800Y000926D01*
X002731Y000901D01*
X002661Y000879D01*
X002590Y000862D01*
X002518Y000848D01*
X002446Y000838D01*
X002373Y000832D01*
X002300Y000830D01*
X002227Y000832D01*
X002154Y000838D01*
X002082Y000848D01*
X002010Y000862D01*
X001939Y000879D01*
X001869Y000901D01*
X001800Y000926D01*
X001733Y000955D01*
X001668Y000987D01*
X001604Y001023D01*
X001542Y001063D01*
X001483Y001105D01*
X001426Y001151D01*
X001372Y001200D01*
X001320Y001252D01*
X001271Y001306D01*
X001225Y001363D01*
X001183Y001422D01*
X001143Y001484D01*
X001107Y001548D01*
X001075Y001613D01*
X001046Y001680D01*
X001021Y001749D01*
X000999Y001819D01*
X000982Y001890D01*
X000968Y001962D01*
X000958Y002034D01*
X000952Y002107D01*
X000950Y002180D01*
D12*
X003820Y002274D02*
X003820Y002428D01*
X003820Y002351D02*
X004203Y002351D01*
X004280Y002274D01*
X004280Y002198D01*
X004203Y002121D01*
X004203Y001967D02*
X004280Y001891D01*
X004280Y001737D01*
X004203Y001660D01*
X003896Y001660D01*
X003820Y001737D01*
X003820Y001891D01*
X003896Y001967D01*
X003896Y001507D02*
X003820Y001430D01*
X003820Y001200D01*
X004280Y001200D01*
X004280Y001430D01*
X004203Y001507D01*
X003896Y001507D01*
X003973Y002581D02*
X003820Y002735D01*
X003973Y002888D01*
X004280Y002888D01*
X004203Y003042D02*
X004280Y003118D01*
X004280Y003272D01*
X004203Y003348D01*
X004127Y003502D02*
X003820Y003809D01*
X003820Y003502D02*
X004280Y003502D01*
X004050Y003579D02*
X004280Y003809D01*
X003896Y003348D02*
X003820Y003272D01*
X003820Y003118D01*
X003896Y003042D01*
X004203Y003042D01*
X004050Y002888D02*
X004050Y002581D01*
X003973Y002581D02*
X004280Y002581D01*
X009243Y001814D02*
X009857Y001814D01*
X009780Y001891D02*
X009703Y001967D01*
X009627Y001967D01*
X009550Y001891D01*
X009550Y001737D01*
X009473Y001660D01*
X009396Y001660D01*
X009320Y001737D01*
X009320Y001891D01*
X009396Y001967D01*
X009396Y002121D02*
X009320Y002198D01*
X009320Y002351D01*
X009396Y002428D01*
X009473Y002428D01*
X009780Y002121D01*
X009780Y002428D01*
X009780Y001891D02*
X009780Y001737D01*
X009703Y001660D01*
X009703Y001507D02*
X009320Y001507D01*
X009320Y001200D02*
X009703Y001200D01*
X009780Y001277D01*
X009780Y001430D01*
X009703Y001507D01*
X009053Y010500D02*
X008670Y010500D01*
X008670Y010807D02*
X009053Y010807D01*
X009130Y010730D01*
X009130Y010577D01*
X009053Y010500D01*
X009053Y010960D02*
X009130Y011037D01*
X009130Y011191D01*
X009053Y011267D01*
X008977Y011267D01*
X008900Y011191D01*
X008900Y011037D01*
X008823Y010960D01*
X008746Y010960D01*
X008670Y011037D01*
X008670Y011191D01*
X008746Y011267D01*
X008823Y011421D02*
X008670Y011574D01*
X009130Y011574D01*
X009130Y011421D02*
X009130Y011728D01*
X009207Y011114D02*
X008593Y011114D01*
X010470Y011550D02*
X010470Y012010D01*
X010700Y012010D01*
X010777Y011934D01*
X010777Y011780D01*
X010700Y011703D01*
X010470Y011703D01*
X010930Y011550D02*
X011084Y011550D01*
X011007Y011550D02*
X011007Y012010D01*
X010930Y012010D02*
X011084Y012010D01*
X011237Y011934D02*
X011237Y011627D01*
X011314Y011550D01*
X011468Y011550D01*
X011544Y011627D01*
X011698Y011550D02*
X012005Y011550D01*
X011851Y011550D02*
X011851Y012010D01*
X011698Y011857D01*
X011544Y011934D02*
X011468Y012010D01*
X011314Y012010D01*
X011237Y011934D01*
X012158Y011780D02*
X012158Y011627D01*
X012235Y011550D01*
X012388Y011550D01*
X012465Y011627D01*
X012465Y011703D01*
X012388Y011780D01*
X012158Y011780D01*
X012312Y011934D01*
X012465Y012010D01*
X012618Y012010D02*
X012925Y012010D01*
X013079Y011857D02*
X013232Y012010D01*
X013232Y011550D01*
X013079Y011550D02*
X013386Y011550D01*
X013539Y011627D02*
X013539Y011703D01*
X013616Y011780D01*
X013769Y011780D01*
X013846Y011703D01*
X013846Y011627D01*
X013769Y011550D01*
X013616Y011550D01*
X013539Y011627D01*
X013616Y011780D02*
X013539Y011857D01*
X013539Y011934D01*
X013616Y012010D01*
X013769Y012010D01*
X013846Y011934D01*
X013846Y011857D01*
X013769Y011780D01*
X014000Y011934D02*
X014076Y012010D01*
X014230Y012010D01*
X014307Y011934D01*
X014307Y011857D01*
X014000Y011550D01*
X014307Y011550D01*
X014460Y011627D02*
X014537Y011550D01*
X014690Y011550D01*
X014767Y011627D01*
X014767Y011934D01*
X014690Y012010D01*
X014537Y012010D01*
X014460Y011934D01*
X014460Y011857D01*
X014537Y011780D01*
X014767Y011780D01*
X012772Y011780D02*
X012618Y011780D01*
X012618Y011550D02*
X012618Y012010D01*
X008350Y013678D02*
X008273Y013602D01*
X008119Y013602D01*
X008043Y013678D01*
X008043Y013985D01*
X008119Y014062D01*
X008273Y014062D01*
X008350Y013985D01*
X008350Y013678D01*
X007889Y013602D02*
X007736Y013755D01*
X007813Y013755D02*
X007582Y013755D01*
X007582Y013602D02*
X007582Y014062D01*
X007813Y014062D01*
X007889Y013985D01*
X007889Y013832D01*
X007813Y013755D01*
X007429Y013832D02*
X007429Y013985D01*
X007352Y014062D01*
X007122Y014062D01*
X007122Y013602D01*
X007122Y013755D02*
X007352Y013755D01*
X007429Y013832D01*
X006968Y013832D02*
X006662Y013832D01*
X006508Y014062D02*
X006201Y014062D01*
X006201Y013602D01*
X006508Y013602D01*
X006355Y013832D02*
X006201Y013832D01*
X006048Y014062D02*
X005741Y014062D01*
X005741Y013602D01*
X006048Y013602D01*
X005894Y013832D02*
X005741Y013832D01*
X005587Y013909D02*
X005587Y013985D01*
X005511Y014062D01*
X005280Y014062D01*
X005280Y013602D01*
X005511Y013602D01*
X005587Y013678D01*
X005587Y013755D01*
X005511Y013832D01*
X005280Y013832D01*
X005511Y013832D02*
X005587Y013909D01*
X005127Y014062D02*
X004820Y013602D01*
X005127Y013602D02*
X004820Y014062D01*
X009278Y019113D02*
X009256Y019146D01*
X009256Y019184D01*
X009267Y019228D01*
X009316Y019332D01*
X009349Y019409D01*
X009360Y019480D01*
X009377Y019546D01*
X009404Y019634D01*
X009432Y019700D01*
X009459Y019744D01*
X009415Y019744D01*
X009415Y019837D01*
X009464Y019837D01*
X009508Y019870D01*
X009552Y019914D01*
X009601Y019886D01*
X009799Y019886D01*
X009958Y019870D01*
X010067Y019804D01*
X010095Y019755D01*
X010095Y019733D01*
X010073Y019683D01*
X010040Y019645D01*
X009974Y019601D01*
X009733Y019480D01*
X009607Y019431D01*
X009508Y019409D01*
X009475Y019404D01*
X009437Y019404D01*
X009421Y019354D01*
X009388Y019256D01*
X009360Y019168D01*
X009338Y019130D01*
X009327Y019108D01*
X009305Y019097D01*
X009278Y019113D01*
X009497Y019546D02*
X009596Y019749D01*
X009607Y019777D01*
X009887Y019777D01*
X009952Y019749D01*
X009969Y019738D01*
X009963Y019722D01*
X009936Y019700D01*
X009848Y019656D01*
X009777Y019607D01*
X009678Y019579D01*
X009607Y019552D01*
X009563Y019546D01*
X009497Y019546D01*
X010237Y019250D02*
X010226Y019195D01*
X010232Y019113D01*
X010292Y019058D01*
X010292Y019091D01*
X010314Y019146D01*
X010347Y019245D01*
X010385Y019354D01*
X010396Y019393D01*
X010435Y019393D01*
X010638Y019256D01*
X010851Y019086D01*
X010895Y019053D01*
X010912Y019058D01*
X010928Y019091D01*
X010923Y019124D01*
X010901Y019179D01*
X010857Y019234D01*
X010780Y019294D01*
X010676Y019365D01*
X010594Y019448D01*
X010649Y019480D01*
X010764Y019552D01*
X010884Y019607D01*
X010945Y019645D01*
X010989Y019689D01*
X010989Y019733D01*
X011016Y019782D01*
X011005Y019809D01*
X010967Y019853D01*
X010923Y019881D01*
X010846Y019908D01*
X010780Y019925D01*
X010462Y019925D01*
X010391Y019897D01*
X010331Y019875D01*
X010298Y019842D01*
X010292Y019809D01*
X010303Y019787D01*
X010331Y019771D01*
X010347Y019749D01*
X010347Y019744D01*
X010391Y019777D01*
X010429Y019771D01*
X010413Y019733D01*
X010374Y019661D01*
X010314Y019524D01*
X010287Y019426D01*
X010237Y019250D01*
X010473Y019552D02*
X010577Y019738D01*
X010583Y019793D01*
X010780Y019793D01*
X010846Y019782D01*
X010862Y019749D01*
X010824Y019738D01*
X010769Y019683D01*
X010692Y019639D01*
X010621Y019601D01*
X010539Y019585D01*
X010473Y019552D01*
X011142Y019365D02*
X011169Y019497D01*
X011186Y019541D01*
X011334Y019689D01*
X011542Y019864D01*
X011657Y019925D01*
X011663Y019925D02*
X011718Y019903D01*
X011756Y019859D01*
X011761Y019831D01*
X011838Y019809D01*
X011948Y019733D01*
X012041Y019656D01*
X012069Y019552D01*
X012058Y019480D01*
X011997Y019371D01*
X011893Y019289D01*
X011816Y019212D01*
X011674Y019179D01*
X011570Y019113D01*
X011411Y019091D01*
X011285Y019091D01*
X011191Y019152D01*
X011137Y019256D01*
X011142Y019365D01*
X011257Y019300D02*
X011252Y019245D01*
X011301Y019217D01*
X011433Y019223D01*
X011564Y019272D01*
X011701Y019316D01*
X011816Y019382D01*
X011926Y019459D01*
X011926Y019590D01*
X011805Y019716D01*
X011740Y019738D01*
X011603Y019738D01*
X011542Y019694D01*
X011400Y019585D01*
X011306Y019459D01*
X011257Y019300D01*
X010917Y020517D02*
X010873Y020528D01*
X010829Y020560D01*
X010802Y020599D01*
X010786Y020659D01*
X010786Y020714D01*
X010797Y020802D01*
X010906Y021290D01*
X010923Y021350D01*
X010989Y021481D01*
X011038Y021553D01*
X011126Y021608D01*
X011191Y021630D01*
X011224Y021635D01*
X012085Y021635D01*
X012145Y021613D01*
X012217Y021558D01*
X012238Y021536D01*
X012238Y021344D01*
X012145Y020966D01*
X011246Y020966D01*
X011202Y020780D01*
X011191Y020747D01*
X011197Y020709D01*
X011219Y020692D01*
X012008Y020692D01*
X012079Y020703D01*
X012003Y020517D01*
X010917Y020517D01*
X010621Y020703D02*
X010544Y020517D01*
X009459Y020517D01*
X009415Y020528D01*
X009371Y020560D01*
X009344Y020599D01*
X009327Y020659D01*
X009327Y020714D01*
X009338Y020802D01*
X009448Y021290D01*
X009464Y021350D01*
X009530Y021481D01*
X009580Y021553D01*
X009667Y021608D01*
X009733Y021630D01*
X009766Y021635D01*
X010627Y021635D01*
X010687Y021613D01*
X010758Y021558D01*
X010780Y021536D01*
X010780Y021344D01*
X010687Y020966D01*
X009788Y020966D01*
X009744Y020780D01*
X009733Y020747D01*
X009739Y020709D01*
X009760Y020692D01*
X010550Y020692D01*
X010621Y020703D01*
X010314Y021136D02*
X009843Y021136D01*
X009837Y021142D01*
X009876Y021366D01*
X009892Y021410D01*
X009914Y021449D01*
X009947Y021465D01*
X010336Y021465D01*
X010358Y021460D01*
X010374Y021443D01*
X010374Y021372D01*
X010314Y021136D01*
X009305Y021465D02*
X009371Y021739D01*
X009388Y021783D01*
X009388Y021876D01*
X009366Y021931D01*
X009333Y021991D01*
X009289Y022019D01*
X009223Y022035D01*
X007979Y022035D01*
X007979Y021926D01*
X007957Y021827D01*
X007814Y021246D01*
X007738Y020933D01*
X007672Y020687D01*
X007628Y020555D01*
X007595Y020522D01*
X007579Y020522D01*
X007491Y020643D01*
X007184Y021399D01*
X007699Y021882D01*
X007776Y021948D01*
X007831Y021986D01*
X007902Y022035D01*
X007557Y022035D01*
X007551Y022013D01*
X007535Y021980D01*
X007513Y021953D01*
X007124Y021569D01*
X006986Y021915D01*
X006986Y021942D01*
X006970Y021969D01*
X006986Y022002D01*
X006986Y022035D01*
X006383Y022035D01*
X006444Y021975D01*
X006756Y021213D01*
X006120Y020615D01*
X005983Y020517D01*
X006307Y020517D01*
X006356Y020604D01*
X006811Y021048D01*
X006986Y020615D01*
X006986Y020577D01*
X006954Y020517D01*
X008856Y020517D01*
X008960Y020550D01*
X009026Y020582D01*
X009108Y020676D01*
X009119Y020741D01*
X009157Y020802D01*
X009218Y021043D01*
X009218Y021191D01*
X009212Y021202D01*
X009097Y021257D01*
X008938Y021279D01*
X009048Y021279D01*
X009136Y021301D01*
X009201Y021328D01*
X009284Y021410D01*
X009305Y021465D01*
X008878Y021443D02*
X008861Y021405D01*
X008829Y021383D01*
X008280Y021383D01*
X008395Y021849D01*
X008900Y021849D01*
X008949Y021821D01*
X008955Y021734D01*
X008878Y021443D01*
X008785Y021169D02*
X008812Y021131D01*
X008812Y021114D01*
X008730Y020791D01*
X008708Y020758D01*
X008669Y020714D01*
X008648Y020703D01*
X008116Y020703D01*
X008242Y021185D01*
X008741Y021185D01*
X008785Y021169D01*
X011296Y021142D02*
X011301Y021136D01*
X011772Y021136D01*
X011833Y021372D01*
X011833Y021443D01*
X011816Y021460D01*
X011794Y021465D01*
X011405Y021465D01*
X011372Y021449D01*
X011350Y021410D01*
X011334Y021366D01*
X011296Y021142D01*
X006048Y026700D02*
X005741Y026700D01*
X005894Y026700D02*
X005894Y027160D01*
X005741Y027007D01*
X005587Y027007D02*
X005511Y026930D01*
X005280Y026930D01*
X005280Y026700D02*
X005511Y026700D01*
X005587Y026777D01*
X005587Y026853D01*
X005511Y026930D01*
X005587Y027007D02*
X005587Y027084D01*
X005511Y027160D01*
X005280Y027160D01*
X005280Y026700D01*
X005127Y026700D02*
X004820Y027160D01*
X005127Y027160D02*
X004820Y026700D01*
D13*
X004536Y024763D02*
X007026Y027253D01*
X011574Y027253D01*
X014064Y024763D01*
X014064Y014367D01*
X004536Y014367D01*
X004536Y024763D01*
X001670Y025680D02*
X001672Y025730D01*
X001678Y025780D01*
X001688Y025829D01*
X001702Y025877D01*
X001719Y025924D01*
X001740Y025969D01*
X001765Y026013D01*
X001793Y026054D01*
X001825Y026093D01*
X001859Y026130D01*
X001896Y026164D01*
X001936Y026194D01*
X001978Y026221D01*
X002022Y026245D01*
X002068Y026266D01*
X002115Y026282D01*
X002163Y026295D01*
X002213Y026304D01*
X002262Y026309D01*
X002313Y026310D01*
X002363Y026307D01*
X002412Y026300D01*
X002461Y026289D01*
X002509Y026274D01*
X002555Y026256D01*
X002600Y026234D01*
X002643Y026208D01*
X002684Y026179D01*
X002723Y026147D01*
X002759Y026112D01*
X002791Y026074D01*
X002821Y026034D01*
X002848Y025991D01*
X002871Y025947D01*
X002890Y025901D01*
X002906Y025853D01*
X002918Y025804D01*
X002926Y025755D01*
X002930Y025705D01*
X002930Y025655D01*
X002926Y025605D01*
X002918Y025556D01*
X002906Y025507D01*
X002890Y025459D01*
X002871Y025413D01*
X002848Y025369D01*
X002821Y025326D01*
X002791Y025286D01*
X002759Y025248D01*
X002723Y025213D01*
X002684Y025181D01*
X002643Y025152D01*
X002600Y025126D01*
X002555Y025104D01*
X002509Y025086D01*
X002461Y025071D01*
X002412Y025060D01*
X002363Y025053D01*
X002313Y025050D01*
X002262Y025051D01*
X002213Y025056D01*
X002163Y025065D01*
X002115Y025078D01*
X002068Y025094D01*
X002022Y025115D01*
X001978Y025139D01*
X001936Y025166D01*
X001896Y025196D01*
X001859Y025230D01*
X001825Y025267D01*
X001793Y025306D01*
X001765Y025347D01*
X001740Y025391D01*
X001719Y025436D01*
X001702Y025483D01*
X001688Y025531D01*
X001678Y025580D01*
X001672Y025630D01*
X001670Y025680D01*
X004607Y004215D02*
X005237Y004215D01*
X004607Y004215D02*
X004607Y000586D01*
X001670Y002180D02*
X001672Y002230D01*
X001678Y002280D01*
X001688Y002329D01*
X001702Y002377D01*
X001719Y002424D01*
X001740Y002469D01*
X001765Y002513D01*
X001793Y002554D01*
X001825Y002593D01*
X001859Y002630D01*
X001896Y002664D01*
X001936Y002694D01*
X001978Y002721D01*
X002022Y002745D01*
X002068Y002766D01*
X002115Y002782D01*
X002163Y002795D01*
X002213Y002804D01*
X002262Y002809D01*
X002313Y002810D01*
X002363Y002807D01*
X002412Y002800D01*
X002461Y002789D01*
X002509Y002774D01*
X002555Y002756D01*
X002600Y002734D01*
X002643Y002708D01*
X002684Y002679D01*
X002723Y002647D01*
X002759Y002612D01*
X002791Y002574D01*
X002821Y002534D01*
X002848Y002491D01*
X002871Y002447D01*
X002890Y002401D01*
X002906Y002353D01*
X002918Y002304D01*
X002926Y002255D01*
X002930Y002205D01*
X002930Y002155D01*
X002926Y002105D01*
X002918Y002056D01*
X002906Y002007D01*
X002890Y001959D01*
X002871Y001913D01*
X002848Y001869D01*
X002821Y001826D01*
X002791Y001786D01*
X002759Y001748D01*
X002723Y001713D01*
X002684Y001681D01*
X002643Y001652D01*
X002600Y001626D01*
X002555Y001604D01*
X002509Y001586D01*
X002461Y001571D01*
X002412Y001560D01*
X002363Y001553D01*
X002313Y001550D01*
X002262Y001551D01*
X002213Y001556D01*
X002163Y001565D01*
X002115Y001578D01*
X002068Y001594D01*
X002022Y001615D01*
X001978Y001639D01*
X001936Y001666D01*
X001896Y001696D01*
X001859Y001730D01*
X001825Y001767D01*
X001793Y001806D01*
X001765Y001847D01*
X001740Y001891D01*
X001719Y001936D01*
X001702Y001983D01*
X001688Y002031D01*
X001678Y002080D01*
X001672Y002130D01*
X001670Y002180D01*
X007363Y004215D02*
X007993Y004215D01*
X007993Y003586D01*
X023550Y018680D02*
X025050Y018680D01*
X025050Y022680D02*
X023550Y022680D01*
X025170Y025680D02*
X025172Y025730D01*
X025178Y025780D01*
X025188Y025829D01*
X025202Y025877D01*
X025219Y025924D01*
X025240Y025969D01*
X025265Y026013D01*
X025293Y026054D01*
X025325Y026093D01*
X025359Y026130D01*
X025396Y026164D01*
X025436Y026194D01*
X025478Y026221D01*
X025522Y026245D01*
X025568Y026266D01*
X025615Y026282D01*
X025663Y026295D01*
X025713Y026304D01*
X025762Y026309D01*
X025813Y026310D01*
X025863Y026307D01*
X025912Y026300D01*
X025961Y026289D01*
X026009Y026274D01*
X026055Y026256D01*
X026100Y026234D01*
X026143Y026208D01*
X026184Y026179D01*
X026223Y026147D01*
X026259Y026112D01*
X026291Y026074D01*
X026321Y026034D01*
X026348Y025991D01*
X026371Y025947D01*
X026390Y025901D01*
X026406Y025853D01*
X026418Y025804D01*
X026426Y025755D01*
X026430Y025705D01*
X026430Y025655D01*
X026426Y025605D01*
X026418Y025556D01*
X026406Y025507D01*
X026390Y025459D01*
X026371Y025413D01*
X026348Y025369D01*
X026321Y025326D01*
X026291Y025286D01*
X026259Y025248D01*
X026223Y025213D01*
X026184Y025181D01*
X026143Y025152D01*
X026100Y025126D01*
X026055Y025104D01*
X026009Y025086D01*
X025961Y025071D01*
X025912Y025060D01*
X025863Y025053D01*
X025813Y025050D01*
X025762Y025051D01*
X025713Y025056D01*
X025663Y025065D01*
X025615Y025078D01*
X025568Y025094D01*
X025522Y025115D01*
X025478Y025139D01*
X025436Y025166D01*
X025396Y025196D01*
X025359Y025230D01*
X025325Y025267D01*
X025293Y025306D01*
X025265Y025347D01*
X025240Y025391D01*
X025219Y025436D01*
X025202Y025483D01*
X025188Y025531D01*
X025178Y025580D01*
X025172Y025630D01*
X025170Y025680D01*
X025170Y002180D02*
X025172Y002230D01*
X025178Y002280D01*
X025188Y002329D01*
X025202Y002377D01*
X025219Y002424D01*
X025240Y002469D01*
X025265Y002513D01*
X025293Y002554D01*
X025325Y002593D01*
X025359Y002630D01*
X025396Y002664D01*
X025436Y002694D01*
X025478Y002721D01*
X025522Y002745D01*
X025568Y002766D01*
X025615Y002782D01*
X025663Y002795D01*
X025713Y002804D01*
X025762Y002809D01*
X025813Y002810D01*
X025863Y002807D01*
X025912Y002800D01*
X025961Y002789D01*
X026009Y002774D01*
X026055Y002756D01*
X026100Y002734D01*
X026143Y002708D01*
X026184Y002679D01*
X026223Y002647D01*
X026259Y002612D01*
X026291Y002574D01*
X026321Y002534D01*
X026348Y002491D01*
X026371Y002447D01*
X026390Y002401D01*
X026406Y002353D01*
X026418Y002304D01*
X026426Y002255D01*
X026430Y002205D01*
X026430Y002155D01*
X026426Y002105D01*
X026418Y002056D01*
X026406Y002007D01*
X026390Y001959D01*
X026371Y001913D01*
X026348Y001869D01*
X026321Y001826D01*
X026291Y001786D01*
X026259Y001748D01*
X026223Y001713D01*
X026184Y001681D01*
X026143Y001652D01*
X026100Y001626D01*
X026055Y001604D01*
X026009Y001586D01*
X025961Y001571D01*
X025912Y001560D01*
X025863Y001553D01*
X025813Y001550D01*
X025762Y001551D01*
X025713Y001556D01*
X025663Y001565D01*
X025615Y001578D01*
X025568Y001594D01*
X025522Y001615D01*
X025478Y001639D01*
X025436Y001666D01*
X025396Y001696D01*
X025359Y001730D01*
X025325Y001767D01*
X025293Y001806D01*
X025265Y001847D01*
X025240Y001891D01*
X025219Y001936D01*
X025202Y001983D01*
X025188Y002031D01*
X025178Y002080D01*
X025172Y002130D01*
X025170Y002180D01*
D14*
X007550Y006550D02*
X007300Y006550D01*
X007050Y006550D01*
X007050Y006800D02*
X007300Y006800D01*
X007550Y006800D01*
X005050Y006810D02*
X004800Y006810D01*
X004550Y006810D01*
X004550Y006560D02*
X004800Y006560D01*
X005050Y006560D01*
X005050Y010060D02*
X004800Y010060D01*
X004550Y010060D01*
X004550Y010310D02*
X004800Y010310D01*
X005050Y010310D01*
X007050Y010310D02*
X007300Y010310D01*
X007550Y010310D01*
X007550Y010060D02*
X007300Y010060D01*
X007050Y010060D01*
D15*
X006425Y009566D02*
X006425Y009265D01*
X006125Y009566D01*
X006050Y009566D01*
X006125Y009491D01*
X006125Y009340D01*
X006050Y009265D01*
X005750Y009566D01*
X006050Y009566D01*
X005975Y009491D01*
X005975Y009340D01*
X006050Y009265D01*
X005750Y009265D01*
X005675Y009340D01*
X005675Y009491D01*
X005750Y009566D01*
X005825Y009726D02*
X005825Y009951D01*
X005900Y010026D01*
X006125Y010026D01*
X006125Y010186D02*
X005675Y010186D01*
X005675Y010486D01*
X005900Y010336D02*
X005900Y010186D01*
X005825Y009726D02*
X006125Y009726D01*
X006125Y009105D02*
X006125Y008805D01*
X006050Y008805D02*
X006350Y008805D01*
X006425Y008880D01*
X006425Y009030D01*
X006350Y009105D01*
X006125Y008955D02*
X005675Y008955D01*
X005825Y008805D01*
X005975Y008880D02*
X005975Y009030D01*
X006050Y009105D01*
X005975Y008880D02*
X006050Y008805D01*
X005975Y007945D02*
X005975Y007645D01*
X006425Y007645D01*
X006425Y007484D02*
X006125Y007484D01*
X006200Y007645D02*
X006200Y007795D01*
X006425Y007484D02*
X006425Y007259D01*
X006350Y007184D01*
X006125Y007184D01*
X006125Y007024D02*
X006050Y007024D01*
X005975Y006949D01*
X005975Y006799D01*
X006050Y006724D01*
X006125Y006756D02*
X005825Y006756D01*
X005900Y006916D02*
X005900Y007067D01*
X006125Y007024D02*
X006425Y006724D01*
X006425Y007024D01*
X006125Y006916D02*
X005675Y006916D01*
X005675Y007217D01*
X006125Y006756D02*
X006125Y006531D01*
X006050Y006456D01*
X005825Y006456D01*
X005975Y006489D02*
X005975Y006338D01*
X006050Y006263D01*
X005975Y006489D02*
X006050Y006564D01*
X006125Y006564D01*
X006425Y006263D01*
X006425Y006564D01*
X006125Y005996D02*
X006050Y005996D01*
X005750Y006296D01*
X005675Y006296D01*
X005675Y005996D01*
X005675Y005760D02*
X005900Y005535D01*
X005900Y005835D01*
X006125Y005760D02*
X005675Y005760D01*
X006050Y005380D02*
X006125Y005380D01*
X006125Y005305D01*
X006050Y005305D01*
X006050Y005380D01*
X003925Y005380D02*
X003925Y005530D01*
X003850Y005605D01*
X003700Y005765D02*
X003700Y006066D01*
X003925Y005991D02*
X003475Y005991D01*
X003700Y005765D01*
X003550Y005605D02*
X003475Y005530D01*
X003475Y005380D01*
X003550Y005305D01*
X003850Y005305D01*
X003925Y005380D01*
X002850Y004680D02*
X001700Y004730D01*
X001600Y004830D01*
X001600Y008530D01*
X001700Y008630D01*
X002850Y008680D01*
X003475Y008880D02*
X003550Y008805D01*
X003850Y008805D01*
X003925Y008880D01*
X003925Y009030D01*
X003850Y009105D01*
X003925Y009265D02*
X003925Y009566D01*
X003925Y009416D02*
X003475Y009416D01*
X003625Y009265D01*
X003550Y009105D02*
X003475Y009030D01*
X003475Y008880D01*
X001740Y008450D02*
X001742Y008470D01*
X001748Y008488D01*
X001757Y008506D01*
X001769Y008521D01*
X001784Y008533D01*
X001802Y008542D01*
X001820Y008548D01*
X001840Y008550D01*
X001860Y008548D01*
X001878Y008542D01*
X001896Y008533D01*
X001911Y008521D01*
X001923Y008506D01*
X001932Y008488D01*
X001938Y008470D01*
X001940Y008450D01*
X001938Y008430D01*
X001932Y008412D01*
X001923Y008394D01*
X001911Y008379D01*
X001896Y008367D01*
X001878Y008358D01*
X001860Y008352D01*
X001840Y008350D01*
X001820Y008352D01*
X001802Y008358D01*
X001784Y008367D01*
X001769Y008379D01*
X001757Y008394D01*
X001748Y008412D01*
X001742Y008430D01*
X001740Y008450D01*
X001395Y008470D02*
X001395Y008320D01*
X001320Y008245D01*
X001320Y008084D02*
X001245Y008084D01*
X001170Y008009D01*
X001170Y007859D01*
X001095Y007784D01*
X001020Y007784D01*
X000945Y007859D01*
X000945Y008009D01*
X001020Y008084D01*
X001020Y008245D02*
X000945Y008320D01*
X000945Y008470D01*
X001020Y008545D01*
X001095Y008545D01*
X001170Y008470D01*
X001245Y008545D01*
X001320Y008545D01*
X001395Y008470D01*
X001170Y008470D02*
X001170Y008395D01*
X001320Y008084D02*
X001395Y008009D01*
X001395Y007859D01*
X001320Y007784D01*
X001320Y007624D02*
X000945Y007624D01*
X000775Y007549D02*
X000325Y007549D01*
X000550Y007324D01*
X000550Y007624D01*
X000700Y007784D02*
X000400Y007784D01*
X000325Y007859D01*
X000325Y008009D01*
X000400Y008084D01*
X000700Y007784D01*
X000775Y007859D01*
X000775Y008009D01*
X000700Y008084D01*
X000400Y008084D01*
X000475Y008245D02*
X000325Y008395D01*
X000475Y008545D01*
X000775Y008545D01*
X000550Y008545D02*
X000550Y008245D01*
X000475Y008245D02*
X000775Y008245D01*
X000870Y007934D02*
X001470Y007934D01*
X001320Y007624D02*
X001395Y007549D01*
X001395Y007399D01*
X001320Y007324D01*
X000945Y007324D01*
X000775Y007089D02*
X000700Y007164D01*
X000400Y007164D01*
X000325Y007089D01*
X000325Y006938D01*
X000400Y006863D01*
X000475Y006863D01*
X000550Y006938D01*
X000550Y007164D01*
X000775Y007089D02*
X000775Y006938D01*
X000700Y006863D01*
X000775Y006703D02*
X000775Y006403D01*
X000475Y006703D01*
X000400Y006703D01*
X000325Y006628D01*
X000325Y006478D01*
X000400Y006403D01*
X000400Y006243D02*
X000325Y006168D01*
X000325Y006018D01*
X000400Y005943D01*
X000700Y005943D01*
X000775Y006018D01*
X000775Y006168D01*
X000700Y006243D01*
X000775Y005786D02*
X000775Y005636D01*
X000775Y005711D02*
X000325Y005711D01*
X000325Y005636D02*
X000325Y005786D01*
X000325Y005476D02*
X000775Y005476D01*
X000775Y005175D02*
X000325Y005175D01*
X000475Y005325D01*
X000325Y005476D01*
X004800Y000680D02*
X007800Y000680D01*
X009825Y001005D02*
X010125Y001455D01*
X010285Y001305D02*
X010436Y001455D01*
X010436Y001005D01*
X010586Y001005D02*
X010285Y001005D01*
X010125Y001005D02*
X009825Y001455D01*
X013795Y003000D02*
X013870Y002925D01*
X013945Y002925D01*
X014020Y003000D01*
X014020Y003375D01*
X013945Y003375D02*
X014095Y003375D01*
X014255Y003375D02*
X014481Y003375D01*
X014556Y003300D01*
X014556Y003150D01*
X014481Y003075D01*
X014255Y003075D01*
X014255Y002925D02*
X014255Y003375D01*
X014716Y003225D02*
X014866Y003375D01*
X014866Y002925D01*
X014716Y002925D02*
X015016Y002925D01*
X017694Y003975D02*
X017994Y003975D01*
X017844Y003975D02*
X017844Y004425D01*
X017694Y004275D01*
X018154Y004350D02*
X018154Y004050D01*
X018454Y004350D01*
X018454Y004050D01*
X018379Y003975D01*
X018229Y003975D01*
X018154Y004050D01*
X018154Y004350D02*
X018229Y004425D01*
X018379Y004425D01*
X018454Y004350D01*
X018615Y004425D02*
X018615Y003975D01*
X018615Y004125D02*
X018915Y004425D01*
X018690Y004200D02*
X018915Y003975D01*
X019015Y003405D02*
X019015Y003180D01*
X019165Y003255D01*
X019240Y003255D01*
X019315Y003180D01*
X019315Y003030D01*
X019240Y002955D01*
X019090Y002955D01*
X019015Y003030D01*
X018854Y002955D02*
X018704Y003105D01*
X018779Y003105D02*
X018554Y003105D01*
X018554Y002955D02*
X018554Y003405D01*
X018779Y003405D01*
X018854Y003330D01*
X018854Y003180D01*
X018779Y003105D01*
X019015Y003405D02*
X019315Y003405D01*
X017336Y005935D02*
X017110Y006160D01*
X017035Y006085D02*
X017336Y006385D01*
X017035Y006385D02*
X017035Y005935D01*
X016875Y005935D02*
X016575Y005935D01*
X016725Y005935D02*
X016725Y006385D01*
X016575Y006235D01*
X016475Y006955D02*
X016325Y007105D01*
X016400Y007105D02*
X016175Y007105D01*
X016175Y006955D02*
X016175Y007405D01*
X016400Y007405D01*
X016475Y007330D01*
X016475Y007180D01*
X016400Y007105D01*
X016635Y007030D02*
X016710Y006955D01*
X016861Y006955D01*
X016936Y007030D01*
X016936Y007105D01*
X016861Y007180D01*
X016786Y007180D01*
X016861Y007180D02*
X016936Y007255D01*
X016936Y007330D01*
X016861Y007405D01*
X016710Y007405D01*
X016635Y007330D01*
X016575Y007935D02*
X016875Y007935D01*
X016725Y007935D02*
X016725Y008385D01*
X016575Y008235D01*
X017035Y008310D02*
X017035Y008010D01*
X017336Y008310D01*
X017336Y008010D01*
X017261Y007935D01*
X017110Y007935D01*
X017035Y008010D01*
X017035Y008310D02*
X017110Y008385D01*
X017261Y008385D01*
X017336Y008310D01*
X017496Y008385D02*
X017496Y007935D01*
X017496Y008085D02*
X017796Y008385D01*
X017571Y008160D02*
X017796Y007935D01*
X016936Y008955D02*
X016635Y008955D01*
X016936Y009255D01*
X016936Y009330D01*
X016861Y009405D01*
X016710Y009405D01*
X016635Y009330D01*
X016475Y009330D02*
X016475Y009180D01*
X016400Y009105D01*
X016175Y009105D01*
X016175Y008955D02*
X016175Y009405D01*
X016400Y009405D01*
X016475Y009330D01*
X016325Y009105D02*
X016475Y008955D01*
X013315Y007330D02*
X013315Y007180D01*
X013240Y007105D01*
X013015Y007105D01*
X013165Y007105D02*
X013315Y006955D01*
X013015Y006955D02*
X013015Y007405D01*
X013240Y007405D01*
X013315Y007330D01*
X012854Y006955D02*
X012554Y006955D01*
X012554Y007405D01*
X012394Y007330D02*
X012319Y007405D01*
X012169Y007405D01*
X012094Y007330D01*
X012094Y007030D01*
X012169Y006955D01*
X012319Y006955D01*
X012394Y007030D01*
X011934Y006955D02*
X011934Y007405D01*
X011784Y007255D01*
X011633Y007405D01*
X011633Y006955D01*
X011496Y006385D02*
X011496Y005935D01*
X011496Y006085D02*
X011796Y006385D01*
X011571Y006160D02*
X011796Y005935D01*
X011336Y006010D02*
X011336Y006310D01*
X011035Y006010D01*
X011110Y005935D01*
X011261Y005935D01*
X011336Y006010D01*
X011336Y006310D02*
X011261Y006385D01*
X011110Y006385D01*
X011035Y006310D01*
X011035Y006010D01*
X010875Y005935D02*
X010575Y005935D01*
X010725Y005935D02*
X010725Y006385D01*
X010575Y006235D01*
X010475Y006955D02*
X010325Y007105D01*
X010400Y007105D02*
X010175Y007105D01*
X010175Y006955D02*
X010175Y007405D01*
X010400Y007405D01*
X010475Y007330D01*
X010475Y007180D01*
X010400Y007105D01*
X010635Y007180D02*
X010936Y007180D01*
X010861Y006955D02*
X010861Y007405D01*
X010635Y007180D01*
X011694Y007975D02*
X011994Y007975D01*
X011844Y007975D02*
X011844Y008425D01*
X011694Y008275D01*
X012154Y008350D02*
X012154Y008050D01*
X012454Y008350D01*
X012454Y008050D01*
X012379Y007975D01*
X012229Y007975D01*
X012154Y008050D01*
X012154Y008350D02*
X012229Y008425D01*
X012379Y008425D01*
X012454Y008350D01*
X012615Y008350D02*
X012690Y008425D01*
X012840Y008425D01*
X012915Y008350D01*
X012615Y008050D01*
X012690Y007975D01*
X012840Y007975D01*
X012915Y008050D01*
X012915Y008350D01*
X012615Y008350D02*
X012615Y008050D01*
X008625Y007870D02*
X008625Y007720D01*
X008550Y007645D01*
X008550Y007484D02*
X008625Y007409D01*
X008625Y007259D01*
X008550Y007184D01*
X008250Y007184D01*
X008175Y007259D01*
X008175Y007409D01*
X008250Y007484D01*
X008250Y007645D02*
X008175Y007720D01*
X008175Y007870D01*
X008250Y007945D01*
X008325Y007945D01*
X008400Y007870D01*
X008475Y007945D01*
X008550Y007945D01*
X008625Y007870D01*
X008400Y007870D02*
X008400Y007795D01*
X008325Y008805D02*
X008175Y008955D01*
X008625Y008955D01*
X008625Y008805D02*
X008625Y009105D01*
X008550Y009265D02*
X008250Y009265D01*
X008175Y009340D01*
X008175Y009491D01*
X008250Y009566D01*
X008550Y009265D01*
X008625Y009340D01*
X008625Y009491D01*
X008550Y009566D01*
X008250Y009566D01*
X008250Y009726D02*
X008175Y009801D01*
X008175Y009951D01*
X008250Y010026D01*
X008550Y009726D01*
X008625Y009801D01*
X008625Y009951D01*
X008550Y010026D01*
X008250Y010026D01*
X008325Y010186D02*
X008325Y010411D01*
X008400Y010486D01*
X008625Y010486D01*
X008625Y010647D02*
X008175Y010647D01*
X008175Y010947D01*
X008400Y010797D02*
X008400Y010647D01*
X008325Y010186D02*
X008625Y010186D01*
X008550Y009726D02*
X008250Y009726D01*
X003525Y012934D02*
X003075Y012934D01*
X003075Y013159D01*
X003150Y013234D01*
X003300Y013234D01*
X003375Y013159D01*
X003375Y012934D01*
X003375Y013084D02*
X003525Y013234D01*
X003525Y013395D02*
X003525Y013695D01*
X003525Y013545D02*
X003075Y013545D01*
X003225Y013395D01*
X002505Y013295D02*
X002280Y013070D01*
X002355Y012995D02*
X002055Y013295D01*
X002055Y012995D02*
X002505Y012995D01*
X002430Y012834D02*
X002505Y012759D01*
X002505Y012609D01*
X002430Y012534D01*
X002130Y012834D01*
X002430Y012834D01*
X002430Y012534D02*
X002130Y012534D01*
X002055Y012609D01*
X002055Y012759D01*
X002130Y012834D01*
X002505Y012374D02*
X002505Y012074D01*
X002505Y012224D02*
X002055Y012224D01*
X002205Y012074D01*
X001555Y016675D02*
X001555Y016825D01*
X001555Y016750D02*
X001105Y016750D01*
X001105Y016675D02*
X001105Y016825D01*
X001180Y016982D02*
X001105Y017057D01*
X001105Y017207D01*
X001180Y017282D01*
X001180Y017442D02*
X001255Y017442D01*
X001330Y017517D01*
X001330Y017668D01*
X001405Y017743D01*
X001480Y017743D01*
X001555Y017668D01*
X001555Y017517D01*
X001480Y017442D01*
X001480Y017282D02*
X001555Y017207D01*
X001555Y017057D01*
X001480Y016982D01*
X001180Y016982D01*
X001180Y017442D02*
X001105Y017517D01*
X001105Y017668D01*
X001180Y017743D01*
X001105Y017903D02*
X001105Y018128D01*
X001180Y018203D01*
X001330Y018203D01*
X001405Y018128D01*
X001405Y017903D01*
X001555Y017903D02*
X001105Y017903D01*
X022825Y008000D02*
X022825Y007775D01*
X023275Y007775D01*
X023125Y007775D02*
X023125Y008000D01*
X023050Y008075D01*
X022900Y008075D01*
X022825Y008000D01*
X023125Y007925D02*
X023275Y008075D01*
X023275Y007614D02*
X023275Y007314D01*
X022825Y007314D01*
X022825Y007614D01*
X023050Y007464D02*
X023050Y007314D01*
X022900Y007154D02*
X023200Y006854D01*
X023275Y006854D01*
X023275Y007154D01*
X022900Y007154D02*
X022825Y007154D01*
X022825Y006854D01*
X022825Y006694D02*
X022900Y006694D01*
X023200Y006393D01*
X023275Y006393D01*
X023275Y006694D01*
X022825Y006694D02*
X022825Y006393D01*
X022825Y006233D02*
X023200Y006233D01*
X023275Y006158D01*
X023275Y006008D01*
X023200Y005933D01*
X022825Y005933D01*
X022900Y005773D02*
X022975Y005773D01*
X023050Y005698D01*
X023050Y005473D01*
X023050Y005698D02*
X023125Y005773D01*
X023200Y005773D01*
X023275Y005698D01*
X023275Y005473D01*
X022825Y005473D01*
X022825Y005698D01*
X022900Y005773D01*
X026825Y006324D02*
X027200Y006324D01*
X027275Y006399D01*
X027275Y006549D01*
X027200Y006624D01*
X026825Y006624D01*
X026900Y006784D02*
X026825Y006859D01*
X026825Y007009D01*
X026900Y007084D01*
X027050Y007009D02*
X027050Y006859D01*
X026975Y006784D01*
X026900Y006784D01*
X026750Y006934D02*
X027350Y006934D01*
X027275Y006859D02*
X027275Y007009D01*
X027200Y007084D01*
X027125Y007084D01*
X027050Y007009D01*
X027050Y007245D02*
X026825Y007470D01*
X027275Y007470D01*
X027050Y007545D02*
X027050Y007245D01*
X027275Y006859D02*
X027200Y006784D01*
X021800Y012680D02*
X021802Y012779D01*
X021808Y012879D01*
X021818Y012978D01*
X021832Y013076D01*
X021849Y013174D01*
X021871Y013271D01*
X021896Y013367D01*
X021925Y013462D01*
X021958Y013556D01*
X021995Y013648D01*
X022035Y013739D01*
X022079Y013828D01*
X022127Y013916D01*
X022178Y014001D01*
X022232Y014084D01*
X022289Y014166D01*
X022350Y014244D01*
X022414Y014321D01*
X022480Y014394D01*
X022550Y014465D01*
X022622Y014533D01*
X022697Y014599D01*
X022775Y014661D01*
X022855Y014720D01*
X022937Y014776D01*
X023021Y014828D01*
X023108Y014877D01*
X023196Y014923D01*
X023286Y014965D01*
X023378Y015004D01*
X023471Y015039D01*
X023565Y015070D01*
X023661Y015097D01*
X023758Y015120D01*
X023855Y015140D01*
X023953Y015156D01*
X024052Y015168D01*
X024151Y015176D01*
X024250Y015180D01*
X024350Y015180D01*
X024449Y015176D01*
X024548Y015168D01*
X024647Y015156D01*
X024745Y015140D01*
X024842Y015120D01*
X024939Y015097D01*
X025035Y015070D01*
X025129Y015039D01*
X025222Y015004D01*
X025314Y014965D01*
X025404Y014923D01*
X025492Y014877D01*
X025579Y014828D01*
X025663Y014776D01*
X025745Y014720D01*
X025825Y014661D01*
X025903Y014599D01*
X025978Y014533D01*
X026050Y014465D01*
X026120Y014394D01*
X026186Y014321D01*
X026250Y014244D01*
X026311Y014166D01*
X026368Y014084D01*
X026422Y014001D01*
X026473Y013916D01*
X026521Y013828D01*
X026565Y013739D01*
X026605Y013648D01*
X026642Y013556D01*
X026675Y013462D01*
X026704Y013367D01*
X026729Y013271D01*
X026751Y013174D01*
X026768Y013076D01*
X026782Y012978D01*
X026792Y012879D01*
X026798Y012779D01*
X026800Y012680D01*
X026798Y012581D01*
X026792Y012481D01*
X026782Y012382D01*
X026768Y012284D01*
X026751Y012186D01*
X026729Y012089D01*
X026704Y011993D01*
X026675Y011898D01*
X026642Y011804D01*
X026605Y011712D01*
X026565Y011621D01*
X026521Y011532D01*
X026473Y011444D01*
X026422Y011359D01*
X026368Y011276D01*
X026311Y011194D01*
X026250Y011116D01*
X026186Y011039D01*
X026120Y010966D01*
X026050Y010895D01*
X025978Y010827D01*
X025903Y010761D01*
X025825Y010699D01*
X025745Y010640D01*
X025663Y010584D01*
X025579Y010532D01*
X025492Y010483D01*
X025404Y010437D01*
X025314Y010395D01*
X025222Y010356D01*
X025129Y010321D01*
X025035Y010290D01*
X024939Y010263D01*
X024842Y010240D01*
X024745Y010220D01*
X024647Y010204D01*
X024548Y010192D01*
X024449Y010184D01*
X024350Y010180D01*
X024250Y010180D01*
X024151Y010184D01*
X024052Y010192D01*
X023953Y010204D01*
X023855Y010220D01*
X023758Y010240D01*
X023661Y010263D01*
X023565Y010290D01*
X023471Y010321D01*
X023378Y010356D01*
X023286Y010395D01*
X023196Y010437D01*
X023108Y010483D01*
X023021Y010532D01*
X022937Y010584D01*
X022855Y010640D01*
X022775Y010699D01*
X022697Y010761D01*
X022622Y010827D01*
X022550Y010895D01*
X022480Y010966D01*
X022414Y011039D01*
X022350Y011116D01*
X022289Y011194D01*
X022232Y011276D01*
X022178Y011359D01*
X022127Y011444D01*
X022079Y011532D01*
X022035Y011621D01*
X021995Y011712D01*
X021958Y011804D01*
X021925Y011898D01*
X021896Y011993D01*
X021871Y012089D01*
X021849Y012186D01*
X021832Y012284D01*
X021818Y012382D01*
X021808Y012481D01*
X021802Y012581D01*
X021800Y012680D01*
X023615Y018955D02*
X023615Y019180D01*
X023690Y019255D01*
X023990Y019255D01*
X024065Y019180D01*
X024065Y018955D01*
X023615Y018955D01*
X023690Y019415D02*
X023990Y019415D01*
X024065Y019490D01*
X024065Y019641D01*
X023990Y019716D01*
X023690Y019716D01*
X023615Y019641D01*
X023615Y019490D01*
X023690Y019415D01*
X023690Y019876D02*
X023615Y019951D01*
X023615Y020101D01*
X023690Y020176D01*
X023990Y020176D01*
X024065Y020101D01*
X024065Y019951D01*
X023990Y019876D01*
X023690Y019876D01*
X023615Y020336D02*
X023615Y020561D01*
X023690Y020636D01*
X023840Y020636D01*
X023915Y020561D01*
X023915Y020336D01*
X024065Y020336D02*
X023615Y020336D01*
X023915Y020486D02*
X024065Y020636D01*
X024140Y020797D02*
X024140Y021097D01*
X023990Y021257D02*
X023690Y021257D01*
X023615Y021332D01*
X023615Y021482D01*
X023690Y021557D01*
X023990Y021557D01*
X024065Y021482D01*
X024065Y021332D01*
X023990Y021257D01*
X024065Y021717D02*
X023615Y021717D01*
X023615Y021943D01*
X023690Y022018D01*
X023840Y022018D01*
X023915Y021943D01*
X023915Y021717D01*
X023840Y022178D02*
X023840Y022328D01*
X024065Y022178D02*
X024065Y022478D01*
X024065Y022638D02*
X023615Y022638D01*
X024065Y022938D01*
X023615Y022938D01*
X023615Y022955D02*
X024065Y022955D01*
X023840Y022955D02*
X023840Y023255D01*
X023840Y023415D02*
X023840Y023566D01*
X024065Y023415D02*
X024065Y023716D01*
X024065Y023876D02*
X023765Y023876D01*
X023615Y024026D01*
X023765Y024176D01*
X024065Y024176D01*
X024065Y024336D02*
X023615Y024336D01*
X023615Y024561D01*
X023690Y024636D01*
X023840Y024636D01*
X023915Y024561D01*
X023915Y024336D01*
X023915Y024486D02*
X024065Y024636D01*
X024065Y024947D02*
X023615Y024947D01*
X023615Y024797D02*
X023615Y025097D01*
X023615Y025257D02*
X023615Y025482D01*
X023690Y025557D01*
X023765Y025557D01*
X023840Y025482D01*
X023840Y025257D01*
X024065Y025257D02*
X024065Y025482D01*
X023990Y025557D01*
X023915Y025557D01*
X023840Y025482D01*
X023840Y025717D02*
X023840Y025867D01*
X024065Y025717D02*
X024065Y026018D01*
X024065Y026178D02*
X023765Y026178D01*
X023615Y026328D01*
X023765Y026478D01*
X024065Y026478D01*
X023840Y026478D02*
X023840Y026178D01*
X023615Y026018D02*
X023615Y025717D01*
X024065Y025717D01*
X024065Y025257D02*
X023615Y025257D01*
X023840Y024176D02*
X023840Y023876D01*
X023615Y023716D02*
X023615Y023415D01*
X024065Y023415D01*
X024065Y023255D02*
X023615Y023255D01*
X023615Y022478D02*
X023615Y022178D01*
X024065Y022178D01*
X023615Y026638D02*
X023615Y026938D01*
X023615Y026788D02*
X024065Y026788D01*
D16*
X002300Y014050D03*
X002300Y010310D03*
D17*
X009930Y008180D03*
X009930Y006180D03*
X013670Y006180D03*
X013670Y008180D03*
X015930Y008180D03*
X015930Y006180D03*
X015930Y004180D03*
X019670Y004180D03*
X019670Y006180D03*
X019670Y008180D03*
D18*
X003150Y006680D03*
D19*
X002900Y004955D03*
X002900Y008405D03*
D20*
X002900Y007180D03*
X002900Y006180D03*
D21*
X023550Y018680D02*
X023496Y018637D01*
X023444Y018591D01*
X023395Y018542D01*
X023348Y018490D01*
X023305Y018436D01*
X023264Y018380D01*
X023227Y018321D01*
X023193Y018261D01*
X023163Y018198D01*
X023136Y018135D01*
X023112Y018069D01*
X023092Y018003D01*
X023076Y017935D01*
X023064Y017867D01*
X023056Y017798D01*
X023051Y017729D01*
X023050Y017659D01*
X023053Y017590D01*
X023060Y017521D01*
X023071Y017453D01*
X023085Y017385D01*
X023104Y017318D01*
X023126Y017252D01*
X023151Y017187D01*
X023180Y017124D01*
X023213Y017063D01*
X023249Y017004D01*
X023288Y016947D01*
X023330Y016891D01*
X023375Y016839D01*
X023423Y016789D01*
X023474Y016742D01*
X023528Y016697D01*
X023583Y016656D01*
X023641Y016618D01*
X023701Y016583D01*
X023763Y016551D01*
X023826Y016523D01*
X023891Y016499D01*
X023957Y016478D01*
X024025Y016461D01*
X024093Y016447D01*
X024162Y016438D01*
X024231Y016432D01*
X024300Y016430D01*
X024369Y016432D01*
X024438Y016438D01*
X024507Y016447D01*
X024575Y016461D01*
X024643Y016478D01*
X024709Y016499D01*
X024774Y016523D01*
X024837Y016551D01*
X024899Y016583D01*
X024959Y016618D01*
X025017Y016656D01*
X025072Y016697D01*
X025126Y016742D01*
X025177Y016789D01*
X025225Y016839D01*
X025270Y016891D01*
X025312Y016947D01*
X025351Y017004D01*
X025387Y017063D01*
X025420Y017124D01*
X025449Y017187D01*
X025474Y017252D01*
X025496Y017318D01*
X025515Y017385D01*
X025529Y017453D01*
X025540Y017521D01*
X025547Y017590D01*
X025550Y017659D01*
X025549Y017729D01*
X025544Y017798D01*
X025536Y017867D01*
X025524Y017935D01*
X025508Y018003D01*
X025488Y018069D01*
X025464Y018135D01*
X025437Y018198D01*
X025407Y018261D01*
X025373Y018321D01*
X025336Y018380D01*
X025295Y018436D01*
X025252Y018490D01*
X025205Y018542D01*
X025156Y018591D01*
X025104Y018637D01*
X025050Y018680D01*
X025050Y022680D02*
X025104Y022637D01*
X025156Y022591D01*
X025205Y022542D01*
X025252Y022490D01*
X025295Y022436D01*
X025336Y022380D01*
X025373Y022321D01*
X025407Y022261D01*
X025437Y022198D01*
X025464Y022135D01*
X025488Y022069D01*
X025508Y022003D01*
X025524Y021935D01*
X025536Y021867D01*
X025544Y021798D01*
X025549Y021729D01*
X025550Y021659D01*
X025547Y021590D01*
X025540Y021521D01*
X025529Y021453D01*
X025515Y021385D01*
X025496Y021318D01*
X025474Y021252D01*
X025449Y021187D01*
X025420Y021124D01*
X025387Y021063D01*
X025351Y021004D01*
X025312Y020947D01*
X025270Y020891D01*
X025225Y020839D01*
X025177Y020789D01*
X025126Y020742D01*
X025072Y020697D01*
X025017Y020656D01*
X024959Y020618D01*
X024899Y020583D01*
X024837Y020551D01*
X024774Y020523D01*
X024709Y020499D01*
X024643Y020478D01*
X024575Y020461D01*
X024507Y020447D01*
X024438Y020438D01*
X024369Y020432D01*
X024300Y020430D01*
X024231Y020432D01*
X024162Y020438D01*
X024093Y020447D01*
X024025Y020461D01*
X023957Y020478D01*
X023891Y020499D01*
X023826Y020523D01*
X023763Y020551D01*
X023701Y020583D01*
X023641Y020618D01*
X023583Y020656D01*
X023528Y020697D01*
X023474Y020742D01*
X023423Y020789D01*
X023375Y020839D01*
X023330Y020891D01*
X023288Y020947D01*
X023249Y021004D01*
X023213Y021063D01*
X023180Y021124D01*
X023151Y021187D01*
X023126Y021252D01*
X023104Y021318D01*
X023085Y021385D01*
X023071Y021453D01*
X023060Y021521D01*
X023053Y021590D01*
X023050Y021659D01*
X023051Y021729D01*
X023056Y021798D01*
X023064Y021867D01*
X023076Y021935D01*
X023092Y022003D01*
X023112Y022069D01*
X023136Y022135D01*
X023163Y022198D01*
X023193Y022261D01*
X023227Y022321D01*
X023264Y022380D01*
X023305Y022436D01*
X023348Y022490D01*
X023395Y022542D01*
X023444Y022591D01*
X023496Y022637D01*
X023550Y022680D01*
M02*
