%
M48
M72
T01C0.0120
T02C0.0236
T03C0.0315
T04C0.0320
T05C0.0400
T06C0.0433
T07C0.0470
T08C0.1181
T09C0.1260
T10C0.1400
%
T01
X17800Y15680
X13800Y15680
X17800Y4680
X16800Y4680
X18800Y9180
T02
X6800Y17680
X10800Y16180
X15300Y16680
X26300Y19680
X26800Y4680
X12300Y12180
X10800Y20680
X11800Y4680
X3800Y14180
X6300Y12680
T03
X4969Y24723
X4969Y23936
X4969Y23149
X4969Y22361
X4969Y21574
X4969Y20786
X4969Y19999
X4969Y19211
X4969Y18424
X4969Y17637
X13631Y17637
X13631Y18424
X13631Y19211
X13631Y19999
X13631Y20786
X13631Y21574
X13631Y22361
X13631Y23149
X13631Y23936
X13631Y24723
T04
X9800Y10180
X10800Y10180
X15800Y10180
X16800Y10180
X11800Y10180
X12800Y10180
X14800Y10180
X13800Y10180
X17800Y10180
X18800Y10180
X18800Y13180
X17800Y13180
X16800Y13180
X15800Y13180
X14800Y13180
X13800Y13180
X12800Y13180
X11800Y13180
X10800Y13180
X9800Y13180
X4800Y9180
X4800Y11180
X7300Y9180
X7300Y11180
X7300Y7680
X7300Y5680
X4800Y5680
X4800Y7680
X2300Y14680
X2300Y9680
X14300Y8180
X9300Y8180
X24300Y21180
X24300Y22180
X24300Y17180
X24300Y18180
X15300Y8180
X20300Y8180
X15300Y6180
X20300Y6180
X9300Y6180
X14300Y6180
X20300Y4180
X15300Y4180
T05
X2300Y17180
X2300Y18180
X2300Y19180
X2300Y20180
X2300Y21180
X2300Y22180
X2300Y7680
X2300Y6680
X2300Y5680
X24300Y8157
X24300Y5203
X14300Y2180
X15300Y2180
X16300Y2180
X17300Y2180
X18300Y2180
X19300Y2180
X20300Y2180
X21300Y2180
X22300Y2180
X23300Y2180
T06
X23300Y11680
X23300Y13680
X25300Y11680
X25300Y13680
T07
X10300Y2430
X12300Y2430
T08
X2300Y2180
X25800Y2180
X25800Y25680
X2300Y25680
T09
X6300Y1499
X8190Y2680
T10
X6300Y3900
M30
