G75*
%MOIN*%
%OFA0B0*%
%FSLAX24Y24*%
%IPPOS*%
%LPD*%
%AMOC8*
5,1,8,0,0,1.08239X$1,22.5*
%
%ADD10C,0.0000*%
%ADD11C,0.0520*%
%ADD12C,0.0515*%
%ADD13OC8,0.0520*%
%ADD14C,0.0600*%
%ADD15C,0.1800*%
%ADD16C,0.1660*%
%ADD17OC8,0.1000*%
%ADD18C,0.0705*%
%ADD19C,0.0860*%
%ADD20C,0.0150*%
%ADD21C,0.0160*%
%ADD22C,0.0240*%
D10*
X000180Y000180D02*
X000180Y027739D01*
X027739Y027739D01*
X027739Y000180D01*
X000180Y000180D01*
X001589Y002180D02*
X001591Y002228D01*
X001597Y002276D01*
X001607Y002323D01*
X001620Y002369D01*
X001638Y002414D01*
X001658Y002458D01*
X001683Y002500D01*
X001711Y002539D01*
X001741Y002576D01*
X001775Y002610D01*
X001812Y002642D01*
X001850Y002671D01*
X001891Y002696D01*
X001934Y002718D01*
X001979Y002736D01*
X002025Y002750D01*
X002072Y002761D01*
X002120Y002768D01*
X002168Y002771D01*
X002216Y002770D01*
X002264Y002765D01*
X002312Y002756D01*
X002358Y002744D01*
X002403Y002727D01*
X002447Y002707D01*
X002489Y002684D01*
X002529Y002657D01*
X002567Y002627D01*
X002602Y002594D01*
X002634Y002558D01*
X002664Y002520D01*
X002690Y002479D01*
X002712Y002436D01*
X002732Y002392D01*
X002747Y002347D01*
X002759Y002300D01*
X002767Y002252D01*
X002771Y002204D01*
X002771Y002156D01*
X002767Y002108D01*
X002759Y002060D01*
X002747Y002013D01*
X002732Y001968D01*
X002712Y001924D01*
X002690Y001881D01*
X002664Y001840D01*
X002634Y001802D01*
X002602Y001766D01*
X002567Y001733D01*
X002529Y001703D01*
X002489Y001676D01*
X002447Y001653D01*
X002403Y001633D01*
X002358Y001616D01*
X002312Y001604D01*
X002264Y001595D01*
X002216Y001590D01*
X002168Y001589D01*
X002120Y001592D01*
X002072Y001599D01*
X002025Y001610D01*
X001979Y001624D01*
X001934Y001642D01*
X001891Y001664D01*
X001850Y001689D01*
X001812Y001718D01*
X001775Y001750D01*
X001741Y001784D01*
X001711Y001821D01*
X001683Y001860D01*
X001658Y001902D01*
X001638Y001946D01*
X001620Y001991D01*
X001607Y002037D01*
X001597Y002084D01*
X001591Y002132D01*
X001589Y002180D01*
X001589Y025680D02*
X001591Y025728D01*
X001597Y025776D01*
X001607Y025823D01*
X001620Y025869D01*
X001638Y025914D01*
X001658Y025958D01*
X001683Y026000D01*
X001711Y026039D01*
X001741Y026076D01*
X001775Y026110D01*
X001812Y026142D01*
X001850Y026171D01*
X001891Y026196D01*
X001934Y026218D01*
X001979Y026236D01*
X002025Y026250D01*
X002072Y026261D01*
X002120Y026268D01*
X002168Y026271D01*
X002216Y026270D01*
X002264Y026265D01*
X002312Y026256D01*
X002358Y026244D01*
X002403Y026227D01*
X002447Y026207D01*
X002489Y026184D01*
X002529Y026157D01*
X002567Y026127D01*
X002602Y026094D01*
X002634Y026058D01*
X002664Y026020D01*
X002690Y025979D01*
X002712Y025936D01*
X002732Y025892D01*
X002747Y025847D01*
X002759Y025800D01*
X002767Y025752D01*
X002771Y025704D01*
X002771Y025656D01*
X002767Y025608D01*
X002759Y025560D01*
X002747Y025513D01*
X002732Y025468D01*
X002712Y025424D01*
X002690Y025381D01*
X002664Y025340D01*
X002634Y025302D01*
X002602Y025266D01*
X002567Y025233D01*
X002529Y025203D01*
X002489Y025176D01*
X002447Y025153D01*
X002403Y025133D01*
X002358Y025116D01*
X002312Y025104D01*
X002264Y025095D01*
X002216Y025090D01*
X002168Y025089D01*
X002120Y025092D01*
X002072Y025099D01*
X002025Y025110D01*
X001979Y025124D01*
X001934Y025142D01*
X001891Y025164D01*
X001850Y025189D01*
X001812Y025218D01*
X001775Y025250D01*
X001741Y025284D01*
X001711Y025321D01*
X001683Y025360D01*
X001658Y025402D01*
X001638Y025446D01*
X001620Y025491D01*
X001607Y025537D01*
X001597Y025584D01*
X001591Y025632D01*
X001589Y025680D01*
X025089Y025680D02*
X025091Y025728D01*
X025097Y025776D01*
X025107Y025823D01*
X025120Y025869D01*
X025138Y025914D01*
X025158Y025958D01*
X025183Y026000D01*
X025211Y026039D01*
X025241Y026076D01*
X025275Y026110D01*
X025312Y026142D01*
X025350Y026171D01*
X025391Y026196D01*
X025434Y026218D01*
X025479Y026236D01*
X025525Y026250D01*
X025572Y026261D01*
X025620Y026268D01*
X025668Y026271D01*
X025716Y026270D01*
X025764Y026265D01*
X025812Y026256D01*
X025858Y026244D01*
X025903Y026227D01*
X025947Y026207D01*
X025989Y026184D01*
X026029Y026157D01*
X026067Y026127D01*
X026102Y026094D01*
X026134Y026058D01*
X026164Y026020D01*
X026190Y025979D01*
X026212Y025936D01*
X026232Y025892D01*
X026247Y025847D01*
X026259Y025800D01*
X026267Y025752D01*
X026271Y025704D01*
X026271Y025656D01*
X026267Y025608D01*
X026259Y025560D01*
X026247Y025513D01*
X026232Y025468D01*
X026212Y025424D01*
X026190Y025381D01*
X026164Y025340D01*
X026134Y025302D01*
X026102Y025266D01*
X026067Y025233D01*
X026029Y025203D01*
X025989Y025176D01*
X025947Y025153D01*
X025903Y025133D01*
X025858Y025116D01*
X025812Y025104D01*
X025764Y025095D01*
X025716Y025090D01*
X025668Y025089D01*
X025620Y025092D01*
X025572Y025099D01*
X025525Y025110D01*
X025479Y025124D01*
X025434Y025142D01*
X025391Y025164D01*
X025350Y025189D01*
X025312Y025218D01*
X025275Y025250D01*
X025241Y025284D01*
X025211Y025321D01*
X025183Y025360D01*
X025158Y025402D01*
X025138Y025446D01*
X025120Y025491D01*
X025107Y025537D01*
X025097Y025584D01*
X025091Y025632D01*
X025089Y025680D01*
X025089Y002180D02*
X025091Y002228D01*
X025097Y002276D01*
X025107Y002323D01*
X025120Y002369D01*
X025138Y002414D01*
X025158Y002458D01*
X025183Y002500D01*
X025211Y002539D01*
X025241Y002576D01*
X025275Y002610D01*
X025312Y002642D01*
X025350Y002671D01*
X025391Y002696D01*
X025434Y002718D01*
X025479Y002736D01*
X025525Y002750D01*
X025572Y002761D01*
X025620Y002768D01*
X025668Y002771D01*
X025716Y002770D01*
X025764Y002765D01*
X025812Y002756D01*
X025858Y002744D01*
X025903Y002727D01*
X025947Y002707D01*
X025989Y002684D01*
X026029Y002657D01*
X026067Y002627D01*
X026102Y002594D01*
X026134Y002558D01*
X026164Y002520D01*
X026190Y002479D01*
X026212Y002436D01*
X026232Y002392D01*
X026247Y002347D01*
X026259Y002300D01*
X026267Y002252D01*
X026271Y002204D01*
X026271Y002156D01*
X026267Y002108D01*
X026259Y002060D01*
X026247Y002013D01*
X026232Y001968D01*
X026212Y001924D01*
X026190Y001881D01*
X026164Y001840D01*
X026134Y001802D01*
X026102Y001766D01*
X026067Y001733D01*
X026029Y001703D01*
X025989Y001676D01*
X025947Y001653D01*
X025903Y001633D01*
X025858Y001616D01*
X025812Y001604D01*
X025764Y001595D01*
X025716Y001590D01*
X025668Y001589D01*
X025620Y001592D01*
X025572Y001599D01*
X025525Y001610D01*
X025479Y001624D01*
X025434Y001642D01*
X025391Y001664D01*
X025350Y001689D01*
X025312Y001718D01*
X025275Y001750D01*
X025241Y001784D01*
X025211Y001821D01*
X025183Y001860D01*
X025158Y001902D01*
X025138Y001946D01*
X025120Y001991D01*
X025107Y002037D01*
X025097Y002084D01*
X025091Y002132D01*
X025089Y002180D01*
D11*
X018680Y009420D02*
X018680Y009940D01*
X017680Y009940D02*
X017680Y009420D01*
X016680Y009420D02*
X016680Y009940D01*
X015680Y009940D02*
X015680Y009420D01*
X014680Y009420D02*
X014680Y009940D01*
X013680Y009940D02*
X013680Y009420D01*
X012680Y009420D02*
X012680Y009940D01*
X011680Y009940D02*
X011680Y009420D01*
X010680Y009420D02*
X010680Y009940D01*
X009680Y009940D02*
X009680Y009420D01*
X009680Y012420D02*
X009680Y012940D01*
X010680Y012940D02*
X010680Y012420D01*
X011680Y012420D02*
X011680Y012940D01*
X012680Y012940D02*
X012680Y012420D01*
X013680Y012420D02*
X013680Y012940D01*
X014680Y012940D02*
X014680Y012420D01*
X015680Y012420D02*
X015680Y012940D01*
X016680Y012940D02*
X016680Y012420D01*
X017680Y012420D02*
X017680Y012940D01*
X018680Y012940D02*
X018680Y012420D01*
D12*
X014511Y017637D03*
X014511Y018424D03*
X014511Y019211D03*
X014511Y019999D03*
X014511Y020786D03*
X014511Y021574D03*
X014511Y022361D03*
X014511Y023149D03*
X014511Y023936D03*
X014511Y024723D03*
X005849Y024723D03*
X005849Y023936D03*
X005849Y023149D03*
X005849Y022361D03*
X005849Y021574D03*
X005849Y020786D03*
X005849Y019999D03*
X005849Y019211D03*
X005849Y018424D03*
X005849Y017637D03*
D13*
X002180Y014680D03*
X004680Y012180D03*
X004680Y010180D03*
X004680Y008180D03*
X004680Y006180D03*
X007180Y006180D03*
X007180Y008180D03*
X007180Y010180D03*
X007180Y012180D03*
X009180Y008180D03*
X009180Y006180D03*
X014180Y006180D03*
X015180Y006180D03*
X015180Y004180D03*
X015180Y008180D03*
X014180Y008180D03*
X020180Y008180D03*
X020180Y006180D03*
X020180Y004180D03*
X024680Y017180D03*
X024680Y018180D03*
X024680Y020680D03*
X024680Y021680D03*
X002180Y009680D03*
D14*
X001880Y007680D02*
X002480Y007680D01*
X002480Y006680D02*
X001880Y006680D01*
X001880Y005680D02*
X002480Y005680D01*
X002480Y016680D02*
X001880Y016680D01*
X001880Y017680D02*
X002480Y017680D01*
X002480Y018680D02*
X001880Y018680D01*
X001880Y019680D02*
X002480Y019680D01*
X002480Y020680D02*
X001880Y020680D01*
X001880Y021680D02*
X002480Y021680D01*
X014180Y002480D02*
X014180Y001880D01*
X015180Y001880D02*
X015180Y002480D01*
X016180Y002480D02*
X016180Y001880D01*
X017180Y001880D02*
X017180Y002480D01*
X018180Y002480D02*
X018180Y001880D01*
X019180Y001880D02*
X019180Y002480D01*
X020180Y002480D02*
X020180Y001880D01*
X021180Y001880D02*
X021180Y002480D01*
X022180Y002480D02*
X022180Y001880D01*
X023180Y001880D02*
X023180Y002480D01*
D15*
X006180Y003900D03*
D16*
X008070Y002680D03*
X006180Y001499D03*
D17*
X024680Y005203D03*
X024680Y008157D03*
D18*
X012180Y002783D02*
X012180Y002078D01*
X010180Y002078D02*
X010180Y002783D01*
D19*
X023680Y011680D03*
X023680Y013680D03*
X025680Y013680D03*
X025680Y011680D03*
D20*
X025680Y012680D02*
X023680Y010680D01*
X020180Y010680D01*
X015180Y010680D01*
X015180Y008180D01*
X014180Y008180D02*
X012680Y009680D01*
X011680Y010680D02*
X009680Y012680D01*
X009180Y012180D01*
X007180Y012180D01*
X005680Y012180D02*
X004680Y012180D01*
X005680Y012180D02*
X005680Y017680D01*
X005849Y017637D01*
X005680Y017680D02*
X004680Y018680D01*
X002180Y018680D01*
X002180Y017680D02*
X003180Y016680D01*
X003180Y010180D01*
X002680Y010180D01*
X002180Y009680D01*
X003180Y010180D02*
X004680Y010180D01*
X005180Y010180D01*
X005180Y008680D01*
X011680Y008680D01*
X014180Y006180D01*
X014680Y006680D01*
X023680Y006680D01*
X024680Y007680D01*
X024680Y008157D01*
X023180Y007180D02*
X020180Y007180D01*
X017680Y009680D01*
X018680Y007180D02*
X014680Y007180D01*
X014680Y009680D01*
X015180Y010680D02*
X011680Y010680D01*
X011680Y012680D02*
X011680Y021180D01*
X002680Y021180D01*
X002180Y020680D01*
X005180Y010180D02*
X007180Y010180D01*
X009180Y010180D01*
X009680Y009680D01*
X007680Y008180D02*
X007180Y008180D01*
X007680Y008180D02*
X007680Y002680D01*
X008070Y002680D01*
X007680Y002680D02*
X007180Y002680D01*
X006180Y001680D01*
X006180Y001499D01*
X006680Y005680D02*
X005180Y005680D01*
X005180Y008680D01*
X004680Y008180D02*
X003680Y008180D01*
X002180Y006680D01*
X002180Y005680D02*
X005180Y005680D01*
X006680Y005680D02*
X007180Y006180D01*
X012180Y002430D02*
X012180Y002180D01*
X014180Y002180D01*
X014180Y004180D02*
X015180Y004180D01*
X014180Y004180D02*
X014180Y006180D01*
X015680Y005680D02*
X019180Y002180D01*
X019680Y003180D02*
X021180Y003180D01*
X022180Y002180D01*
X019680Y003180D02*
X016680Y006180D01*
X013680Y011680D02*
X023680Y011680D01*
X022680Y013680D02*
X023680Y014680D01*
X025680Y014680D01*
X026680Y013680D01*
X026680Y005680D01*
X024680Y005680D01*
X024680Y005203D01*
X025680Y012680D02*
X025680Y013680D01*
X022680Y013680D02*
X017680Y013680D01*
X016680Y012680D01*
X014680Y012680D02*
X016680Y015180D01*
X022680Y015180D01*
X024680Y017180D01*
X021180Y017180D02*
X017180Y017180D01*
X013680Y012680D01*
X013680Y011680D02*
X012680Y012680D01*
X021180Y017180D02*
X024680Y020680D01*
D21*
X024965Y021102D02*
X027499Y021102D01*
X027499Y020944D02*
X025124Y020944D01*
X025180Y020887D02*
X024887Y021180D01*
X025180Y021473D01*
X025180Y021887D01*
X024887Y022180D01*
X024473Y022180D01*
X024180Y021887D01*
X024180Y021473D01*
X024473Y021180D01*
X024887Y021180D01*
X024473Y021180D01*
X024180Y020887D01*
X024180Y020625D01*
X021050Y017495D01*
X017223Y017495D01*
X017203Y017500D01*
X017160Y017495D01*
X017117Y017495D01*
X017099Y017487D01*
X017079Y017485D01*
X017041Y017464D01*
X017002Y017447D01*
X016987Y017433D01*
X016970Y017423D01*
X016943Y017389D01*
X016913Y017358D01*
X016905Y017340D01*
X013849Y013411D01*
X013779Y013440D01*
X013581Y013440D01*
X013397Y013364D01*
X013256Y013223D01*
X013180Y013039D01*
X013104Y013223D01*
X012963Y013364D01*
X012779Y013440D01*
X012581Y013440D01*
X012397Y013364D01*
X012256Y013223D01*
X012180Y013039D01*
X012180Y012321D01*
X012256Y012137D01*
X012397Y011996D01*
X012581Y011920D01*
X012779Y011920D01*
X012932Y011983D01*
X013413Y011502D01*
X013502Y011413D01*
X013617Y011365D01*
X023085Y011365D01*
X023112Y011300D01*
X023300Y011112D01*
X023547Y011010D01*
X023813Y011010D01*
X024060Y011112D01*
X024248Y011300D01*
X024350Y011547D01*
X024350Y011813D01*
X024248Y012060D01*
X024060Y012248D01*
X023813Y012350D01*
X023547Y012350D01*
X023300Y012248D01*
X023112Y012060D01*
X023085Y011995D01*
X018961Y011995D01*
X018963Y011996D01*
X019104Y012137D01*
X019180Y012321D01*
X019180Y013039D01*
X019104Y013223D01*
X018963Y013364D01*
X018961Y013365D01*
X022743Y013365D01*
X022858Y013413D01*
X023010Y013565D01*
X023010Y013547D01*
X023112Y013300D01*
X023300Y013112D01*
X023547Y013010D01*
X023813Y013010D01*
X024060Y013112D01*
X024248Y013300D01*
X024350Y013547D01*
X024350Y013813D01*
X024248Y014060D01*
X024060Y014248D01*
X023813Y014350D01*
X023795Y014350D01*
X023810Y014365D01*
X025550Y014365D01*
X025626Y014289D01*
X025537Y014275D01*
X025446Y014245D01*
X025360Y014202D01*
X025283Y014145D01*
X025215Y014077D01*
X025158Y014000D01*
X025115Y013914D01*
X025085Y013823D01*
X025070Y013728D01*
X025070Y013708D01*
X025652Y013708D01*
X025652Y013652D01*
X025708Y013652D01*
X025708Y013070D01*
X025728Y013070D01*
X025823Y013085D01*
X025914Y013115D01*
X026000Y013158D01*
X026077Y013215D01*
X026145Y013283D01*
X026202Y013360D01*
X026245Y013446D01*
X026275Y013537D01*
X026289Y013626D01*
X026365Y013550D01*
X026365Y005995D01*
X024617Y005995D01*
X024502Y005947D01*
X024498Y005943D01*
X024373Y005943D01*
X023940Y005510D01*
X023940Y004897D01*
X024373Y004463D01*
X024987Y004463D01*
X025420Y004897D01*
X025420Y005365D01*
X026743Y005365D01*
X026858Y005413D01*
X026947Y005502D01*
X026995Y005617D01*
X026995Y013743D01*
X026947Y013858D01*
X026858Y013947D01*
X025858Y014947D01*
X025743Y014995D01*
X023617Y014995D01*
X023502Y014947D01*
X023413Y014858D01*
X022550Y013995D01*
X017617Y013995D01*
X017502Y013947D01*
X017413Y013858D01*
X016932Y013377D01*
X016779Y013440D01*
X016581Y013440D01*
X016397Y013364D01*
X016256Y013223D01*
X016180Y013039D01*
X016104Y013223D01*
X015963Y013364D01*
X015779Y013440D01*
X015691Y013440D01*
X016831Y014865D01*
X022743Y014865D01*
X022858Y014913D01*
X022947Y015002D01*
X024625Y016680D01*
X024887Y016680D01*
X025180Y016973D01*
X025180Y017387D01*
X024887Y017680D01*
X025180Y017973D01*
X025180Y018387D01*
X024887Y018680D01*
X024473Y018680D01*
X024180Y018387D01*
X024180Y017973D01*
X024473Y017680D01*
X024887Y017680D01*
X024473Y017680D01*
X024180Y017387D01*
X024180Y017125D01*
X022550Y015495D01*
X016725Y015495D01*
X016707Y015500D01*
X016663Y015495D01*
X016617Y015495D01*
X016601Y015488D01*
X016583Y015486D01*
X016543Y015464D01*
X016502Y015447D01*
X016489Y015434D01*
X016473Y015426D01*
X016445Y015390D01*
X016413Y015358D01*
X016406Y015342D01*
X014858Y013407D01*
X014779Y013440D01*
X014670Y013440D01*
X017334Y016865D01*
X021243Y016865D01*
X021358Y016913D01*
X021447Y017002D01*
X024625Y020180D01*
X024887Y020180D01*
X025180Y020473D01*
X025180Y020887D01*
X025180Y020785D02*
X027499Y020785D01*
X027499Y020627D02*
X025180Y020627D01*
X025175Y020468D02*
X027499Y020468D01*
X027499Y020310D02*
X025017Y020310D01*
X024597Y020151D02*
X027499Y020151D01*
X027499Y019993D02*
X024438Y019993D01*
X024280Y019834D02*
X027499Y019834D01*
X027499Y019676D02*
X024121Y019676D01*
X023963Y019517D02*
X027499Y019517D01*
X027499Y019359D02*
X023804Y019359D01*
X023646Y019200D02*
X027499Y019200D01*
X027499Y019042D02*
X023487Y019042D01*
X023329Y018883D02*
X027499Y018883D01*
X027499Y018725D02*
X023170Y018725D01*
X023012Y018566D02*
X024359Y018566D01*
X024200Y018408D02*
X022853Y018408D01*
X022695Y018249D02*
X024180Y018249D01*
X024180Y018091D02*
X022536Y018091D01*
X022378Y017932D02*
X024221Y017932D01*
X024379Y017774D02*
X022219Y017774D01*
X022061Y017615D02*
X024408Y017615D01*
X024249Y017457D02*
X021902Y017457D01*
X021744Y017298D02*
X024180Y017298D01*
X024180Y017140D02*
X021585Y017140D01*
X021427Y016981D02*
X024036Y016981D01*
X023877Y016823D02*
X017301Y016823D01*
X017178Y016664D02*
X023719Y016664D01*
X023560Y016506D02*
X017054Y016506D01*
X016931Y016347D02*
X023402Y016347D01*
X023243Y016189D02*
X016808Y016189D01*
X016685Y016030D02*
X023085Y016030D01*
X022926Y015872D02*
X016561Y015872D01*
X016438Y015713D02*
X022768Y015713D01*
X022609Y015555D02*
X016315Y015555D01*
X016192Y015396D02*
X016449Y015396D01*
X016323Y015238D02*
X016068Y015238D01*
X015945Y015079D02*
X016196Y015079D01*
X016069Y014921D02*
X015822Y014921D01*
X015942Y014762D02*
X015698Y014762D01*
X015815Y014604D02*
X015575Y014604D01*
X015689Y014445D02*
X015452Y014445D01*
X015562Y014287D02*
X015329Y014287D01*
X015435Y014128D02*
X015205Y014128D01*
X015308Y013970D02*
X015082Y013970D01*
X015181Y013811D02*
X014959Y013811D01*
X015055Y013653D02*
X014835Y013653D01*
X014928Y013494D02*
X014712Y013494D01*
X014161Y013811D02*
X011995Y013811D01*
X011995Y013653D02*
X014037Y013653D01*
X013914Y013494D02*
X011995Y013494D01*
X011995Y013336D02*
X012368Y013336D01*
X012237Y013177D02*
X012123Y013177D01*
X012104Y013223D02*
X011995Y013332D01*
X011995Y021243D01*
X011947Y021358D01*
X011858Y021447D01*
X011743Y021495D01*
X006347Y021495D01*
X006347Y021673D01*
X006271Y021855D01*
X006159Y021967D01*
X006271Y022079D01*
X006313Y022180D01*
X012360Y022180D01*
X012360Y014348D01*
X012320Y014252D01*
X012320Y014108D01*
X012375Y013976D01*
X012476Y013875D01*
X012608Y013820D01*
X012752Y013820D01*
X012884Y013875D01*
X012985Y013976D01*
X013040Y014108D01*
X013040Y014252D01*
X013000Y014348D01*
X013000Y022180D01*
X014047Y022180D01*
X014089Y022079D01*
X014201Y021967D01*
X014089Y021855D01*
X014013Y021673D01*
X014013Y021475D01*
X014089Y021292D01*
X014201Y021180D01*
X014089Y021068D01*
X014013Y020885D01*
X014013Y020687D01*
X014089Y020504D01*
X014201Y020393D01*
X014089Y020281D01*
X014013Y020098D01*
X014013Y019900D01*
X014089Y019717D01*
X014201Y019605D01*
X014089Y019493D01*
X014013Y019310D01*
X014013Y019113D01*
X014089Y018930D01*
X014201Y018818D01*
X014089Y018706D01*
X014013Y018523D01*
X014013Y018325D01*
X014089Y018142D01*
X014201Y018030D01*
X014089Y017918D01*
X014013Y017736D01*
X014013Y017538D01*
X014089Y017355D01*
X014229Y017215D01*
X014412Y017139D01*
X014610Y017139D01*
X014793Y017215D01*
X014932Y017355D01*
X015008Y017538D01*
X015008Y017736D01*
X014932Y017918D01*
X014821Y018030D01*
X014932Y018142D01*
X015008Y018325D01*
X015008Y018523D01*
X014932Y018706D01*
X014821Y018818D01*
X014932Y018930D01*
X015008Y019113D01*
X015008Y019310D01*
X014932Y019493D01*
X014821Y019605D01*
X014932Y019717D01*
X015008Y019900D01*
X015008Y020098D01*
X014932Y020281D01*
X014821Y020393D01*
X014932Y020504D01*
X015008Y020687D01*
X015008Y020885D01*
X014932Y021068D01*
X014821Y021180D01*
X014932Y021292D01*
X015008Y021475D01*
X015008Y021673D01*
X014932Y021855D01*
X014821Y021967D01*
X014932Y022079D01*
X014974Y022180D01*
X027499Y022180D01*
X027499Y002325D01*
X027445Y002698D01*
X027228Y003175D01*
X026885Y003571D01*
X026444Y003854D01*
X025942Y004001D01*
X025418Y004001D01*
X024916Y003854D01*
X024475Y003571D01*
X024475Y003571D01*
X024132Y003175D01*
X023915Y002698D01*
X023840Y002180D01*
X023840Y002180D01*
X023915Y001662D01*
X023915Y001662D01*
X024132Y001185D01*
X024475Y000789D01*
X024475Y000789D01*
X024916Y000506D01*
X025209Y000420D01*
X002651Y000420D01*
X002944Y000506D01*
X002944Y000506D01*
X003385Y000789D01*
X003385Y000789D01*
X003385Y000789D01*
X003728Y001185D01*
X003728Y001185D01*
X003945Y001662D01*
X004020Y002180D01*
X003945Y002698D01*
X003728Y003175D01*
X003385Y003571D01*
X002944Y003854D01*
X002442Y004001D01*
X001918Y004001D01*
X001416Y003854D01*
X001416Y003854D01*
X000975Y003571D01*
X000975Y003571D01*
X000975Y003571D01*
X000632Y003175D01*
X000420Y002710D01*
X000420Y022180D01*
X001676Y022180D01*
X001574Y022138D01*
X001422Y021986D01*
X001340Y021787D01*
X001340Y021573D01*
X001422Y021374D01*
X001574Y021222D01*
X001676Y021180D01*
X001574Y021138D01*
X001422Y020986D01*
X001340Y020787D01*
X001340Y020573D01*
X001422Y020374D01*
X001574Y020222D01*
X001676Y020180D01*
X001574Y020138D01*
X001422Y019986D01*
X001340Y019787D01*
X001340Y019573D01*
X001422Y019374D01*
X001574Y019222D01*
X001759Y019145D01*
X001696Y019125D01*
X001628Y019091D01*
X001567Y019046D01*
X001514Y018993D01*
X001469Y018932D01*
X001435Y018864D01*
X001412Y018792D01*
X001400Y018718D01*
X001400Y018700D01*
X002160Y018700D01*
X002160Y018660D01*
X001400Y018660D01*
X001400Y018642D01*
X001412Y018568D01*
X001435Y018496D01*
X001469Y018428D01*
X001514Y018367D01*
X001567Y018314D01*
X001628Y018269D01*
X001696Y018235D01*
X001759Y018215D01*
X001574Y018138D01*
X001422Y017986D01*
X001340Y017787D01*
X001340Y017573D01*
X001422Y017374D01*
X001574Y017222D01*
X001676Y017180D01*
X001574Y017138D01*
X001422Y016986D01*
X001340Y016787D01*
X001340Y016573D01*
X001422Y016374D01*
X001574Y016222D01*
X001773Y016140D01*
X002587Y016140D01*
X002786Y016222D01*
X002865Y016301D01*
X002865Y010495D01*
X002617Y010495D01*
X002502Y010447D01*
X002413Y010358D01*
X002235Y010180D01*
X001973Y010180D01*
X001680Y009887D01*
X001680Y009473D01*
X001973Y009180D01*
X002387Y009180D01*
X002680Y009473D01*
X002680Y009735D01*
X002810Y009865D01*
X004288Y009865D01*
X004473Y009680D01*
X004865Y009680D01*
X004865Y008617D01*
X004862Y008620D01*
X004680Y008620D01*
X004680Y008180D01*
X004680Y008180D01*
X004680Y007740D01*
X004862Y007740D01*
X004865Y007743D01*
X004865Y006680D01*
X004473Y006680D01*
X004180Y006387D01*
X004180Y005995D01*
X002929Y005995D01*
X002786Y006138D01*
X002601Y006215D01*
X002664Y006235D01*
X002732Y006269D01*
X002793Y006314D01*
X002846Y006367D01*
X002891Y006428D01*
X002925Y006496D01*
X002948Y006568D01*
X002960Y006642D01*
X002960Y006660D01*
X002200Y006660D01*
X002200Y006700D01*
X002960Y006700D01*
X002960Y006718D01*
X002948Y006792D01*
X002925Y006864D01*
X002891Y006932D01*
X002846Y006993D01*
X002793Y007046D01*
X002732Y007091D01*
X002664Y007125D01*
X002601Y007145D01*
X002786Y007222D01*
X002938Y007374D01*
X003020Y007573D01*
X003020Y007787D01*
X002938Y007986D01*
X002786Y008138D01*
X002587Y008220D01*
X001773Y008220D01*
X001574Y008138D01*
X001422Y007986D01*
X001340Y007787D01*
X001340Y007573D01*
X001422Y007374D01*
X001574Y007222D01*
X001759Y007145D01*
X001696Y007125D01*
X001628Y007091D01*
X001567Y007046D01*
X001514Y006993D01*
X001469Y006932D01*
X001435Y006864D01*
X001412Y006792D01*
X001400Y006718D01*
X001400Y006700D01*
X002160Y006700D01*
X002160Y006660D01*
X001400Y006660D01*
X001400Y006642D01*
X001412Y006568D01*
X001435Y006496D01*
X001469Y006428D01*
X001514Y006367D01*
X001567Y006314D01*
X001628Y006269D01*
X001696Y006235D01*
X001759Y006215D01*
X001574Y006138D01*
X001422Y005986D01*
X001340Y005787D01*
X001340Y005573D01*
X001422Y005374D01*
X001574Y005222D01*
X001773Y005140D01*
X002587Y005140D01*
X002786Y005222D01*
X002929Y005365D01*
X006743Y005365D01*
X006858Y005413D01*
X006947Y005502D01*
X007125Y005680D01*
X007387Y005680D01*
X007680Y005973D01*
X007680Y006387D01*
X007387Y006680D01*
X006973Y006680D01*
X006680Y006387D01*
X006680Y006125D01*
X006550Y005995D01*
X005495Y005995D01*
X005495Y008365D01*
X006743Y008365D01*
X006740Y008362D01*
X006740Y008180D01*
X007180Y008180D01*
X007620Y008180D01*
X007620Y008362D01*
X007617Y008365D01*
X008680Y008365D01*
X008680Y007973D01*
X008973Y007680D01*
X009387Y007680D01*
X009680Y007973D01*
X009680Y008365D01*
X011550Y008365D01*
X013680Y006235D01*
X013680Y005973D01*
X013865Y005788D01*
X013865Y004117D01*
X013913Y004002D01*
X014002Y003913D01*
X014117Y003865D01*
X014788Y003865D01*
X014973Y003680D01*
X015387Y003680D01*
X015680Y003973D01*
X015680Y004387D01*
X015387Y004680D01*
X014973Y004680D01*
X014788Y004495D01*
X014495Y004495D01*
X014495Y005788D01*
X014680Y005973D01*
X014680Y006235D01*
X014740Y006295D01*
X014740Y006180D01*
X015180Y006180D01*
X015620Y006180D01*
X015620Y006362D01*
X015617Y006365D01*
X016367Y006365D01*
X016320Y006252D01*
X016320Y006108D01*
X016375Y005976D01*
X016476Y005875D01*
X016585Y005830D01*
X019413Y003002D01*
X019470Y002944D01*
X019287Y003020D01*
X019073Y003020D01*
X018874Y002938D01*
X018871Y002935D01*
X016030Y005775D01*
X015985Y005884D01*
X015884Y005985D01*
X015752Y006040D01*
X015620Y006040D01*
X015620Y006180D01*
X015180Y006180D01*
X015180Y006180D01*
X015180Y005740D01*
X015320Y005740D01*
X015320Y005608D01*
X015375Y005476D01*
X015476Y005375D01*
X015585Y005330D01*
X017947Y002968D01*
X017874Y002938D01*
X017722Y002786D01*
X017680Y002684D01*
X017638Y002786D01*
X017486Y002938D01*
X017287Y003020D01*
X017073Y003020D01*
X016874Y002938D01*
X016722Y002786D01*
X016680Y002684D01*
X016638Y002786D01*
X016486Y002938D01*
X016287Y003020D01*
X016073Y003020D01*
X015874Y002938D01*
X015722Y002786D01*
X015680Y002684D01*
X015638Y002786D01*
X015486Y002938D01*
X015287Y003020D01*
X015073Y003020D01*
X014874Y002938D01*
X014722Y002786D01*
X014645Y002601D01*
X014625Y002664D01*
X014591Y002732D01*
X014546Y002793D01*
X014493Y002846D01*
X014432Y002891D01*
X014364Y002925D01*
X014292Y002948D01*
X014218Y002960D01*
X014200Y002960D01*
X014200Y002200D01*
X014160Y002200D01*
X014160Y002960D01*
X014142Y002960D01*
X014068Y002948D01*
X013996Y002925D01*
X013928Y002891D01*
X013867Y002846D01*
X013814Y002793D01*
X013769Y002732D01*
X013735Y002664D01*
X013712Y002592D01*
X013700Y002518D01*
X013700Y002200D01*
X014160Y002200D01*
X014160Y002160D01*
X014200Y002160D01*
X014200Y001400D01*
X014218Y001400D01*
X014292Y001412D01*
X014364Y001435D01*
X014432Y001469D01*
X014493Y001514D01*
X014546Y001567D01*
X014591Y001628D01*
X014625Y001696D01*
X014645Y001759D01*
X014722Y001574D01*
X014874Y001422D01*
X015073Y001340D01*
X015287Y001340D01*
X015486Y001422D01*
X015638Y001574D01*
X015680Y001676D01*
X015722Y001574D01*
X015874Y001422D01*
X016073Y001340D01*
X016287Y001340D01*
X016486Y001422D01*
X016638Y001574D01*
X016680Y001676D01*
X016722Y001574D01*
X016874Y001422D01*
X017073Y001340D01*
X017287Y001340D01*
X017486Y001422D01*
X017638Y001574D01*
X017680Y001676D01*
X017722Y001574D01*
X017874Y001422D01*
X018073Y001340D01*
X018287Y001340D01*
X018486Y001422D01*
X018638Y001574D01*
X018680Y001676D01*
X018722Y001574D01*
X018874Y001422D01*
X019073Y001340D01*
X019287Y001340D01*
X019486Y001422D01*
X019638Y001574D01*
X019680Y001676D01*
X019722Y001574D01*
X019874Y001422D01*
X020073Y001340D01*
X020287Y001340D01*
X020486Y001422D01*
X020638Y001574D01*
X020680Y001676D01*
X020722Y001574D01*
X020874Y001422D01*
X021073Y001340D01*
X021287Y001340D01*
X021486Y001422D01*
X021638Y001574D01*
X021680Y001676D01*
X021722Y001574D01*
X021874Y001422D01*
X022073Y001340D01*
X022287Y001340D01*
X022486Y001422D01*
X022638Y001574D01*
X022680Y001676D01*
X022722Y001574D01*
X022874Y001422D01*
X023073Y001340D01*
X023287Y001340D01*
X023486Y001422D01*
X023638Y001574D01*
X023720Y001773D01*
X023720Y002587D01*
X023638Y002786D01*
X023486Y002938D01*
X023287Y003020D01*
X023073Y003020D01*
X022874Y002938D01*
X022722Y002786D01*
X022680Y002684D01*
X022638Y002786D01*
X022486Y002938D01*
X022287Y003020D01*
X022073Y003020D01*
X021874Y002938D01*
X021871Y002935D01*
X021358Y003447D01*
X021243Y003495D01*
X019810Y003495D01*
X017030Y006275D01*
X016993Y006365D01*
X019680Y006365D01*
X019680Y005973D01*
X019973Y005680D01*
X020387Y005680D01*
X020680Y005973D01*
X020680Y006365D01*
X023743Y006365D01*
X023858Y006413D01*
X024862Y007417D01*
X024987Y007417D01*
X025420Y007850D01*
X025420Y008463D01*
X024987Y008897D01*
X024373Y008897D01*
X023940Y008463D01*
X023940Y007850D01*
X024172Y007618D01*
X023550Y006995D01*
X023493Y006995D01*
X023540Y007108D01*
X023540Y007252D01*
X023485Y007384D01*
X023384Y007485D01*
X023252Y007540D01*
X023108Y007540D01*
X023000Y007495D01*
X020310Y007495D01*
X020125Y007680D01*
X020387Y007680D01*
X020680Y007973D01*
X020680Y008387D01*
X020387Y008680D01*
X019973Y008680D01*
X019680Y008387D01*
X019680Y008125D01*
X018854Y008951D01*
X018963Y008996D01*
X019104Y009137D01*
X019180Y009321D01*
X019180Y010039D01*
X019104Y010223D01*
X018963Y010364D01*
X018779Y010440D01*
X018581Y010440D01*
X018397Y010364D01*
X018256Y010223D01*
X018180Y010039D01*
X018104Y010223D01*
X017963Y010364D01*
X017779Y010440D01*
X017581Y010440D01*
X017397Y010364D01*
X017256Y010223D01*
X017180Y010039D01*
X017104Y010223D01*
X016963Y010364D01*
X016779Y010440D01*
X016581Y010440D01*
X016397Y010364D01*
X016256Y010223D01*
X016180Y010039D01*
X016104Y010223D01*
X015963Y010364D01*
X015779Y010440D01*
X015581Y010440D01*
X015397Y010364D01*
X015256Y010223D01*
X015180Y010039D01*
X015180Y009321D01*
X015256Y009137D01*
X015397Y008996D01*
X015581Y008920D01*
X015779Y008920D01*
X015963Y008996D01*
X016104Y009137D01*
X016180Y009321D01*
X016180Y010039D01*
X016180Y009321D01*
X016256Y009137D01*
X016397Y008996D01*
X016581Y008920D01*
X016779Y008920D01*
X016963Y008996D01*
X017104Y009137D01*
X017180Y009321D01*
X017180Y010039D01*
X017180Y009321D01*
X017256Y009137D01*
X017397Y008996D01*
X017581Y008920D01*
X017779Y008920D01*
X017932Y008983D01*
X019913Y007002D01*
X019913Y007002D01*
X019920Y006995D01*
X018993Y006995D01*
X019040Y007108D01*
X019040Y007252D01*
X018985Y007384D01*
X018884Y007485D01*
X018752Y007540D01*
X018608Y007540D01*
X018500Y007495D01*
X014995Y007495D01*
X014995Y007743D01*
X014998Y007740D01*
X015180Y007740D01*
X015362Y007740D01*
X015620Y007998D01*
X015620Y008180D01*
X015620Y008362D01*
X015362Y008620D01*
X015180Y008620D01*
X015180Y008180D01*
X015180Y008180D01*
X015620Y008180D01*
X015180Y008180D01*
X015180Y008180D01*
X015180Y008620D01*
X014998Y008620D01*
X014995Y008617D01*
X014995Y009028D01*
X015104Y009137D01*
X015180Y009321D01*
X015180Y010039D01*
X015104Y010223D01*
X014963Y010364D01*
X014779Y010440D01*
X014581Y010440D01*
X014397Y010364D01*
X014256Y010223D01*
X014180Y010039D01*
X014104Y010223D01*
X013963Y010364D01*
X013779Y010440D01*
X013581Y010440D01*
X013397Y010364D01*
X013256Y010223D01*
X013180Y010039D01*
X013104Y010223D01*
X012963Y010364D01*
X012779Y010440D01*
X012581Y010440D01*
X012397Y010364D01*
X012256Y010223D01*
X012180Y010039D01*
X012104Y010223D01*
X011963Y010364D01*
X011779Y010440D01*
X011581Y010440D01*
X011397Y010364D01*
X011256Y010223D01*
X011180Y010039D01*
X011104Y010223D01*
X010963Y010364D01*
X010779Y010440D01*
X010581Y010440D01*
X010397Y010364D01*
X010256Y010223D01*
X010180Y010039D01*
X010104Y010223D01*
X009963Y010364D01*
X009779Y010440D01*
X009581Y010440D01*
X009428Y010377D01*
X009358Y010447D01*
X009243Y010495D01*
X007572Y010495D01*
X007387Y010680D01*
X006973Y010680D01*
X006788Y010495D01*
X005072Y010495D01*
X004887Y010680D01*
X004473Y010680D01*
X004288Y010495D01*
X003495Y010495D01*
X003495Y016743D01*
X003447Y016858D01*
X003358Y016947D01*
X002935Y017371D01*
X002938Y017374D01*
X003020Y017573D01*
X003020Y017787D01*
X002938Y017986D01*
X002786Y018138D01*
X002601Y018215D01*
X002664Y018235D01*
X002732Y018269D01*
X002793Y018314D01*
X002846Y018367D01*
X002891Y018428D01*
X002925Y018496D01*
X002948Y018568D01*
X002960Y018642D01*
X002960Y018660D01*
X002200Y018660D01*
X002200Y018700D01*
X002960Y018700D01*
X002960Y018718D01*
X002948Y018792D01*
X002925Y018864D01*
X002891Y018932D01*
X002846Y018993D01*
X002793Y019046D01*
X002732Y019091D01*
X002664Y019125D01*
X002601Y019145D01*
X002786Y019222D01*
X002938Y019374D01*
X003020Y019573D01*
X003020Y019787D01*
X002938Y019986D01*
X002786Y020138D01*
X002684Y020180D01*
X002786Y020222D01*
X002938Y020374D01*
X003020Y020573D01*
X003020Y020787D01*
X002988Y020865D01*
X005352Y020865D01*
X005352Y020687D01*
X005428Y020504D01*
X005539Y020393D01*
X005428Y020281D01*
X005352Y020098D01*
X005352Y019900D01*
X005428Y019717D01*
X005539Y019605D01*
X005428Y019493D01*
X005352Y019310D01*
X005352Y019113D01*
X005428Y018930D01*
X005539Y018818D01*
X005428Y018706D01*
X005352Y018523D01*
X005352Y018325D01*
X005428Y018142D01*
X005567Y018002D01*
X005593Y017992D01*
X005564Y017970D01*
X005516Y017922D01*
X005475Y017866D01*
X005444Y017805D01*
X005423Y017739D01*
X005412Y017671D01*
X005412Y017637D01*
X005849Y017637D01*
X005849Y017637D01*
X005412Y017637D01*
X005412Y017602D01*
X005423Y017534D01*
X005444Y017469D01*
X005475Y017407D01*
X005516Y017352D01*
X005564Y017303D01*
X005620Y017263D01*
X005681Y017231D01*
X005747Y017210D01*
X005815Y017199D01*
X005849Y017199D01*
X005849Y017637D01*
X006287Y017637D01*
X006287Y017671D01*
X006276Y017739D01*
X006255Y017805D01*
X006223Y017866D01*
X006183Y017922D01*
X006134Y017970D01*
X006105Y017992D01*
X006131Y018002D01*
X006271Y018142D01*
X006347Y018325D01*
X006347Y018523D01*
X006271Y018706D01*
X006159Y018818D01*
X006271Y018930D01*
X006347Y019113D01*
X006347Y019310D01*
X006271Y019493D01*
X006159Y019605D01*
X006271Y019717D01*
X006347Y019900D01*
X006347Y020098D01*
X006271Y020281D01*
X006159Y020393D01*
X006271Y020504D01*
X006347Y020687D01*
X006347Y020865D01*
X011365Y020865D01*
X011365Y013332D01*
X011256Y013223D01*
X011180Y013039D01*
X011104Y013223D01*
X010963Y013364D01*
X010779Y013440D01*
X010581Y013440D01*
X010397Y013364D01*
X010256Y013223D01*
X010180Y013039D01*
X010180Y012321D01*
X010256Y012137D01*
X010397Y011996D01*
X010581Y011920D01*
X010779Y011920D01*
X010963Y011996D01*
X011104Y012137D01*
X011180Y012321D01*
X011180Y013039D01*
X011180Y012321D01*
X011256Y012137D01*
X011397Y011996D01*
X011581Y011920D01*
X011779Y011920D01*
X011963Y011996D01*
X012104Y012137D01*
X012180Y012321D01*
X012180Y013039D01*
X012104Y013223D01*
X012180Y013019D02*
X012180Y013019D01*
X012180Y012860D02*
X012180Y012860D01*
X012180Y012702D02*
X012180Y012702D01*
X012180Y012543D02*
X012180Y012543D01*
X012180Y012385D02*
X012180Y012385D01*
X012141Y012226D02*
X012219Y012226D01*
X012325Y012068D02*
X012035Y012068D01*
X011325Y012068D02*
X011035Y012068D01*
X011141Y012226D02*
X011219Y012226D01*
X011180Y012385D02*
X011180Y012385D01*
X011180Y012543D02*
X011180Y012543D01*
X011180Y012702D02*
X011180Y012702D01*
X011180Y012860D02*
X011180Y012860D01*
X011180Y013019D02*
X011180Y013019D01*
X011123Y013177D02*
X011237Y013177D01*
X011365Y013336D02*
X010992Y013336D01*
X011365Y013494D02*
X003495Y013494D01*
X003495Y013336D02*
X009487Y013336D01*
X009511Y013348D02*
X009449Y013316D01*
X009393Y013276D01*
X009344Y013227D01*
X009304Y013171D01*
X009272Y013109D01*
X009251Y013043D01*
X009240Y012975D01*
X009240Y012680D01*
X009680Y012680D01*
X010120Y012680D01*
X010120Y012975D01*
X010109Y013043D01*
X010088Y013109D01*
X010056Y013171D01*
X010016Y013227D01*
X009967Y013276D01*
X009911Y013316D01*
X009849Y013348D01*
X009783Y013369D01*
X009715Y013380D01*
X009680Y013380D01*
X009680Y012680D01*
X009680Y012680D01*
X009680Y012680D01*
X010120Y012680D01*
X010120Y012385D01*
X010109Y012317D01*
X010088Y012251D01*
X010056Y012189D01*
X010016Y012133D01*
X009967Y012084D01*
X009911Y012044D01*
X009849Y012012D01*
X009783Y011991D01*
X009715Y011980D01*
X009680Y011980D01*
X009680Y012680D01*
X009680Y012680D01*
X009680Y012680D01*
X009680Y013380D01*
X009645Y013380D01*
X009577Y013369D01*
X009511Y013348D01*
X009680Y013336D02*
X009680Y013336D01*
X009680Y013177D02*
X009680Y013177D01*
X009680Y013019D02*
X009680Y013019D01*
X009680Y012860D02*
X009680Y012860D01*
X009680Y012702D02*
X009680Y012702D01*
X009680Y012680D02*
X009240Y012680D01*
X009240Y012385D01*
X009251Y012317D01*
X009272Y012251D01*
X009304Y012189D01*
X009344Y012133D01*
X009393Y012084D01*
X009449Y012044D01*
X009511Y012012D01*
X009577Y011991D01*
X009645Y011980D01*
X009680Y011980D01*
X009680Y012680D01*
X009680Y012543D02*
X009680Y012543D01*
X009680Y012385D02*
X009680Y012385D01*
X009680Y012226D02*
X009680Y012226D01*
X009680Y012068D02*
X009680Y012068D01*
X009943Y012068D02*
X010325Y012068D01*
X010219Y012226D02*
X010075Y012226D01*
X010120Y012385D02*
X010180Y012385D01*
X010180Y012543D02*
X010120Y012543D01*
X010120Y012702D02*
X010180Y012702D01*
X010180Y012860D02*
X010120Y012860D01*
X010113Y013019D02*
X010180Y013019D01*
X010237Y013177D02*
X010052Y013177D01*
X009873Y013336D02*
X010368Y013336D01*
X011365Y013653D02*
X003495Y013653D01*
X003495Y013811D02*
X011365Y013811D01*
X011365Y013970D02*
X003495Y013970D01*
X003495Y014128D02*
X011365Y014128D01*
X011365Y014287D02*
X003495Y014287D01*
X003495Y014445D02*
X011365Y014445D01*
X011365Y014604D02*
X003495Y014604D01*
X003495Y014762D02*
X011365Y014762D01*
X011365Y014921D02*
X003495Y014921D01*
X003495Y015079D02*
X011365Y015079D01*
X011365Y015238D02*
X003495Y015238D01*
X003495Y015396D02*
X011365Y015396D01*
X011365Y015555D02*
X003495Y015555D01*
X003495Y015713D02*
X011365Y015713D01*
X011365Y015872D02*
X003495Y015872D01*
X003495Y016030D02*
X011365Y016030D01*
X011365Y016189D02*
X003495Y016189D01*
X003495Y016347D02*
X011365Y016347D01*
X011365Y016506D02*
X003495Y016506D01*
X003495Y016664D02*
X011365Y016664D01*
X011365Y016823D02*
X003462Y016823D01*
X003324Y016981D02*
X011365Y016981D01*
X011365Y017140D02*
X003166Y017140D01*
X003007Y017298D02*
X005571Y017298D01*
X005450Y017457D02*
X002972Y017457D01*
X003020Y017615D02*
X005412Y017615D01*
X005434Y017774D02*
X003020Y017774D01*
X002960Y017932D02*
X005526Y017932D01*
X005479Y018091D02*
X002833Y018091D01*
X002691Y018249D02*
X005383Y018249D01*
X005352Y018408D02*
X002875Y018408D01*
X002948Y018566D02*
X005370Y018566D01*
X005446Y018725D02*
X002959Y018725D01*
X002915Y018883D02*
X005474Y018883D01*
X005381Y019042D02*
X002797Y019042D01*
X002732Y019200D02*
X005352Y019200D01*
X005372Y019359D02*
X002922Y019359D01*
X002997Y019517D02*
X005451Y019517D01*
X005469Y019676D02*
X003020Y019676D01*
X003001Y019834D02*
X005379Y019834D01*
X005352Y019993D02*
X002931Y019993D01*
X002754Y020151D02*
X005374Y020151D01*
X005456Y020310D02*
X002873Y020310D01*
X002977Y020468D02*
X005464Y020468D01*
X005377Y020627D02*
X003020Y020627D01*
X003020Y020785D02*
X005352Y020785D01*
X006235Y020468D02*
X011365Y020468D01*
X011365Y020310D02*
X006242Y020310D01*
X006325Y020151D02*
X011365Y020151D01*
X011365Y019993D02*
X006347Y019993D01*
X006319Y019834D02*
X011365Y019834D01*
X011365Y019676D02*
X006229Y019676D01*
X006247Y019517D02*
X011365Y019517D01*
X011365Y019359D02*
X006327Y019359D01*
X006347Y019200D02*
X011365Y019200D01*
X011365Y019042D02*
X006317Y019042D01*
X006224Y018883D02*
X011365Y018883D01*
X011365Y018725D02*
X006252Y018725D01*
X006329Y018566D02*
X011365Y018566D01*
X011365Y018408D02*
X006347Y018408D01*
X006315Y018249D02*
X011365Y018249D01*
X011365Y018091D02*
X006219Y018091D01*
X006173Y017932D02*
X011365Y017932D01*
X011365Y017774D02*
X006265Y017774D01*
X006287Y017637D02*
X005849Y017637D01*
X005849Y017637D01*
X005849Y017637D01*
X005849Y017199D01*
X005884Y017199D01*
X005952Y017210D01*
X006017Y017231D01*
X006079Y017263D01*
X006134Y017303D01*
X006183Y017352D01*
X006223Y017407D01*
X006255Y017469D01*
X006276Y017534D01*
X006287Y017602D01*
X006287Y017637D01*
X006287Y017615D02*
X011365Y017615D01*
X011365Y017457D02*
X006248Y017457D01*
X006127Y017298D02*
X011365Y017298D01*
X011995Y017298D02*
X012360Y017298D01*
X012360Y017140D02*
X011995Y017140D01*
X011995Y016981D02*
X012360Y016981D01*
X012360Y016823D02*
X011995Y016823D01*
X011995Y016664D02*
X012360Y016664D01*
X012360Y016506D02*
X011995Y016506D01*
X011995Y016347D02*
X012360Y016347D01*
X012360Y016189D02*
X011995Y016189D01*
X011995Y016030D02*
X012360Y016030D01*
X012360Y015872D02*
X011995Y015872D01*
X011995Y015713D02*
X012360Y015713D01*
X012360Y015555D02*
X011995Y015555D01*
X011995Y015396D02*
X012360Y015396D01*
X012360Y015238D02*
X011995Y015238D01*
X011995Y015079D02*
X012360Y015079D01*
X012360Y014921D02*
X011995Y014921D01*
X011995Y014762D02*
X012360Y014762D01*
X012360Y014604D02*
X011995Y014604D01*
X011995Y014445D02*
X012360Y014445D01*
X012334Y014287D02*
X011995Y014287D01*
X011995Y014128D02*
X012320Y014128D01*
X012381Y013970D02*
X011995Y013970D01*
X012680Y014180D02*
X012680Y023930D01*
X005849Y023936D01*
X006245Y022053D02*
X012360Y022053D01*
X012360Y021895D02*
X006232Y021895D01*
X006321Y021736D02*
X012360Y021736D01*
X012360Y021578D02*
X006347Y021578D01*
X006347Y020785D02*
X011365Y020785D01*
X011365Y020627D02*
X006322Y020627D01*
X005849Y017615D02*
X005849Y017615D01*
X005849Y017457D02*
X005849Y017457D01*
X005849Y017298D02*
X005849Y017298D01*
X002865Y016189D02*
X002705Y016189D01*
X002865Y016030D02*
X000420Y016030D01*
X000420Y015872D02*
X002865Y015872D01*
X002865Y015713D02*
X000420Y015713D01*
X000420Y015555D02*
X002865Y015555D01*
X002865Y015396D02*
X000420Y015396D01*
X000420Y015238D02*
X002865Y015238D01*
X002865Y015079D02*
X002488Y015079D01*
X002387Y015180D02*
X001973Y015180D01*
X001680Y014887D01*
X001680Y014473D01*
X001973Y014180D01*
X002387Y014180D01*
X002680Y014473D01*
X002680Y014887D01*
X002387Y015180D01*
X002647Y014921D02*
X002865Y014921D01*
X002865Y014762D02*
X002680Y014762D01*
X002680Y014604D02*
X002865Y014604D01*
X002865Y014445D02*
X002652Y014445D01*
X002494Y014287D02*
X002865Y014287D01*
X002865Y014128D02*
X000420Y014128D01*
X000420Y013970D02*
X002865Y013970D01*
X002865Y013811D02*
X000420Y013811D01*
X000420Y013653D02*
X002865Y013653D01*
X002865Y013494D02*
X000420Y013494D01*
X000420Y013336D02*
X002865Y013336D01*
X002865Y013177D02*
X000420Y013177D01*
X000420Y013019D02*
X002865Y013019D01*
X002865Y012860D02*
X000420Y012860D01*
X000420Y012702D02*
X002865Y012702D01*
X002865Y012543D02*
X000420Y012543D01*
X000420Y012385D02*
X002865Y012385D01*
X002865Y012226D02*
X000420Y012226D01*
X000420Y012068D02*
X002865Y012068D01*
X002865Y011909D02*
X000420Y011909D01*
X000420Y011751D02*
X002865Y011751D01*
X002865Y011592D02*
X000420Y011592D01*
X000420Y011434D02*
X002865Y011434D01*
X002865Y011275D02*
X000420Y011275D01*
X000420Y011117D02*
X002865Y011117D01*
X002865Y010958D02*
X000420Y010958D01*
X000420Y010800D02*
X002865Y010800D01*
X002865Y010641D02*
X000420Y010641D01*
X000420Y010483D02*
X002587Y010483D01*
X002379Y010324D02*
X000420Y010324D01*
X000420Y010166D02*
X001958Y010166D01*
X001800Y010007D02*
X000420Y010007D01*
X000420Y009849D02*
X001680Y009849D01*
X001680Y009690D02*
X000420Y009690D01*
X000420Y009532D02*
X001680Y009532D01*
X001780Y009373D02*
X000420Y009373D01*
X000420Y009215D02*
X001938Y009215D01*
X002422Y009215D02*
X004865Y009215D01*
X004865Y009373D02*
X002580Y009373D01*
X002680Y009532D02*
X004865Y009532D01*
X004463Y009690D02*
X002680Y009690D01*
X002794Y009849D02*
X004304Y009849D01*
X004434Y010641D02*
X003495Y010641D01*
X003495Y010800D02*
X026365Y010800D01*
X026365Y010958D02*
X003495Y010958D01*
X003495Y011117D02*
X023296Y011117D01*
X023137Y011275D02*
X003495Y011275D01*
X003495Y011434D02*
X013481Y011434D01*
X013323Y011592D02*
X003495Y011592D01*
X003495Y011751D02*
X004487Y011751D01*
X004498Y011740D02*
X004240Y011998D01*
X004240Y012180D01*
X004680Y012180D01*
X004680Y012180D01*
X004680Y012620D01*
X004862Y012620D01*
X005120Y012362D01*
X005120Y012180D01*
X004680Y012180D01*
X004680Y012180D01*
X004680Y012180D01*
X004680Y012620D01*
X004498Y012620D01*
X004240Y012362D01*
X004240Y012180D01*
X004680Y012180D01*
X005120Y012180D01*
X005120Y011998D01*
X004862Y011740D01*
X004680Y011740D01*
X004680Y012180D01*
X004680Y012180D01*
X004680Y011740D01*
X004498Y011740D01*
X004680Y011751D02*
X004680Y011751D01*
X004680Y011909D02*
X004680Y011909D01*
X004680Y012068D02*
X004680Y012068D01*
X004680Y012226D02*
X004680Y012226D01*
X004680Y012385D02*
X004680Y012385D01*
X004680Y012543D02*
X004680Y012543D01*
X004939Y012543D02*
X006921Y012543D01*
X006998Y012620D02*
X006740Y012362D01*
X006740Y012180D01*
X007180Y012180D01*
X007180Y012180D01*
X007180Y012620D01*
X007362Y012620D01*
X007620Y012362D01*
X007620Y012180D01*
X007180Y012180D01*
X007180Y012180D01*
X007180Y012180D01*
X007180Y012620D01*
X006998Y012620D01*
X007180Y012543D02*
X007180Y012543D01*
X007180Y012385D02*
X007180Y012385D01*
X007180Y012226D02*
X007180Y012226D01*
X007180Y012180D02*
X006740Y012180D01*
X006740Y011998D01*
X006998Y011740D01*
X007180Y011740D01*
X007362Y011740D01*
X007620Y011998D01*
X007620Y012180D01*
X007180Y012180D01*
X007180Y011740D01*
X007180Y012180D01*
X007180Y012180D01*
X007180Y012068D02*
X007180Y012068D01*
X007180Y011909D02*
X007180Y011909D01*
X007180Y011751D02*
X007180Y011751D01*
X007373Y011751D02*
X013164Y011751D01*
X013006Y011909D02*
X007531Y011909D01*
X007620Y012068D02*
X009417Y012068D01*
X009285Y012226D02*
X007620Y012226D01*
X007598Y012385D02*
X009240Y012385D01*
X009240Y012543D02*
X007439Y012543D01*
X006762Y012385D02*
X005098Y012385D01*
X005120Y012226D02*
X006740Y012226D01*
X006740Y012068D02*
X005120Y012068D01*
X005031Y011909D02*
X006829Y011909D01*
X006987Y011751D02*
X004873Y011751D01*
X004329Y011909D02*
X003495Y011909D01*
X003495Y012068D02*
X004240Y012068D01*
X004240Y012226D02*
X003495Y012226D01*
X003495Y012385D02*
X004262Y012385D01*
X004421Y012543D02*
X003495Y012543D01*
X003495Y012702D02*
X009240Y012702D01*
X009240Y012860D02*
X003495Y012860D01*
X003495Y013019D02*
X009247Y013019D01*
X009308Y013177D02*
X003495Y013177D01*
X001866Y014287D02*
X000420Y014287D01*
X000420Y014445D02*
X001708Y014445D01*
X001680Y014604D02*
X000420Y014604D01*
X000420Y014762D02*
X001680Y014762D01*
X001713Y014921D02*
X000420Y014921D01*
X000420Y015079D02*
X001872Y015079D01*
X001655Y016189D02*
X000420Y016189D01*
X000420Y016347D02*
X001449Y016347D01*
X001368Y016506D02*
X000420Y016506D01*
X000420Y016664D02*
X001340Y016664D01*
X001355Y016823D02*
X000420Y016823D01*
X000420Y016981D02*
X001420Y016981D01*
X001578Y017140D02*
X000420Y017140D01*
X000420Y017298D02*
X001498Y017298D01*
X001388Y017457D02*
X000420Y017457D01*
X000420Y017615D02*
X001340Y017615D01*
X001340Y017774D02*
X000420Y017774D01*
X000420Y017932D02*
X001400Y017932D01*
X001527Y018091D02*
X000420Y018091D01*
X000420Y018249D02*
X001669Y018249D01*
X001485Y018408D02*
X000420Y018408D01*
X000420Y018566D02*
X001412Y018566D01*
X001401Y018725D02*
X000420Y018725D01*
X000420Y018883D02*
X001445Y018883D01*
X001563Y019042D02*
X000420Y019042D01*
X000420Y019200D02*
X001628Y019200D01*
X001438Y019359D02*
X000420Y019359D01*
X000420Y019517D02*
X001363Y019517D01*
X001340Y019676D02*
X000420Y019676D01*
X000420Y019834D02*
X001359Y019834D01*
X001429Y019993D02*
X000420Y019993D01*
X000420Y020151D02*
X001606Y020151D01*
X001487Y020310D02*
X000420Y020310D01*
X000420Y020468D02*
X001383Y020468D01*
X001340Y020627D02*
X000420Y020627D01*
X000420Y020785D02*
X001340Y020785D01*
X001405Y020944D02*
X000420Y020944D01*
X000420Y021102D02*
X001538Y021102D01*
X001536Y021261D02*
X000420Y021261D01*
X000420Y021419D02*
X001404Y021419D01*
X001340Y021578D02*
X000420Y021578D01*
X000420Y021736D02*
X001340Y021736D01*
X001384Y021895D02*
X000420Y021895D01*
X000420Y022053D02*
X001489Y022053D01*
X011886Y021419D02*
X012360Y021419D01*
X012360Y021261D02*
X011988Y021261D01*
X011995Y021102D02*
X012360Y021102D01*
X012360Y020944D02*
X011995Y020944D01*
X011995Y020785D02*
X012360Y020785D01*
X012360Y020627D02*
X011995Y020627D01*
X011995Y020468D02*
X012360Y020468D01*
X012360Y020310D02*
X011995Y020310D01*
X011995Y020151D02*
X012360Y020151D01*
X012360Y019993D02*
X011995Y019993D01*
X011995Y019834D02*
X012360Y019834D01*
X012360Y019676D02*
X011995Y019676D01*
X011995Y019517D02*
X012360Y019517D01*
X012360Y019359D02*
X011995Y019359D01*
X011995Y019200D02*
X012360Y019200D01*
X012360Y019042D02*
X011995Y019042D01*
X011995Y018883D02*
X012360Y018883D01*
X012360Y018725D02*
X011995Y018725D01*
X011995Y018566D02*
X012360Y018566D01*
X012360Y018408D02*
X011995Y018408D01*
X011995Y018249D02*
X012360Y018249D01*
X012360Y018091D02*
X011995Y018091D01*
X011995Y017932D02*
X012360Y017932D01*
X012360Y017774D02*
X011995Y017774D01*
X011995Y017615D02*
X012360Y017615D01*
X012360Y017457D02*
X011995Y017457D01*
X013000Y017457D02*
X014047Y017457D01*
X014013Y017615D02*
X013000Y017615D01*
X013000Y017774D02*
X014029Y017774D01*
X014103Y017932D02*
X013000Y017932D01*
X013000Y018091D02*
X014141Y018091D01*
X014045Y018249D02*
X013000Y018249D01*
X013000Y018408D02*
X014013Y018408D01*
X014031Y018566D02*
X013000Y018566D01*
X013000Y018725D02*
X014108Y018725D01*
X014136Y018883D02*
X013000Y018883D01*
X013000Y019042D02*
X014043Y019042D01*
X014013Y019200D02*
X013000Y019200D01*
X013000Y019359D02*
X014033Y019359D01*
X014113Y019517D02*
X013000Y019517D01*
X013000Y019676D02*
X014131Y019676D01*
X014041Y019834D02*
X013000Y019834D01*
X013000Y019993D02*
X014013Y019993D01*
X014035Y020151D02*
X013000Y020151D01*
X013000Y020310D02*
X014118Y020310D01*
X014125Y020468D02*
X013000Y020468D01*
X013000Y020627D02*
X014038Y020627D01*
X014013Y020785D02*
X013000Y020785D01*
X013000Y020944D02*
X014037Y020944D01*
X014123Y021102D02*
X013000Y021102D01*
X013000Y021261D02*
X014120Y021261D01*
X014036Y021419D02*
X013000Y021419D01*
X013000Y021578D02*
X014013Y021578D01*
X014039Y021736D02*
X013000Y021736D01*
X013000Y021895D02*
X014128Y021895D01*
X014115Y022053D02*
X013000Y022053D01*
X014893Y021895D02*
X024187Y021895D01*
X024180Y021736D02*
X014982Y021736D01*
X015008Y021578D02*
X024180Y021578D01*
X024234Y021419D02*
X014985Y021419D01*
X014901Y021261D02*
X024392Y021261D01*
X024395Y021102D02*
X014899Y021102D01*
X014984Y020944D02*
X024236Y020944D01*
X024180Y020785D02*
X015008Y020785D01*
X014983Y020627D02*
X024180Y020627D01*
X024023Y020468D02*
X014896Y020468D01*
X014904Y020310D02*
X023864Y020310D01*
X023706Y020151D02*
X014986Y020151D01*
X015008Y019993D02*
X023547Y019993D01*
X023389Y019834D02*
X014981Y019834D01*
X014891Y019676D02*
X023230Y019676D01*
X023072Y019517D02*
X014909Y019517D01*
X014988Y019359D02*
X022913Y019359D01*
X022755Y019200D02*
X015008Y019200D01*
X014979Y019042D02*
X022596Y019042D01*
X022438Y018883D02*
X014886Y018883D01*
X014914Y018725D02*
X022279Y018725D01*
X022121Y018566D02*
X014990Y018566D01*
X015008Y018408D02*
X021962Y018408D01*
X021804Y018249D02*
X014977Y018249D01*
X014881Y018091D02*
X021645Y018091D01*
X021487Y017932D02*
X014919Y017932D01*
X014992Y017774D02*
X021328Y017774D01*
X021170Y017615D02*
X015008Y017615D01*
X014975Y017457D02*
X017024Y017457D01*
X016873Y017298D02*
X014876Y017298D01*
X014610Y017140D02*
X016749Y017140D01*
X016626Y016981D02*
X013000Y016981D01*
X013000Y016823D02*
X016503Y016823D01*
X016380Y016664D02*
X013000Y016664D01*
X013000Y016506D02*
X016256Y016506D01*
X016133Y016347D02*
X013000Y016347D01*
X013000Y016189D02*
X016010Y016189D01*
X015887Y016030D02*
X013000Y016030D01*
X013000Y015872D02*
X015763Y015872D01*
X015640Y015713D02*
X013000Y015713D01*
X013000Y015555D02*
X015517Y015555D01*
X015393Y015396D02*
X013000Y015396D01*
X013000Y015238D02*
X015270Y015238D01*
X015147Y015079D02*
X013000Y015079D01*
X013000Y014921D02*
X015024Y014921D01*
X014900Y014762D02*
X013000Y014762D01*
X013000Y014604D02*
X014777Y014604D01*
X014654Y014445D02*
X013000Y014445D01*
X013026Y014287D02*
X014530Y014287D01*
X014407Y014128D02*
X013040Y014128D01*
X012979Y013970D02*
X014284Y013970D01*
X013368Y013336D02*
X012992Y013336D01*
X013123Y013177D02*
X013237Y013177D01*
X013180Y013039D02*
X013180Y012625D01*
X013180Y012625D01*
X013180Y013039D01*
X013180Y013019D02*
X013180Y013019D01*
X013180Y012860D02*
X013180Y012860D01*
X013180Y012702D02*
X013180Y012702D01*
X013003Y010324D02*
X013357Y010324D01*
X013232Y010166D02*
X013128Y010166D01*
X013180Y010039D02*
X013180Y009625D01*
X013180Y009625D01*
X013180Y010039D01*
X013180Y010007D02*
X013180Y010007D01*
X013180Y009849D02*
X013180Y009849D01*
X013180Y009690D02*
X013180Y009690D01*
X012932Y008983D02*
X012779Y008920D01*
X012581Y008920D01*
X012397Y008996D01*
X012256Y009137D01*
X012180Y009321D01*
X012180Y010039D01*
X012180Y009321D01*
X012104Y009137D01*
X011963Y008996D01*
X011852Y008950D01*
X011858Y008947D01*
X011947Y008858D01*
X014125Y006680D01*
X014235Y006680D01*
X014485Y006930D01*
X014413Y007002D01*
X014365Y007117D01*
X014365Y007680D01*
X013973Y007680D01*
X013680Y007973D01*
X013680Y008235D01*
X012932Y008983D01*
X013017Y008898D02*
X011908Y008898D01*
X012023Y009056D02*
X012337Y009056D01*
X012224Y009215D02*
X012136Y009215D01*
X012180Y009373D02*
X012180Y009373D01*
X012180Y009532D02*
X012180Y009532D01*
X012180Y009690D02*
X012180Y009690D01*
X012180Y009849D02*
X012180Y009849D01*
X012180Y010007D02*
X012180Y010007D01*
X012128Y010166D02*
X012232Y010166D01*
X012357Y010324D02*
X012003Y010324D01*
X011357Y010324D02*
X011003Y010324D01*
X011128Y010166D02*
X011232Y010166D01*
X011180Y010039D02*
X011180Y009321D01*
X011104Y009137D01*
X010963Y008996D01*
X010961Y008995D01*
X011399Y008995D01*
X011397Y008996D01*
X011256Y009137D01*
X011180Y009321D01*
X011180Y010039D01*
X011180Y010007D02*
X011180Y010007D01*
X011180Y009849D02*
X011180Y009849D01*
X011180Y009690D02*
X011180Y009690D01*
X011180Y009532D02*
X011180Y009532D01*
X011180Y009373D02*
X011180Y009373D01*
X011136Y009215D02*
X011224Y009215D01*
X011337Y009056D02*
X011023Y009056D01*
X010399Y008995D02*
X009961Y008995D01*
X009963Y008996D01*
X010104Y009137D01*
X010180Y009321D01*
X010180Y010039D01*
X010180Y009321D01*
X010256Y009137D01*
X010397Y008996D01*
X010399Y008995D01*
X010337Y009056D02*
X010023Y009056D01*
X010136Y009215D02*
X010224Y009215D01*
X010180Y009373D02*
X010180Y009373D01*
X010180Y009532D02*
X010180Y009532D01*
X010180Y009690D02*
X010180Y009690D01*
X010180Y009849D02*
X010180Y009849D01*
X010180Y010007D02*
X010180Y010007D01*
X010128Y010166D02*
X010232Y010166D01*
X010357Y010324D02*
X010003Y010324D01*
X009273Y010483D02*
X026365Y010483D01*
X026365Y010641D02*
X007426Y010641D01*
X006934Y010641D02*
X004926Y010641D01*
X004865Y009056D02*
X000420Y009056D01*
X000420Y008898D02*
X004865Y008898D01*
X004865Y008739D02*
X000420Y008739D01*
X000420Y008581D02*
X004458Y008581D01*
X004498Y008620D02*
X004240Y008362D01*
X004240Y008180D01*
X004680Y008180D01*
X004680Y008180D01*
X004680Y008180D01*
X004680Y008620D01*
X004498Y008620D01*
X004680Y008581D02*
X004680Y008581D01*
X004680Y008422D02*
X004680Y008422D01*
X004680Y008264D02*
X004680Y008264D01*
X004680Y008180D02*
X004240Y008180D01*
X004240Y007998D01*
X004498Y007740D01*
X004680Y007740D01*
X004680Y008180D01*
X004680Y008105D02*
X004680Y008105D01*
X004680Y007947D02*
X004680Y007947D01*
X004680Y007788D02*
X004680Y007788D01*
X004450Y007788D02*
X003020Y007788D01*
X003020Y007630D02*
X004865Y007630D01*
X004865Y007471D02*
X002978Y007471D01*
X002876Y007313D02*
X004865Y007313D01*
X004865Y007154D02*
X002621Y007154D01*
X002843Y006996D02*
X004865Y006996D01*
X004865Y006837D02*
X002934Y006837D01*
X002933Y006520D02*
X004313Y006520D01*
X004180Y006362D02*
X002840Y006362D01*
X002628Y006203D02*
X004180Y006203D01*
X004180Y006045D02*
X002879Y006045D01*
X002816Y005252D02*
X013865Y005252D01*
X013865Y005094D02*
X000420Y005094D01*
X000420Y005252D02*
X001544Y005252D01*
X001407Y005411D02*
X000420Y005411D01*
X000420Y005569D02*
X001341Y005569D01*
X001340Y005728D02*
X000420Y005728D01*
X000420Y005886D02*
X001381Y005886D01*
X001481Y006045D02*
X000420Y006045D01*
X000420Y006203D02*
X001732Y006203D01*
X001520Y006362D02*
X000420Y006362D01*
X000420Y006520D02*
X001427Y006520D01*
X001426Y006837D02*
X000420Y006837D01*
X000420Y006679D02*
X002160Y006679D01*
X002200Y006679D02*
X004471Y006679D01*
X005495Y006679D02*
X006971Y006679D01*
X006813Y006520D02*
X005495Y006520D01*
X005495Y006362D02*
X006680Y006362D01*
X006680Y006203D02*
X005495Y006203D01*
X005495Y006045D02*
X006599Y006045D01*
X007014Y005569D02*
X013865Y005569D01*
X013865Y005411D02*
X006853Y005411D01*
X006947Y005502D02*
X006947Y005502D01*
X007435Y005728D02*
X008925Y005728D01*
X008973Y005680D02*
X009387Y005680D01*
X009680Y005973D01*
X009680Y006387D01*
X009387Y006680D01*
X008973Y006680D01*
X008680Y006387D01*
X008680Y005973D01*
X008973Y005680D01*
X008767Y005886D02*
X007593Y005886D01*
X007680Y006045D02*
X008680Y006045D01*
X008680Y006203D02*
X007680Y006203D01*
X007680Y006362D02*
X008680Y006362D01*
X008813Y006520D02*
X007547Y006520D01*
X007389Y006679D02*
X008971Y006679D01*
X009389Y006679D02*
X013236Y006679D01*
X013078Y006837D02*
X005495Y006837D01*
X005495Y006996D02*
X012919Y006996D01*
X012761Y007154D02*
X005495Y007154D01*
X005495Y007313D02*
X012602Y007313D01*
X012444Y007471D02*
X005495Y007471D01*
X005495Y007630D02*
X012285Y007630D01*
X012127Y007788D02*
X009495Y007788D01*
X009654Y007947D02*
X011968Y007947D01*
X011810Y008105D02*
X009680Y008105D01*
X009680Y008264D02*
X011651Y008264D01*
X012066Y008739D02*
X013176Y008739D01*
X013334Y008581D02*
X012225Y008581D01*
X012383Y008422D02*
X013493Y008422D01*
X013651Y008264D02*
X012542Y008264D01*
X012700Y008105D02*
X013680Y008105D01*
X013706Y007947D02*
X012859Y007947D01*
X013017Y007788D02*
X013865Y007788D01*
X013493Y007313D02*
X014365Y007313D01*
X014365Y007471D02*
X013334Y007471D01*
X013176Y007630D02*
X014365Y007630D01*
X014365Y007154D02*
X013651Y007154D01*
X013810Y006996D02*
X014419Y006996D01*
X014392Y006837D02*
X013968Y006837D01*
X013553Y006362D02*
X009680Y006362D01*
X009680Y006203D02*
X013680Y006203D01*
X013680Y006045D02*
X009680Y006045D01*
X009593Y005886D02*
X013767Y005886D01*
X013865Y005728D02*
X009435Y005728D01*
X009547Y006520D02*
X013395Y006520D01*
X014680Y006203D02*
X014740Y006203D01*
X014740Y006180D02*
X014740Y005998D01*
X014998Y005740D01*
X015180Y005740D01*
X015180Y006180D01*
X015180Y006180D01*
X015180Y006180D01*
X014740Y006180D01*
X014740Y006045D02*
X014680Y006045D01*
X014593Y005886D02*
X014852Y005886D01*
X015180Y005886D02*
X015180Y005886D01*
X015180Y006045D02*
X015180Y006045D01*
X015320Y005728D02*
X014495Y005728D01*
X014495Y005569D02*
X015336Y005569D01*
X015440Y005411D02*
X014495Y005411D01*
X014495Y005252D02*
X015663Y005252D01*
X015821Y005094D02*
X014495Y005094D01*
X014495Y004935D02*
X015980Y004935D01*
X016138Y004777D02*
X014495Y004777D01*
X014495Y004618D02*
X014911Y004618D01*
X015449Y004618D02*
X016297Y004618D01*
X016455Y004460D02*
X015608Y004460D01*
X015680Y004301D02*
X016614Y004301D01*
X016772Y004143D02*
X015680Y004143D01*
X015680Y003984D02*
X016931Y003984D01*
X017089Y003826D02*
X015533Y003826D01*
X014827Y003826D02*
X007320Y003826D01*
X007320Y003750D02*
X007242Y003460D01*
X007092Y003200D01*
X006880Y002988D01*
X006620Y002838D01*
X006330Y002760D01*
X006030Y002760D01*
X005740Y002838D01*
X005480Y002988D01*
X005268Y003200D01*
X005118Y003460D01*
X005040Y003750D01*
X005040Y004051D01*
X005118Y004340D01*
X005268Y004600D01*
X005480Y004813D01*
X005740Y004963D01*
X006030Y005040D01*
X006330Y005040D01*
X006620Y004963D01*
X006880Y004813D01*
X007092Y004600D01*
X007242Y004340D01*
X007320Y004051D01*
X007320Y003750D01*
X007298Y003667D02*
X007856Y003667D01*
X007900Y003677D02*
X007790Y003652D01*
X007683Y003615D01*
X007580Y003565D01*
X007484Y003505D01*
X007396Y003434D01*
X007316Y003354D01*
X007245Y003265D01*
X007184Y003169D01*
X007135Y003067D01*
X007098Y002960D01*
X007073Y002849D01*
X007062Y002760D01*
X007990Y002760D01*
X007990Y003687D01*
X007900Y003677D01*
X007990Y003667D02*
X008150Y003667D01*
X008150Y003687D02*
X008150Y002760D01*
X009077Y002760D01*
X009067Y002849D01*
X009042Y002960D01*
X009004Y003067D01*
X008955Y003169D01*
X008895Y003265D01*
X008824Y003354D01*
X008744Y003434D01*
X008655Y003505D01*
X008559Y003565D01*
X008457Y003615D01*
X008350Y003652D01*
X008239Y003677D01*
X008150Y003687D01*
X008284Y003667D02*
X017248Y003667D01*
X017406Y003509D02*
X008649Y003509D01*
X008827Y003350D02*
X010002Y003350D01*
X010062Y003375D02*
X009844Y003285D01*
X009678Y003118D01*
X009588Y002900D01*
X009588Y001960D01*
X009678Y001742D01*
X009844Y001575D01*
X010062Y001485D01*
X010298Y001485D01*
X010516Y001575D01*
X010682Y001742D01*
X010772Y001960D01*
X010772Y002900D01*
X010682Y003118D01*
X010516Y003285D01*
X010298Y003375D01*
X010062Y003375D01*
X010358Y003350D02*
X017565Y003350D01*
X017723Y003192D02*
X012523Y003192D01*
X012527Y003189D02*
X012459Y003238D01*
X012384Y003276D01*
X012305Y003302D01*
X012222Y003315D01*
X012218Y003315D01*
X012218Y002468D01*
X012712Y002468D01*
X012712Y002824D01*
X012699Y002907D01*
X012673Y002987D01*
X012635Y003062D01*
X012586Y003129D01*
X012527Y003189D01*
X012650Y003033D02*
X017882Y003033D01*
X017811Y002875D02*
X017549Y002875D01*
X017667Y002716D02*
X017693Y002716D01*
X016811Y002875D02*
X016549Y002875D01*
X016667Y002716D02*
X016693Y002716D01*
X015811Y002875D02*
X015549Y002875D01*
X015667Y002716D02*
X015693Y002716D01*
X014811Y002875D02*
X014454Y002875D01*
X014598Y002716D02*
X014693Y002716D01*
X014200Y002716D02*
X014160Y002716D01*
X014160Y002558D02*
X014200Y002558D01*
X014200Y002399D02*
X014160Y002399D01*
X014160Y002241D02*
X014200Y002241D01*
X014160Y002160D02*
X013700Y002160D01*
X013700Y001842D01*
X013712Y001768D01*
X013735Y001696D01*
X013769Y001628D01*
X013814Y001567D01*
X013867Y001514D01*
X013928Y001469D01*
X013996Y001435D01*
X014068Y001412D01*
X014142Y001400D01*
X014160Y001400D01*
X014160Y002160D01*
X014160Y002082D02*
X014200Y002082D01*
X014200Y001924D02*
X014160Y001924D01*
X014160Y001765D02*
X014200Y001765D01*
X014200Y001607D02*
X014160Y001607D01*
X014160Y001448D02*
X014200Y001448D01*
X014389Y001448D02*
X014848Y001448D01*
X014709Y001607D02*
X014575Y001607D01*
X013971Y001448D02*
X006260Y001448D01*
X006260Y001419D02*
X006260Y001579D01*
X006100Y001579D01*
X006100Y002506D01*
X006011Y002496D01*
X005900Y002471D01*
X005793Y002433D01*
X005691Y002384D01*
X005595Y002324D01*
X005506Y002253D01*
X005426Y002173D01*
X005355Y002084D01*
X005295Y001988D01*
X005245Y001886D01*
X005208Y001779D01*
X005183Y001668D01*
X005173Y001579D01*
X006100Y001579D01*
X006100Y001419D01*
X005173Y001419D01*
X005183Y001329D01*
X005208Y001219D01*
X005245Y001112D01*
X005295Y001010D01*
X005355Y000914D01*
X005426Y000825D01*
X005506Y000745D01*
X005595Y000674D01*
X005691Y000614D01*
X005793Y000564D01*
X005900Y000527D01*
X006011Y000502D01*
X006100Y000492D01*
X006100Y001419D01*
X006260Y001419D01*
X007187Y001419D01*
X007177Y001329D01*
X007152Y001219D01*
X007115Y001112D01*
X007065Y001010D01*
X007005Y000914D01*
X006934Y000825D01*
X006854Y000745D01*
X006765Y000674D01*
X006669Y000614D01*
X006567Y000564D01*
X006460Y000527D01*
X006349Y000502D01*
X006260Y000492D01*
X006260Y001419D01*
X006260Y001290D02*
X006100Y001290D01*
X006100Y001448D02*
X003848Y001448D01*
X003920Y001607D02*
X005176Y001607D01*
X005205Y001765D02*
X003960Y001765D01*
X003945Y001662D02*
X003945Y001662D01*
X003983Y001924D02*
X005264Y001924D01*
X005354Y002082D02*
X004006Y002082D01*
X004011Y002241D02*
X005493Y002241D01*
X005721Y002399D02*
X003989Y002399D01*
X003966Y002558D02*
X007067Y002558D01*
X007062Y002600D02*
X007073Y002511D01*
X007098Y002400D01*
X007135Y002293D01*
X007184Y002191D01*
X007245Y002095D01*
X007316Y002006D01*
X007396Y001926D01*
X007484Y001855D01*
X007580Y001795D01*
X007683Y001745D01*
X007790Y001708D01*
X007900Y001683D01*
X007990Y001673D01*
X007990Y002600D01*
X008150Y002600D01*
X008150Y002760D01*
X007990Y002760D01*
X007990Y002600D01*
X007062Y002600D01*
X007098Y002399D02*
X006639Y002399D01*
X006669Y002384D02*
X006567Y002433D01*
X006460Y002471D01*
X006349Y002496D01*
X006260Y002506D01*
X006260Y001579D01*
X007187Y001579D01*
X007177Y001668D01*
X007152Y001779D01*
X007115Y001886D01*
X007065Y001988D01*
X007005Y002084D01*
X006934Y002173D01*
X006854Y002253D01*
X006765Y002324D01*
X006669Y002384D01*
X006867Y002241D02*
X007160Y002241D01*
X007255Y002082D02*
X007006Y002082D01*
X007096Y001924D02*
X007399Y001924D01*
X007642Y001765D02*
X007155Y001765D01*
X007184Y001607D02*
X009813Y001607D01*
X009668Y001765D02*
X008497Y001765D01*
X008457Y001745D02*
X008559Y001795D01*
X008655Y001855D01*
X008744Y001926D01*
X008824Y002006D01*
X008895Y002095D01*
X008955Y002191D01*
X009004Y002293D01*
X009042Y002400D01*
X009067Y002511D01*
X009077Y002600D01*
X008150Y002600D01*
X008150Y001673D01*
X008239Y001683D01*
X008350Y001708D01*
X008457Y001745D01*
X008150Y001765D02*
X007990Y001765D01*
X007990Y001924D02*
X008150Y001924D01*
X008150Y002082D02*
X007990Y002082D01*
X007990Y002241D02*
X008150Y002241D01*
X008150Y002399D02*
X007990Y002399D01*
X007990Y002558D02*
X008150Y002558D01*
X008150Y002716D02*
X009588Y002716D01*
X009588Y002558D02*
X009072Y002558D01*
X009041Y002399D02*
X009588Y002399D01*
X009588Y002241D02*
X008979Y002241D01*
X008885Y002082D02*
X009588Y002082D01*
X009602Y001924D02*
X008741Y001924D01*
X007990Y002716D02*
X003937Y002716D01*
X003945Y002698D02*
X003945Y002698D01*
X003865Y002875D02*
X005677Y002875D01*
X005435Y003033D02*
X003793Y003033D01*
X003728Y003175D02*
X003728Y003175D01*
X003713Y003192D02*
X005277Y003192D01*
X005181Y003350D02*
X003576Y003350D01*
X003439Y003509D02*
X005105Y003509D01*
X005062Y003667D02*
X003235Y003667D01*
X003385Y003571D02*
X003385Y003571D01*
X002988Y003826D02*
X005040Y003826D01*
X005040Y003984D02*
X002501Y003984D01*
X002944Y003854D02*
X002944Y003854D01*
X001859Y003984D02*
X000420Y003984D01*
X000420Y003826D02*
X001372Y003826D01*
X001125Y003667D02*
X000420Y003667D01*
X000420Y003509D02*
X000921Y003509D01*
X000784Y003350D02*
X000420Y003350D01*
X000420Y003192D02*
X000647Y003192D01*
X000632Y003175D02*
X000632Y003175D01*
X000567Y003033D02*
X000420Y003033D01*
X000420Y002875D02*
X000495Y002875D01*
X000423Y002716D02*
X000420Y002716D01*
X000420Y004143D02*
X005065Y004143D01*
X005107Y004301D02*
X000420Y004301D01*
X000420Y004460D02*
X005186Y004460D01*
X005285Y004618D02*
X000420Y004618D01*
X000420Y004777D02*
X005444Y004777D01*
X005692Y004935D02*
X000420Y004935D01*
X000420Y006996D02*
X001517Y006996D01*
X001739Y007154D02*
X000420Y007154D01*
X000420Y007313D02*
X001484Y007313D01*
X001382Y007471D02*
X000420Y007471D01*
X000420Y007630D02*
X001340Y007630D01*
X001340Y007788D02*
X000420Y007788D01*
X000420Y007947D02*
X001406Y007947D01*
X001541Y008105D02*
X000420Y008105D01*
X000420Y008264D02*
X004240Y008264D01*
X004240Y008105D02*
X002819Y008105D01*
X002954Y007947D02*
X004291Y007947D01*
X004300Y008422D02*
X000420Y008422D01*
X005495Y008264D02*
X006740Y008264D01*
X006740Y008180D02*
X006740Y007998D01*
X006998Y007740D01*
X007180Y007740D01*
X007362Y007740D01*
X007620Y007998D01*
X007620Y008180D01*
X007180Y008180D01*
X007180Y008180D01*
X007180Y007740D01*
X007180Y008180D01*
X007180Y008180D01*
X007180Y008180D01*
X006740Y008180D01*
X006740Y008105D02*
X005495Y008105D01*
X005495Y007947D02*
X006791Y007947D01*
X006950Y007788D02*
X005495Y007788D01*
X007180Y007788D02*
X007180Y007788D01*
X007180Y007947D02*
X007180Y007947D01*
X007180Y008105D02*
X007180Y008105D01*
X007410Y007788D02*
X008865Y007788D01*
X008706Y007947D02*
X007569Y007947D01*
X007620Y008105D02*
X008680Y008105D01*
X008680Y008264D02*
X007620Y008264D01*
X006668Y004935D02*
X013865Y004935D01*
X013865Y004777D02*
X006916Y004777D01*
X007075Y004618D02*
X013865Y004618D01*
X013865Y004460D02*
X007174Y004460D01*
X007253Y004301D02*
X013865Y004301D01*
X013865Y004143D02*
X007295Y004143D01*
X007320Y003984D02*
X013931Y003984D01*
X013906Y002875D02*
X012705Y002875D01*
X012712Y002716D02*
X013762Y002716D01*
X013706Y002558D02*
X012712Y002558D01*
X012712Y002392D02*
X012218Y002392D01*
X012218Y002468D01*
X012142Y002468D01*
X012142Y003315D01*
X012138Y003315D01*
X012055Y003302D01*
X011976Y003276D01*
X011901Y003238D01*
X011833Y003189D01*
X011774Y003129D01*
X011725Y003062D01*
X011687Y002987D01*
X011661Y002907D01*
X011648Y002824D01*
X011648Y002468D01*
X012142Y002468D01*
X012142Y002392D01*
X012218Y002392D01*
X012218Y001545D01*
X012222Y001545D01*
X012305Y001558D01*
X012384Y001584D01*
X012459Y001622D01*
X012527Y001671D01*
X012586Y001731D01*
X012635Y001798D01*
X012673Y001873D01*
X012699Y001953D01*
X012712Y002036D01*
X012712Y002392D01*
X012712Y002241D02*
X013700Y002241D01*
X013700Y002399D02*
X012218Y002399D01*
X012142Y002399D02*
X010772Y002399D01*
X010772Y002241D02*
X011647Y002241D01*
X011647Y002392D02*
X011648Y002036D01*
X011661Y001953D01*
X011687Y001873D01*
X011725Y001798D01*
X011774Y001731D01*
X011833Y001671D01*
X011901Y001622D01*
X011976Y001584D01*
X012055Y001558D01*
X012138Y001545D01*
X012142Y001545D01*
X012142Y002392D01*
X011647Y002392D01*
X011648Y002558D02*
X010772Y002558D01*
X010772Y002716D02*
X011648Y002716D01*
X011655Y002875D02*
X010772Y002875D01*
X010718Y003033D02*
X011710Y003033D01*
X011837Y003192D02*
X010609Y003192D01*
X009751Y003192D02*
X008941Y003192D01*
X009016Y003033D02*
X009642Y003033D01*
X009588Y002875D02*
X009061Y002875D01*
X008150Y002875D02*
X007990Y002875D01*
X007990Y003033D02*
X008150Y003033D01*
X008150Y003192D02*
X007990Y003192D01*
X007990Y003350D02*
X008150Y003350D01*
X008150Y003509D02*
X007990Y003509D01*
X007490Y003509D02*
X007255Y003509D01*
X007312Y003350D02*
X007179Y003350D01*
X007198Y003192D02*
X007083Y003192D01*
X007123Y003033D02*
X006925Y003033D01*
X007078Y002875D02*
X006683Y002875D01*
X006260Y002399D02*
X006100Y002399D01*
X006100Y002241D02*
X006260Y002241D01*
X006260Y002082D02*
X006100Y002082D01*
X006100Y001924D02*
X006260Y001924D01*
X006260Y001765D02*
X006100Y001765D01*
X006100Y001607D02*
X006260Y001607D01*
X006260Y001131D02*
X006100Y001131D01*
X006100Y000973D02*
X006260Y000973D01*
X006260Y000814D02*
X006100Y000814D01*
X006100Y000656D02*
X006260Y000656D01*
X006260Y000497D02*
X006100Y000497D01*
X006052Y000497D02*
X002913Y000497D01*
X003177Y000656D02*
X005624Y000656D01*
X005437Y000814D02*
X003406Y000814D01*
X003544Y000973D02*
X005318Y000973D01*
X005239Y001131D02*
X003681Y001131D01*
X003776Y001290D02*
X005192Y001290D01*
X006308Y000497D02*
X024947Y000497D01*
X024916Y000506D02*
X024916Y000506D01*
X024683Y000656D02*
X006736Y000656D01*
X006923Y000814D02*
X024454Y000814D01*
X024316Y000973D02*
X007042Y000973D01*
X007121Y001131D02*
X024179Y001131D01*
X024132Y001185D02*
X024132Y001185D01*
X024084Y001290D02*
X007168Y001290D01*
X010547Y001607D02*
X011931Y001607D01*
X012142Y001607D02*
X012218Y001607D01*
X012218Y001765D02*
X012142Y001765D01*
X012142Y001924D02*
X012218Y001924D01*
X012218Y002082D02*
X012142Y002082D01*
X012142Y002241D02*
X012218Y002241D01*
X012218Y002558D02*
X012142Y002558D01*
X012142Y002716D02*
X012218Y002716D01*
X012218Y002875D02*
X012142Y002875D01*
X012142Y003033D02*
X012218Y003033D01*
X012218Y003192D02*
X012142Y003192D01*
X011647Y002082D02*
X010772Y002082D01*
X010758Y001924D02*
X011670Y001924D01*
X011749Y001765D02*
X010692Y001765D01*
X012429Y001607D02*
X013785Y001607D01*
X013713Y001765D02*
X012611Y001765D01*
X012690Y001924D02*
X013700Y001924D01*
X013700Y002082D02*
X012712Y002082D01*
X014160Y002875D02*
X014200Y002875D01*
X015512Y001448D02*
X015848Y001448D01*
X015709Y001607D02*
X015651Y001607D01*
X016512Y001448D02*
X016848Y001448D01*
X016709Y001607D02*
X016651Y001607D01*
X017512Y001448D02*
X017848Y001448D01*
X017709Y001607D02*
X017651Y001607D01*
X018512Y001448D02*
X018848Y001448D01*
X018709Y001607D02*
X018651Y001607D01*
X019512Y001448D02*
X019848Y001448D01*
X019709Y001607D02*
X019651Y001607D01*
X020512Y001448D02*
X020848Y001448D01*
X020709Y001607D02*
X020651Y001607D01*
X021512Y001448D02*
X021848Y001448D01*
X021709Y001607D02*
X021651Y001607D01*
X022512Y001448D02*
X022848Y001448D01*
X022709Y001607D02*
X022651Y001607D01*
X023512Y001448D02*
X024012Y001448D01*
X023940Y001607D02*
X023651Y001607D01*
X023717Y001765D02*
X023900Y001765D01*
X023877Y001924D02*
X023720Y001924D01*
X023720Y002082D02*
X023854Y002082D01*
X023849Y002241D02*
X023720Y002241D01*
X023720Y002399D02*
X023871Y002399D01*
X023894Y002558D02*
X023720Y002558D01*
X023667Y002716D02*
X023923Y002716D01*
X023915Y002698D02*
X023915Y002698D01*
X023995Y002875D02*
X023549Y002875D01*
X024067Y003033D02*
X021772Y003033D01*
X021614Y003192D02*
X024147Y003192D01*
X024132Y003175D02*
X024132Y003175D01*
X024284Y003350D02*
X021455Y003350D01*
X020680Y003973D02*
X020680Y004387D01*
X020387Y004680D01*
X019973Y004680D01*
X019680Y004387D01*
X019680Y003973D01*
X019973Y003680D01*
X020387Y003680D01*
X020680Y003973D01*
X020680Y003984D02*
X025359Y003984D01*
X024872Y003826D02*
X020533Y003826D01*
X020680Y004143D02*
X027499Y004143D01*
X027499Y004301D02*
X020680Y004301D01*
X020608Y004460D02*
X027499Y004460D01*
X027499Y004618D02*
X025141Y004618D01*
X025300Y004777D02*
X027499Y004777D01*
X027499Y004935D02*
X025420Y004935D01*
X025420Y005094D02*
X027499Y005094D01*
X027499Y005252D02*
X025420Y005252D01*
X026365Y006045D02*
X020680Y006045D01*
X020680Y006203D02*
X026365Y006203D01*
X026365Y006362D02*
X020680Y006362D01*
X020593Y005886D02*
X024316Y005886D01*
X024158Y005728D02*
X020435Y005728D01*
X019925Y005728D02*
X017578Y005728D01*
X017419Y005886D02*
X019767Y005886D01*
X019680Y006045D02*
X017261Y006045D01*
X017102Y006203D02*
X019680Y006203D01*
X019680Y006362D02*
X016994Y006362D01*
X016465Y005886D02*
X015983Y005886D01*
X016078Y005728D02*
X016687Y005728D01*
X016846Y005569D02*
X016236Y005569D01*
X016395Y005411D02*
X017004Y005411D01*
X017163Y005252D02*
X016553Y005252D01*
X016712Y005094D02*
X017321Y005094D01*
X017480Y004935D02*
X016870Y004935D01*
X017029Y004777D02*
X017638Y004777D01*
X017797Y004618D02*
X017187Y004618D01*
X017346Y004460D02*
X017955Y004460D01*
X018114Y004301D02*
X017504Y004301D01*
X017663Y004143D02*
X018272Y004143D01*
X018431Y003984D02*
X017821Y003984D01*
X017980Y003826D02*
X018589Y003826D01*
X018748Y003667D02*
X018138Y003667D01*
X018297Y003509D02*
X018906Y003509D01*
X019065Y003350D02*
X018455Y003350D01*
X018614Y003192D02*
X019223Y003192D01*
X019382Y003033D02*
X018772Y003033D01*
X019480Y003826D02*
X019827Y003826D01*
X019680Y003984D02*
X019321Y003984D01*
X019163Y004143D02*
X019680Y004143D01*
X019680Y004301D02*
X019004Y004301D01*
X018846Y004460D02*
X019752Y004460D01*
X019911Y004618D02*
X018687Y004618D01*
X018529Y004777D02*
X024060Y004777D01*
X023940Y004935D02*
X018370Y004935D01*
X018212Y005094D02*
X023940Y005094D01*
X023940Y005252D02*
X018053Y005252D01*
X017895Y005411D02*
X023940Y005411D01*
X023999Y005569D02*
X017736Y005569D01*
X016346Y006045D02*
X015620Y006045D01*
X015620Y006203D02*
X016320Y006203D01*
X016366Y006362D02*
X015620Y006362D01*
X014995Y007630D02*
X019285Y007630D01*
X019127Y007788D02*
X015410Y007788D01*
X015569Y007947D02*
X018968Y007947D01*
X018810Y008105D02*
X015620Y008105D01*
X015620Y008264D02*
X018651Y008264D01*
X018493Y008422D02*
X015560Y008422D01*
X015402Y008581D02*
X018334Y008581D01*
X018176Y008739D02*
X014995Y008739D01*
X014995Y008898D02*
X018017Y008898D01*
X017337Y009056D02*
X017023Y009056D01*
X017136Y009215D02*
X017224Y009215D01*
X017180Y009373D02*
X017180Y009373D01*
X017180Y009532D02*
X017180Y009532D01*
X017180Y009690D02*
X017180Y009690D01*
X017180Y009849D02*
X017180Y009849D01*
X017180Y010007D02*
X017180Y010007D01*
X017128Y010166D02*
X017232Y010166D01*
X017357Y010324D02*
X017003Y010324D01*
X016357Y010324D02*
X016003Y010324D01*
X016128Y010166D02*
X016232Y010166D01*
X016180Y010007D02*
X016180Y010007D01*
X016180Y009849D02*
X016180Y009849D01*
X016180Y009690D02*
X016180Y009690D01*
X016180Y009532D02*
X016180Y009532D01*
X016180Y009373D02*
X016180Y009373D01*
X016136Y009215D02*
X016224Y009215D01*
X016337Y009056D02*
X016023Y009056D01*
X015337Y009056D02*
X015023Y009056D01*
X015136Y009215D02*
X015224Y009215D01*
X015180Y009373D02*
X015180Y009373D01*
X015180Y009532D02*
X015180Y009532D01*
X015180Y009690D02*
X015180Y009690D01*
X015180Y009849D02*
X015180Y009849D01*
X015180Y010007D02*
X015180Y010007D01*
X015128Y010166D02*
X015232Y010166D01*
X015357Y010324D02*
X015003Y010324D01*
X014357Y010324D02*
X014003Y010324D01*
X014128Y010166D02*
X014232Y010166D01*
X014180Y010039D02*
X014180Y009321D01*
X014104Y009137D01*
X013963Y008996D01*
X013854Y008951D01*
X014125Y008680D01*
X014365Y008680D01*
X014365Y009028D01*
X014256Y009137D01*
X014180Y009321D01*
X014180Y010039D01*
X014180Y010007D02*
X014180Y010007D01*
X014180Y009849D02*
X014180Y009849D01*
X014180Y009690D02*
X014180Y009690D01*
X014180Y009532D02*
X014180Y009532D01*
X014180Y009373D02*
X014180Y009373D01*
X014136Y009215D02*
X014224Y009215D01*
X014337Y009056D02*
X014023Y009056D01*
X013908Y008898D02*
X014365Y008898D01*
X014365Y008739D02*
X014066Y008739D01*
X015180Y008581D02*
X015180Y008581D01*
X015180Y008422D02*
X015180Y008422D01*
X015180Y008264D02*
X015180Y008264D01*
X015180Y008180D02*
X015180Y007740D01*
X015180Y008180D01*
X015180Y008180D01*
X015180Y008105D02*
X015180Y008105D01*
X015180Y007947D02*
X015180Y007947D01*
X015180Y007788D02*
X015180Y007788D01*
X018003Y010324D02*
X018357Y010324D01*
X018232Y010166D02*
X018128Y010166D01*
X018180Y010039D02*
X018180Y009625D01*
X018180Y009625D01*
X018180Y010039D01*
X018180Y010007D02*
X018180Y010007D01*
X018180Y009849D02*
X018180Y009849D01*
X018180Y009690D02*
X018180Y009690D01*
X019180Y009690D02*
X026365Y009690D01*
X026365Y009532D02*
X019180Y009532D01*
X019180Y009373D02*
X026365Y009373D01*
X026365Y009215D02*
X019136Y009215D01*
X019023Y009056D02*
X026365Y009056D01*
X026365Y008898D02*
X018908Y008898D01*
X019066Y008739D02*
X024216Y008739D01*
X024057Y008581D02*
X020487Y008581D01*
X020645Y008422D02*
X023940Y008422D01*
X023940Y008264D02*
X020680Y008264D01*
X020680Y008105D02*
X023940Y008105D01*
X023940Y007947D02*
X020654Y007947D01*
X020495Y007788D02*
X024002Y007788D01*
X024161Y007630D02*
X020176Y007630D01*
X019761Y007154D02*
X019040Y007154D01*
X019015Y007313D02*
X019602Y007313D01*
X019444Y007471D02*
X018898Y007471D01*
X018993Y006996D02*
X019919Y006996D01*
X019680Y008264D02*
X019542Y008264D01*
X019383Y008422D02*
X019715Y008422D01*
X019873Y008581D02*
X019225Y008581D01*
X019180Y009849D02*
X026365Y009849D01*
X026365Y010007D02*
X019180Y010007D01*
X019128Y010166D02*
X026365Y010166D01*
X026365Y010324D02*
X019003Y010324D01*
X019035Y012068D02*
X023120Y012068D01*
X023278Y012226D02*
X019141Y012226D01*
X019180Y012385D02*
X026365Y012385D01*
X026365Y012543D02*
X019180Y012543D01*
X019180Y012702D02*
X026365Y012702D01*
X026365Y012860D02*
X019180Y012860D01*
X019180Y013019D02*
X023526Y013019D01*
X023834Y013019D02*
X026365Y013019D01*
X026365Y013177D02*
X026026Y013177D01*
X026184Y013336D02*
X026365Y013336D01*
X026365Y013494D02*
X026261Y013494D01*
X025708Y013494D02*
X025652Y013494D01*
X025652Y013652D02*
X025652Y013070D01*
X025632Y013070D01*
X025537Y013085D01*
X025446Y013115D01*
X025360Y013158D01*
X025283Y013215D01*
X025215Y013283D01*
X025158Y013360D01*
X025115Y013446D01*
X025085Y013537D01*
X025070Y013632D01*
X025070Y013652D01*
X025652Y013652D01*
X025652Y013653D02*
X024350Y013653D01*
X024350Y013811D02*
X025083Y013811D01*
X025143Y013970D02*
X024285Y013970D01*
X024179Y014128D02*
X025265Y014128D01*
X025610Y014287D02*
X023967Y014287D01*
X023475Y014921D02*
X022866Y014921D01*
X023025Y015079D02*
X027499Y015079D01*
X027499Y014921D02*
X025885Y014921D01*
X026043Y014762D02*
X027499Y014762D01*
X027499Y014604D02*
X026202Y014604D01*
X026360Y014445D02*
X027499Y014445D01*
X027499Y014287D02*
X026519Y014287D01*
X026677Y014128D02*
X027499Y014128D01*
X027499Y013970D02*
X026836Y013970D01*
X026967Y013811D02*
X027499Y013811D01*
X027499Y013653D02*
X026995Y013653D01*
X026995Y013494D02*
X027499Y013494D01*
X027499Y013336D02*
X026995Y013336D01*
X026995Y013177D02*
X027499Y013177D01*
X027499Y013019D02*
X026995Y013019D01*
X026995Y012860D02*
X027499Y012860D01*
X027499Y012702D02*
X026995Y012702D01*
X026995Y012543D02*
X027499Y012543D01*
X027499Y012385D02*
X026995Y012385D01*
X026995Y012226D02*
X027499Y012226D01*
X027499Y012068D02*
X026995Y012068D01*
X026995Y011909D02*
X027499Y011909D01*
X027499Y011751D02*
X026995Y011751D01*
X026995Y011592D02*
X027499Y011592D01*
X027499Y011434D02*
X026995Y011434D01*
X026995Y011275D02*
X027499Y011275D01*
X027499Y011117D02*
X026995Y011117D01*
X026995Y010958D02*
X027499Y010958D01*
X027499Y010800D02*
X026995Y010800D01*
X026995Y010641D02*
X027499Y010641D01*
X027499Y010483D02*
X026995Y010483D01*
X026995Y010324D02*
X027499Y010324D01*
X027499Y010166D02*
X026995Y010166D01*
X026995Y010007D02*
X027499Y010007D01*
X027499Y009849D02*
X026995Y009849D01*
X026995Y009690D02*
X027499Y009690D01*
X027499Y009532D02*
X026995Y009532D01*
X026995Y009373D02*
X027499Y009373D01*
X027499Y009215D02*
X026995Y009215D01*
X026995Y009056D02*
X027499Y009056D01*
X027499Y008898D02*
X026995Y008898D01*
X026995Y008739D02*
X027499Y008739D01*
X027499Y008581D02*
X026995Y008581D01*
X026995Y008422D02*
X027499Y008422D01*
X027499Y008264D02*
X026995Y008264D01*
X026995Y008105D02*
X027499Y008105D01*
X027499Y007947D02*
X026995Y007947D01*
X026995Y007788D02*
X027499Y007788D01*
X027499Y007630D02*
X026995Y007630D01*
X026995Y007471D02*
X027499Y007471D01*
X027499Y007313D02*
X026995Y007313D01*
X026995Y007154D02*
X027499Y007154D01*
X027499Y006996D02*
X026995Y006996D01*
X026995Y006837D02*
X027499Y006837D01*
X027499Y006679D02*
X026995Y006679D01*
X026995Y006520D02*
X027499Y006520D01*
X027499Y006362D02*
X026995Y006362D01*
X026995Y006203D02*
X027499Y006203D01*
X027499Y006045D02*
X026995Y006045D01*
X026995Y005886D02*
X027499Y005886D01*
X027499Y005728D02*
X026995Y005728D01*
X026975Y005569D02*
X027499Y005569D01*
X027499Y005411D02*
X026853Y005411D01*
X026365Y006520D02*
X023965Y006520D01*
X024124Y006679D02*
X026365Y006679D01*
X026365Y006837D02*
X024282Y006837D01*
X024441Y006996D02*
X026365Y006996D01*
X026365Y007154D02*
X024599Y007154D01*
X024758Y007313D02*
X026365Y007313D01*
X026365Y007471D02*
X025041Y007471D01*
X025199Y007630D02*
X026365Y007630D01*
X026365Y007788D02*
X025358Y007788D01*
X025420Y007947D02*
X026365Y007947D01*
X026365Y008105D02*
X025420Y008105D01*
X025420Y008264D02*
X026365Y008264D01*
X026365Y008422D02*
X025420Y008422D01*
X025303Y008581D02*
X026365Y008581D01*
X026365Y008739D02*
X025144Y008739D01*
X024026Y007471D02*
X023398Y007471D01*
X023515Y007313D02*
X023867Y007313D01*
X023709Y007154D02*
X023540Y007154D01*
X023550Y006996D02*
X023493Y006996D01*
X024219Y004618D02*
X020449Y004618D01*
X019638Y003667D02*
X024625Y003667D01*
X024421Y003509D02*
X019797Y003509D01*
X022549Y002875D02*
X022811Y002875D01*
X022693Y002716D02*
X022667Y002716D01*
X026001Y003984D02*
X027499Y003984D01*
X027499Y003826D02*
X026488Y003826D01*
X026444Y003854D02*
X026444Y003854D01*
X026735Y003667D02*
X027499Y003667D01*
X027499Y003509D02*
X026939Y003509D01*
X026885Y003571D02*
X026885Y003571D01*
X027076Y003350D02*
X027499Y003350D01*
X027499Y003192D02*
X027213Y003192D01*
X027228Y003175D02*
X027228Y003175D01*
X027293Y003033D02*
X027499Y003033D01*
X027499Y002875D02*
X027365Y002875D01*
X027437Y002716D02*
X027499Y002716D01*
X027445Y002698D02*
X027445Y002698D01*
X027466Y002558D02*
X027499Y002558D01*
X027489Y002399D02*
X027499Y002399D01*
X025813Y011010D02*
X025547Y011010D01*
X025300Y011112D01*
X025112Y011300D01*
X025010Y011547D01*
X025010Y011813D01*
X025112Y012060D01*
X025300Y012248D01*
X025547Y012350D01*
X025813Y012350D01*
X026060Y012248D01*
X026248Y012060D01*
X026350Y011813D01*
X026350Y011547D01*
X026248Y011300D01*
X026060Y011112D01*
X025813Y011010D01*
X026064Y011117D02*
X026365Y011117D01*
X026365Y011275D02*
X026223Y011275D01*
X026303Y011434D02*
X026365Y011434D01*
X026350Y011592D02*
X026365Y011592D01*
X026350Y011751D02*
X026365Y011751D01*
X026365Y011909D02*
X026310Y011909D01*
X026365Y012068D02*
X026240Y012068D01*
X026365Y012226D02*
X026082Y012226D01*
X025278Y012226D02*
X024082Y012226D01*
X024240Y012068D02*
X025120Y012068D01*
X025050Y011909D02*
X024310Y011909D01*
X024350Y011751D02*
X025010Y011751D01*
X025010Y011592D02*
X024350Y011592D01*
X024303Y011434D02*
X025057Y011434D01*
X025137Y011275D02*
X024223Y011275D01*
X024064Y011117D02*
X025296Y011117D01*
X025334Y013177D02*
X024125Y013177D01*
X024263Y013336D02*
X025176Y013336D01*
X025099Y013494D02*
X024328Y013494D01*
X023235Y013177D02*
X019123Y013177D01*
X018992Y013336D02*
X023097Y013336D01*
X023032Y013494D02*
X022939Y013494D01*
X022683Y014128D02*
X016242Y014128D01*
X016369Y014287D02*
X022841Y014287D01*
X023000Y014445D02*
X016495Y014445D01*
X016622Y014604D02*
X023158Y014604D01*
X023317Y014762D02*
X016749Y014762D01*
X016115Y013970D02*
X017556Y013970D01*
X017366Y013811D02*
X015988Y013811D01*
X015861Y013653D02*
X017207Y013653D01*
X017049Y013494D02*
X015735Y013494D01*
X015992Y013336D02*
X016368Y013336D01*
X016237Y013177D02*
X016123Y013177D01*
X016180Y013039D02*
X016180Y012321D01*
X016104Y012137D01*
X015963Y011996D01*
X015961Y011995D01*
X016399Y011995D01*
X016397Y011996D01*
X016256Y012137D01*
X016180Y012321D01*
X016180Y013039D01*
X016180Y013019D02*
X016180Y013019D01*
X016180Y012860D02*
X016180Y012860D01*
X016180Y012702D02*
X016180Y012702D01*
X016180Y012543D02*
X016180Y012543D01*
X016180Y012385D02*
X016180Y012385D01*
X016141Y012226D02*
X016219Y012226D01*
X016325Y012068D02*
X016035Y012068D01*
X014411Y017140D02*
X013000Y017140D01*
X013000Y017298D02*
X014146Y017298D01*
X014906Y022053D02*
X024346Y022053D01*
X025014Y022053D02*
X027499Y022053D01*
X027499Y021895D02*
X025173Y021895D01*
X025180Y021736D02*
X027499Y021736D01*
X027499Y021578D02*
X025180Y021578D01*
X025126Y021419D02*
X027499Y021419D01*
X027499Y021261D02*
X024968Y021261D01*
X025001Y018566D02*
X027499Y018566D01*
X027499Y018408D02*
X025160Y018408D01*
X025180Y018249D02*
X027499Y018249D01*
X027499Y018091D02*
X025180Y018091D01*
X025139Y017932D02*
X027499Y017932D01*
X027499Y017774D02*
X024981Y017774D01*
X024952Y017615D02*
X027499Y017615D01*
X027499Y017457D02*
X025111Y017457D01*
X025180Y017298D02*
X027499Y017298D01*
X027499Y017140D02*
X025180Y017140D01*
X025180Y016981D02*
X027499Y016981D01*
X027499Y016823D02*
X025030Y016823D01*
X024610Y016664D02*
X027499Y016664D01*
X027499Y016506D02*
X024451Y016506D01*
X024293Y016347D02*
X027499Y016347D01*
X027499Y016189D02*
X024134Y016189D01*
X023976Y016030D02*
X027499Y016030D01*
X027499Y015872D02*
X023817Y015872D01*
X023659Y015713D02*
X027499Y015713D01*
X027499Y015555D02*
X023500Y015555D01*
X023342Y015396D02*
X027499Y015396D01*
X027499Y015238D02*
X023183Y015238D01*
X025652Y013336D02*
X025708Y013336D01*
X025708Y013177D02*
X025652Y013177D01*
D22*
X024680Y009680D03*
X023180Y007180D03*
X020180Y010680D03*
X018680Y007180D03*
X016680Y006180D03*
X015680Y005680D03*
X012680Y011180D03*
X012680Y014180D03*
X009180Y017180D03*
X004680Y015680D03*
X001180Y012680D03*
X018680Y020180D03*
X026680Y020180D03*
M02*
