%
M48
M72
T01C0.0120
T02C0.0320
T03C0.0400
T04C0.0470
T05C0.0630
T06C0.1181
T07C0.1260
T08C0.1400
%
T01
X9100Y10600
X9100Y9600
T02
X7600Y14600
X7600Y13600
X7600Y8600
X7600Y7600
X7600Y12600
X7600Y11600
X7600Y9600
X7600Y10600
X7600Y6600
X7600Y5600
X10600Y5600
X10600Y6600
X10600Y7600
X10600Y8600
X10600Y9600
X10600Y10600
X10600Y11600
X10600Y12600
X10600Y13600
X10600Y14600
X4100Y9100
X6100Y9100
X4100Y11600
X6100Y11600
X14100Y5600
X14100Y10600
X12600Y5600
X12600Y10600
X4100Y14100
X6100Y14100
X4100Y16600
X6100Y16600
T03
X2100Y5100
X2100Y6100
X2100Y7100
X2100Y8100
X2100Y9100
X2100Y10100
X10100Y19100
X9100Y19100
X8100Y19100
X7100Y19100
X6100Y19100
X5100Y19100
X2100Y14600
X2100Y13600
X2100Y12600
T04
X13600Y15084
X13600Y13116
T05
X5100Y6100
X5100Y7600
X6100Y1100
X4100Y1100
T06
X2100Y18100
X13600Y18100
X13600Y2100
X2100Y2100
T07
X9100Y1419
X10990Y2600
T08
X9100Y3820
M30
