G75*
%MOIN*%
%OFA0B0*%
%FSLAX24Y24*%
%IPPOS*%
%LPD*%
%AMOC8*
5,1,8,0,0,1.08239X$1,22.5*
%
%ADD10C,0.0000*%
%ADD11C,0.0060*%
%ADD12C,0.0040*%
%ADD13C,0.0120*%
%ADD14C,0.0050*%
%ADD15R,0.0240X0.0340*%
%ADD16R,0.0300X0.4200*%
%ADD17R,0.0200X0.0750*%
%ADD18R,0.0200X0.0300*%
%ADD19C,0.0080*%
%ADD20R,0.0500X0.0300*%
%ADD21R,0.0500X0.1000*%
%ADD22R,0.0250X0.2550*%
%ADD23R,0.0800X0.1500*%
D10*
X000100Y000100D02*
X000100Y020096D01*
X015470Y020096D01*
X015470Y000100D01*
X000100Y000100D01*
X001509Y002100D02*
X001511Y002148D01*
X001517Y002196D01*
X001527Y002243D01*
X001540Y002289D01*
X001558Y002334D01*
X001578Y002378D01*
X001603Y002420D01*
X001631Y002459D01*
X001661Y002496D01*
X001695Y002530D01*
X001732Y002562D01*
X001770Y002591D01*
X001811Y002616D01*
X001854Y002638D01*
X001899Y002656D01*
X001945Y002670D01*
X001992Y002681D01*
X002040Y002688D01*
X002088Y002691D01*
X002136Y002690D01*
X002184Y002685D01*
X002232Y002676D01*
X002278Y002664D01*
X002323Y002647D01*
X002367Y002627D01*
X002409Y002604D01*
X002449Y002577D01*
X002487Y002547D01*
X002522Y002514D01*
X002554Y002478D01*
X002584Y002440D01*
X002610Y002399D01*
X002632Y002356D01*
X002652Y002312D01*
X002667Y002267D01*
X002679Y002220D01*
X002687Y002172D01*
X002691Y002124D01*
X002691Y002076D01*
X002687Y002028D01*
X002679Y001980D01*
X002667Y001933D01*
X002652Y001888D01*
X002632Y001844D01*
X002610Y001801D01*
X002584Y001760D01*
X002554Y001722D01*
X002522Y001686D01*
X002487Y001653D01*
X002449Y001623D01*
X002409Y001596D01*
X002367Y001573D01*
X002323Y001553D01*
X002278Y001536D01*
X002232Y001524D01*
X002184Y001515D01*
X002136Y001510D01*
X002088Y001509D01*
X002040Y001512D01*
X001992Y001519D01*
X001945Y001530D01*
X001899Y001544D01*
X001854Y001562D01*
X001811Y001584D01*
X001770Y001609D01*
X001732Y001638D01*
X001695Y001670D01*
X001661Y001704D01*
X001631Y001741D01*
X001603Y001780D01*
X001578Y001822D01*
X001558Y001866D01*
X001540Y001911D01*
X001527Y001957D01*
X001517Y002004D01*
X001511Y002052D01*
X001509Y002100D01*
X013009Y002100D02*
X013011Y002148D01*
X013017Y002196D01*
X013027Y002243D01*
X013040Y002289D01*
X013058Y002334D01*
X013078Y002378D01*
X013103Y002420D01*
X013131Y002459D01*
X013161Y002496D01*
X013195Y002530D01*
X013232Y002562D01*
X013270Y002591D01*
X013311Y002616D01*
X013354Y002638D01*
X013399Y002656D01*
X013445Y002670D01*
X013492Y002681D01*
X013540Y002688D01*
X013588Y002691D01*
X013636Y002690D01*
X013684Y002685D01*
X013732Y002676D01*
X013778Y002664D01*
X013823Y002647D01*
X013867Y002627D01*
X013909Y002604D01*
X013949Y002577D01*
X013987Y002547D01*
X014022Y002514D01*
X014054Y002478D01*
X014084Y002440D01*
X014110Y002399D01*
X014132Y002356D01*
X014152Y002312D01*
X014167Y002267D01*
X014179Y002220D01*
X014187Y002172D01*
X014191Y002124D01*
X014191Y002076D01*
X014187Y002028D01*
X014179Y001980D01*
X014167Y001933D01*
X014152Y001888D01*
X014132Y001844D01*
X014110Y001801D01*
X014084Y001760D01*
X014054Y001722D01*
X014022Y001686D01*
X013987Y001653D01*
X013949Y001623D01*
X013909Y001596D01*
X013867Y001573D01*
X013823Y001553D01*
X013778Y001536D01*
X013732Y001524D01*
X013684Y001515D01*
X013636Y001510D01*
X013588Y001509D01*
X013540Y001512D01*
X013492Y001519D01*
X013445Y001530D01*
X013399Y001544D01*
X013354Y001562D01*
X013311Y001584D01*
X013270Y001609D01*
X013232Y001638D01*
X013195Y001670D01*
X013161Y001704D01*
X013131Y001741D01*
X013103Y001780D01*
X013078Y001822D01*
X013058Y001866D01*
X013040Y001911D01*
X013027Y001957D01*
X013017Y002004D01*
X013011Y002052D01*
X013009Y002100D01*
X013009Y018100D02*
X013011Y018148D01*
X013017Y018196D01*
X013027Y018243D01*
X013040Y018289D01*
X013058Y018334D01*
X013078Y018378D01*
X013103Y018420D01*
X013131Y018459D01*
X013161Y018496D01*
X013195Y018530D01*
X013232Y018562D01*
X013270Y018591D01*
X013311Y018616D01*
X013354Y018638D01*
X013399Y018656D01*
X013445Y018670D01*
X013492Y018681D01*
X013540Y018688D01*
X013588Y018691D01*
X013636Y018690D01*
X013684Y018685D01*
X013732Y018676D01*
X013778Y018664D01*
X013823Y018647D01*
X013867Y018627D01*
X013909Y018604D01*
X013949Y018577D01*
X013987Y018547D01*
X014022Y018514D01*
X014054Y018478D01*
X014084Y018440D01*
X014110Y018399D01*
X014132Y018356D01*
X014152Y018312D01*
X014167Y018267D01*
X014179Y018220D01*
X014187Y018172D01*
X014191Y018124D01*
X014191Y018076D01*
X014187Y018028D01*
X014179Y017980D01*
X014167Y017933D01*
X014152Y017888D01*
X014132Y017844D01*
X014110Y017801D01*
X014084Y017760D01*
X014054Y017722D01*
X014022Y017686D01*
X013987Y017653D01*
X013949Y017623D01*
X013909Y017596D01*
X013867Y017573D01*
X013823Y017553D01*
X013778Y017536D01*
X013732Y017524D01*
X013684Y017515D01*
X013636Y017510D01*
X013588Y017509D01*
X013540Y017512D01*
X013492Y017519D01*
X013445Y017530D01*
X013399Y017544D01*
X013354Y017562D01*
X013311Y017584D01*
X013270Y017609D01*
X013232Y017638D01*
X013195Y017670D01*
X013161Y017704D01*
X013131Y017741D01*
X013103Y017780D01*
X013078Y017822D01*
X013058Y017866D01*
X013040Y017911D01*
X013027Y017957D01*
X013017Y018004D01*
X013011Y018052D01*
X013009Y018100D01*
X001509Y018100D02*
X001511Y018148D01*
X001517Y018196D01*
X001527Y018243D01*
X001540Y018289D01*
X001558Y018334D01*
X001578Y018378D01*
X001603Y018420D01*
X001631Y018459D01*
X001661Y018496D01*
X001695Y018530D01*
X001732Y018562D01*
X001770Y018591D01*
X001811Y018616D01*
X001854Y018638D01*
X001899Y018656D01*
X001945Y018670D01*
X001992Y018681D01*
X002040Y018688D01*
X002088Y018691D01*
X002136Y018690D01*
X002184Y018685D01*
X002232Y018676D01*
X002278Y018664D01*
X002323Y018647D01*
X002367Y018627D01*
X002409Y018604D01*
X002449Y018577D01*
X002487Y018547D01*
X002522Y018514D01*
X002554Y018478D01*
X002584Y018440D01*
X002610Y018399D01*
X002632Y018356D01*
X002652Y018312D01*
X002667Y018267D01*
X002679Y018220D01*
X002687Y018172D01*
X002691Y018124D01*
X002691Y018076D01*
X002687Y018028D01*
X002679Y017980D01*
X002667Y017933D01*
X002652Y017888D01*
X002632Y017844D01*
X002610Y017801D01*
X002584Y017760D01*
X002554Y017722D01*
X002522Y017686D01*
X002487Y017653D01*
X002449Y017623D01*
X002409Y017596D01*
X002367Y017573D01*
X002323Y017553D01*
X002278Y017536D01*
X002232Y017524D01*
X002184Y017515D01*
X002136Y017510D01*
X002088Y017509D01*
X002040Y017512D01*
X001992Y017519D01*
X001945Y017530D01*
X001899Y017544D01*
X001854Y017562D01*
X001811Y017584D01*
X001770Y017609D01*
X001732Y017638D01*
X001695Y017670D01*
X001661Y017704D01*
X001631Y017741D01*
X001603Y017780D01*
X001578Y017822D01*
X001558Y017866D01*
X001540Y017911D01*
X001527Y017957D01*
X001517Y018004D01*
X001511Y018052D01*
X001509Y018100D01*
D11*
X000750Y018100D02*
X000752Y018173D01*
X000758Y018246D01*
X000768Y018318D01*
X000782Y018390D01*
X000799Y018461D01*
X000821Y018531D01*
X000846Y018600D01*
X000875Y018667D01*
X000907Y018732D01*
X000943Y018796D01*
X000983Y018858D01*
X001025Y018917D01*
X001071Y018974D01*
X001120Y019028D01*
X001172Y019080D01*
X001226Y019129D01*
X001283Y019175D01*
X001342Y019217D01*
X001404Y019257D01*
X001468Y019293D01*
X001533Y019325D01*
X001600Y019354D01*
X001669Y019379D01*
X001739Y019401D01*
X001810Y019418D01*
X001882Y019432D01*
X001954Y019442D01*
X002027Y019448D01*
X002100Y019450D01*
X002173Y019448D01*
X002246Y019442D01*
X002318Y019432D01*
X002390Y019418D01*
X002461Y019401D01*
X002531Y019379D01*
X002600Y019354D01*
X002667Y019325D01*
X002732Y019293D01*
X002796Y019257D01*
X002858Y019217D01*
X002917Y019175D01*
X002974Y019129D01*
X003028Y019080D01*
X003080Y019028D01*
X003129Y018974D01*
X003175Y018917D01*
X003217Y018858D01*
X003257Y018796D01*
X003293Y018732D01*
X003325Y018667D01*
X003354Y018600D01*
X003379Y018531D01*
X003401Y018461D01*
X003418Y018390D01*
X003432Y018318D01*
X003442Y018246D01*
X003448Y018173D01*
X003450Y018100D01*
X003448Y018027D01*
X003442Y017954D01*
X003432Y017882D01*
X003418Y017810D01*
X003401Y017739D01*
X003379Y017669D01*
X003354Y017600D01*
X003325Y017533D01*
X003293Y017468D01*
X003257Y017404D01*
X003217Y017342D01*
X003175Y017283D01*
X003129Y017226D01*
X003080Y017172D01*
X003028Y017120D01*
X002974Y017071D01*
X002917Y017025D01*
X002858Y016983D01*
X002796Y016943D01*
X002732Y016907D01*
X002667Y016875D01*
X002600Y016846D01*
X002531Y016821D01*
X002461Y016799D01*
X002390Y016782D01*
X002318Y016768D01*
X002246Y016758D01*
X002173Y016752D01*
X002100Y016750D01*
X002027Y016752D01*
X001954Y016758D01*
X001882Y016768D01*
X001810Y016782D01*
X001739Y016799D01*
X001669Y016821D01*
X001600Y016846D01*
X001533Y016875D01*
X001468Y016907D01*
X001404Y016943D01*
X001342Y016983D01*
X001283Y017025D01*
X001226Y017071D01*
X001172Y017120D01*
X001120Y017172D01*
X001071Y017226D01*
X001025Y017283D01*
X000983Y017342D01*
X000943Y017404D01*
X000907Y017468D01*
X000875Y017533D01*
X000846Y017600D01*
X000821Y017669D01*
X000799Y017739D01*
X000782Y017810D01*
X000768Y017882D01*
X000758Y017954D01*
X000752Y018027D01*
X000750Y018100D01*
X003630Y018844D02*
X003844Y018630D01*
X004057Y018844D01*
X004057Y019271D01*
X003630Y019271D02*
X003630Y018844D01*
X004600Y018850D02*
X004600Y019350D01*
X004850Y019600D01*
X005350Y019600D01*
X005600Y019350D01*
X005850Y019600D01*
X006350Y019600D01*
X006600Y019350D01*
X006850Y019600D01*
X007350Y019600D01*
X007600Y019350D01*
X007850Y019600D01*
X008350Y019600D01*
X008600Y019350D01*
X008850Y019600D01*
X009350Y019600D01*
X009600Y019350D01*
X009850Y019600D01*
X010350Y019600D01*
X010600Y019350D01*
X010600Y018850D01*
X010350Y018600D01*
X009850Y018600D01*
X009600Y018850D01*
X009350Y018600D01*
X008850Y018600D01*
X008600Y018850D01*
X008600Y019350D01*
X008600Y018850D02*
X008350Y018600D01*
X007850Y018600D01*
X007600Y018850D01*
X007350Y018600D01*
X006850Y018600D01*
X006600Y018850D01*
X006350Y018600D01*
X005850Y018600D01*
X005600Y018850D01*
X005350Y018600D01*
X004850Y018600D01*
X004600Y018850D01*
X005600Y018850D02*
X005600Y019350D01*
X006600Y019350D02*
X006600Y018850D01*
X007600Y018850D02*
X007600Y019350D01*
X006450Y017300D02*
X003750Y017300D01*
X003733Y017298D01*
X003716Y017294D01*
X003700Y017287D01*
X003686Y017277D01*
X003673Y017264D01*
X003663Y017250D01*
X003656Y017234D01*
X003652Y017217D01*
X003650Y017200D01*
X003650Y016000D01*
X003652Y015983D01*
X003656Y015966D01*
X003663Y015950D01*
X003673Y015936D01*
X003686Y015923D01*
X003700Y015913D01*
X003716Y015906D01*
X003733Y015902D01*
X003750Y015900D01*
X006450Y015900D01*
X006467Y015902D01*
X006484Y015906D01*
X006500Y015913D01*
X006514Y015923D01*
X006527Y015936D01*
X006537Y015950D01*
X006544Y015966D01*
X006548Y015983D01*
X006550Y016000D01*
X006550Y017200D01*
X006548Y017217D01*
X006544Y017234D01*
X006537Y017250D01*
X006527Y017264D01*
X006514Y017277D01*
X006500Y017287D01*
X006484Y017294D01*
X006467Y017298D01*
X006450Y017300D01*
X005700Y016600D02*
X005230Y016600D01*
X004980Y016600D02*
X004500Y016600D01*
X003750Y014800D02*
X006450Y014800D01*
X006467Y014798D01*
X006484Y014794D01*
X006500Y014787D01*
X006514Y014777D01*
X006527Y014764D01*
X006537Y014750D01*
X006544Y014734D01*
X006548Y014717D01*
X006550Y014700D01*
X006550Y013500D01*
X006548Y013483D01*
X006544Y013466D01*
X006537Y013450D01*
X006527Y013436D01*
X006514Y013423D01*
X006500Y013413D01*
X006484Y013406D01*
X006467Y013402D01*
X006450Y013400D01*
X003750Y013400D01*
X003733Y013402D01*
X003716Y013406D01*
X003700Y013413D01*
X003686Y013423D01*
X003673Y013436D01*
X003663Y013450D01*
X003656Y013466D01*
X003652Y013483D01*
X003650Y013500D01*
X003650Y014700D01*
X003652Y014717D01*
X003656Y014734D01*
X003663Y014750D01*
X003673Y014764D01*
X003686Y014777D01*
X003700Y014787D01*
X003716Y014794D01*
X003733Y014798D01*
X003750Y014800D01*
X004500Y014100D02*
X004980Y014100D01*
X005230Y014100D02*
X005700Y014100D01*
X006450Y012300D02*
X003750Y012300D01*
X003733Y012298D01*
X003716Y012294D01*
X003700Y012287D01*
X003686Y012277D01*
X003673Y012264D01*
X003663Y012250D01*
X003656Y012234D01*
X003652Y012217D01*
X003650Y012200D01*
X003650Y011000D01*
X003652Y010983D01*
X003656Y010966D01*
X003663Y010950D01*
X003673Y010936D01*
X003686Y010923D01*
X003700Y010913D01*
X003716Y010906D01*
X003733Y010902D01*
X003750Y010900D01*
X006450Y010900D01*
X006467Y010902D01*
X006484Y010906D01*
X006500Y010913D01*
X006514Y010923D01*
X006527Y010936D01*
X006537Y010950D01*
X006544Y010966D01*
X006548Y010983D01*
X006550Y011000D01*
X006550Y012200D01*
X006548Y012217D01*
X006544Y012234D01*
X006537Y012250D01*
X006527Y012264D01*
X006514Y012277D01*
X006500Y012287D01*
X006484Y012294D01*
X006467Y012298D01*
X006450Y012300D01*
X005700Y011600D02*
X005230Y011600D01*
X004980Y011600D02*
X004500Y011600D01*
X003750Y009800D02*
X006450Y009800D01*
X006467Y009798D01*
X006484Y009794D01*
X006500Y009787D01*
X006514Y009777D01*
X006527Y009764D01*
X006537Y009750D01*
X006544Y009734D01*
X006548Y009717D01*
X006550Y009700D01*
X006550Y008500D01*
X006548Y008483D01*
X006544Y008466D01*
X006537Y008450D01*
X006527Y008436D01*
X006514Y008423D01*
X006500Y008413D01*
X006484Y008406D01*
X006467Y008402D01*
X006450Y008400D01*
X003750Y008400D01*
X003733Y008402D01*
X003716Y008406D01*
X003700Y008413D01*
X003686Y008423D01*
X003673Y008436D01*
X003663Y008450D01*
X003656Y008466D01*
X003652Y008483D01*
X003650Y008500D01*
X003650Y009700D01*
X003652Y009717D01*
X003656Y009734D01*
X003663Y009750D01*
X003673Y009764D01*
X003686Y009777D01*
X003700Y009787D01*
X003716Y009794D01*
X003733Y009798D01*
X003750Y009800D01*
X004500Y009100D02*
X004980Y009100D01*
X005230Y009100D02*
X005700Y009100D01*
X006100Y006350D02*
X006100Y006300D01*
X004100Y006300D01*
X004100Y006350D01*
X003550Y006350D01*
X003500Y006300D01*
X003500Y001100D01*
X004550Y000750D02*
X005000Y000750D01*
X005200Y000750D01*
X005650Y000750D01*
X005550Y001000D02*
X004650Y001000D01*
X004700Y001100D02*
X005550Y001100D01*
X006700Y001100D02*
X006700Y006300D01*
X006650Y006350D01*
X006100Y006350D01*
X007950Y005100D02*
X010250Y005100D01*
X010250Y015100D01*
X009500Y015100D01*
X009498Y015061D01*
X009492Y015022D01*
X009483Y014984D01*
X009470Y014947D01*
X009453Y014911D01*
X009433Y014878D01*
X009409Y014846D01*
X009383Y014817D01*
X009354Y014791D01*
X009322Y014767D01*
X009289Y014747D01*
X009253Y014730D01*
X009216Y014717D01*
X009178Y014708D01*
X009139Y014702D01*
X009100Y014700D01*
X009061Y014702D01*
X009022Y014708D01*
X008984Y014717D01*
X008947Y014730D01*
X008911Y014747D01*
X008878Y014767D01*
X008846Y014791D01*
X008817Y014817D01*
X008791Y014846D01*
X008767Y014878D01*
X008747Y014911D01*
X008730Y014947D01*
X008717Y014984D01*
X008708Y015022D01*
X008702Y015061D01*
X008700Y015100D01*
X007950Y015100D01*
X007950Y005100D01*
X012000Y006500D02*
X012000Y006750D01*
X012050Y006800D01*
X012050Y009400D01*
X012000Y009450D01*
X012000Y009700D01*
X012002Y009717D01*
X012006Y009734D01*
X012013Y009750D01*
X012023Y009764D01*
X012036Y009777D01*
X012050Y009787D01*
X012066Y009794D01*
X012083Y009798D01*
X012100Y009800D01*
X013100Y009800D01*
X013117Y009798D01*
X013134Y009794D01*
X013150Y009787D01*
X013164Y009777D01*
X013177Y009764D01*
X013187Y009750D01*
X013194Y009734D01*
X013198Y009717D01*
X013200Y009700D01*
X013200Y009450D01*
X013150Y009400D01*
X013150Y006800D01*
X013200Y006750D01*
X013200Y006500D01*
X013198Y006483D01*
X013194Y006466D01*
X013187Y006450D01*
X013177Y006436D01*
X013164Y006423D01*
X013150Y006413D01*
X013134Y006406D01*
X013117Y006402D01*
X013100Y006400D01*
X012100Y006400D01*
X012083Y006402D01*
X012066Y006406D01*
X012050Y006413D01*
X012036Y006423D01*
X012023Y006436D01*
X012013Y006450D01*
X012006Y006466D01*
X012002Y006483D01*
X012000Y006500D01*
X013500Y006500D02*
X013500Y006750D01*
X013550Y006800D01*
X013550Y009400D01*
X013500Y009450D01*
X013500Y009700D01*
X013502Y009717D01*
X013506Y009734D01*
X013513Y009750D01*
X013523Y009764D01*
X013536Y009777D01*
X013550Y009787D01*
X013566Y009794D01*
X013583Y009798D01*
X013600Y009800D01*
X014600Y009800D01*
X014617Y009798D01*
X014634Y009794D01*
X014650Y009787D01*
X014664Y009777D01*
X014677Y009764D01*
X014687Y009750D01*
X014694Y009734D01*
X014698Y009717D01*
X014700Y009700D01*
X014700Y009450D01*
X014650Y009400D01*
X014650Y006800D01*
X014700Y006750D01*
X014700Y006500D01*
X014698Y006483D01*
X014694Y006466D01*
X014687Y006450D01*
X014677Y006436D01*
X014664Y006423D01*
X014650Y006413D01*
X014634Y006406D01*
X014617Y006402D01*
X014600Y006400D01*
X013600Y006400D01*
X013583Y006402D01*
X013566Y006406D01*
X013550Y006413D01*
X013536Y006423D01*
X013523Y006436D01*
X013513Y006450D01*
X013506Y006466D01*
X013502Y006483D01*
X013500Y006500D01*
X012250Y002100D02*
X012252Y002173D01*
X012258Y002246D01*
X012268Y002318D01*
X012282Y002390D01*
X012299Y002461D01*
X012321Y002531D01*
X012346Y002600D01*
X012375Y002667D01*
X012407Y002732D01*
X012443Y002796D01*
X012483Y002858D01*
X012525Y002917D01*
X012571Y002974D01*
X012620Y003028D01*
X012672Y003080D01*
X012726Y003129D01*
X012783Y003175D01*
X012842Y003217D01*
X012904Y003257D01*
X012968Y003293D01*
X013033Y003325D01*
X013100Y003354D01*
X013169Y003379D01*
X013239Y003401D01*
X013310Y003418D01*
X013382Y003432D01*
X013454Y003442D01*
X013527Y003448D01*
X013600Y003450D01*
X013673Y003448D01*
X013746Y003442D01*
X013818Y003432D01*
X013890Y003418D01*
X013961Y003401D01*
X014031Y003379D01*
X014100Y003354D01*
X014167Y003325D01*
X014232Y003293D01*
X014296Y003257D01*
X014358Y003217D01*
X014417Y003175D01*
X014474Y003129D01*
X014528Y003080D01*
X014580Y003028D01*
X014629Y002974D01*
X014675Y002917D01*
X014717Y002858D01*
X014757Y002796D01*
X014793Y002732D01*
X014825Y002667D01*
X014854Y002600D01*
X014879Y002531D01*
X014901Y002461D01*
X014918Y002390D01*
X014932Y002318D01*
X014942Y002246D01*
X014948Y002173D01*
X014950Y002100D01*
X014948Y002027D01*
X014942Y001954D01*
X014932Y001882D01*
X014918Y001810D01*
X014901Y001739D01*
X014879Y001669D01*
X014854Y001600D01*
X014825Y001533D01*
X014793Y001468D01*
X014757Y001404D01*
X014717Y001342D01*
X014675Y001283D01*
X014629Y001226D01*
X014580Y001172D01*
X014528Y001120D01*
X014474Y001071D01*
X014417Y001025D01*
X014358Y000983D01*
X014296Y000943D01*
X014232Y000907D01*
X014167Y000875D01*
X014100Y000846D01*
X014031Y000821D01*
X013961Y000799D01*
X013890Y000782D01*
X013818Y000768D01*
X013746Y000758D01*
X013673Y000752D01*
X013600Y000750D01*
X013527Y000752D01*
X013454Y000758D01*
X013382Y000768D01*
X013310Y000782D01*
X013239Y000799D01*
X013169Y000821D01*
X013100Y000846D01*
X013033Y000875D01*
X012968Y000907D01*
X012904Y000943D01*
X012842Y000983D01*
X012783Y001025D01*
X012726Y001071D01*
X012672Y001120D01*
X012620Y001172D01*
X012571Y001226D01*
X012525Y001283D01*
X012483Y001342D01*
X012443Y001404D01*
X012407Y001468D01*
X012375Y001533D01*
X012346Y001600D01*
X012321Y001669D01*
X012299Y001739D01*
X012282Y001810D01*
X012268Y001882D01*
X012258Y001954D01*
X012252Y002027D01*
X012250Y002100D01*
X014536Y011130D02*
X014429Y011237D01*
X014429Y011450D01*
X014536Y011557D01*
X014750Y011557D02*
X014750Y011344D01*
X014750Y011557D02*
X014963Y011557D01*
X015070Y011450D01*
X015070Y011237D01*
X014963Y011130D01*
X014536Y011130D01*
X015070Y012134D02*
X012890Y012134D01*
X011950Y012134D01*
X011950Y016064D01*
X012890Y016064D01*
X015070Y016064D01*
X014856Y016130D02*
X015070Y016344D01*
X014856Y016557D01*
X014429Y016557D01*
X014429Y016130D02*
X014856Y016130D01*
X014770Y015084D02*
X014772Y015112D01*
X014778Y015139D01*
X014787Y015165D01*
X014800Y015190D01*
X014817Y015213D01*
X014836Y015233D01*
X014858Y015250D01*
X014882Y015264D01*
X014908Y015274D01*
X014935Y015281D01*
X014963Y015284D01*
X014991Y015283D01*
X015018Y015278D01*
X015045Y015269D01*
X015070Y015257D01*
X015093Y015242D01*
X015114Y015223D01*
X015132Y015202D01*
X015147Y015178D01*
X015158Y015152D01*
X015166Y015126D01*
X015170Y015098D01*
X015170Y015070D01*
X015166Y015042D01*
X015158Y015016D01*
X015147Y014990D01*
X015132Y014966D01*
X015114Y014945D01*
X015093Y014926D01*
X015070Y014911D01*
X015045Y014899D01*
X015018Y014890D01*
X014991Y014885D01*
X014963Y014884D01*
X014935Y014887D01*
X014908Y014894D01*
X014882Y014904D01*
X014858Y014918D01*
X014836Y014935D01*
X014817Y014955D01*
X014800Y014978D01*
X014787Y015003D01*
X014778Y015029D01*
X014772Y015056D01*
X014770Y015084D01*
X014770Y013114D02*
X014772Y013142D01*
X014778Y013169D01*
X014787Y013195D01*
X014800Y013220D01*
X014817Y013243D01*
X014836Y013263D01*
X014858Y013280D01*
X014882Y013294D01*
X014908Y013304D01*
X014935Y013311D01*
X014963Y013314D01*
X014991Y013313D01*
X015018Y013308D01*
X015045Y013299D01*
X015070Y013287D01*
X015093Y013272D01*
X015114Y013253D01*
X015132Y013232D01*
X015147Y013208D01*
X015158Y013182D01*
X015166Y013156D01*
X015170Y013128D01*
X015170Y013100D01*
X015166Y013072D01*
X015158Y013046D01*
X015147Y013020D01*
X015132Y012996D01*
X015114Y012975D01*
X015093Y012956D01*
X015070Y012941D01*
X015045Y012929D01*
X015018Y012920D01*
X014991Y012915D01*
X014963Y012914D01*
X014935Y012917D01*
X014908Y012924D01*
X014882Y012934D01*
X014858Y012948D01*
X014836Y012965D01*
X014817Y012985D01*
X014800Y013008D01*
X014787Y013033D01*
X014778Y013059D01*
X014772Y013086D01*
X014770Y013114D01*
X012890Y012764D02*
X012890Y012134D01*
X012890Y013464D02*
X012890Y014734D01*
X012890Y015434D02*
X012890Y016064D01*
X012250Y018100D02*
X012252Y018173D01*
X012258Y018246D01*
X012268Y018318D01*
X012282Y018390D01*
X012299Y018461D01*
X012321Y018531D01*
X012346Y018600D01*
X012375Y018667D01*
X012407Y018732D01*
X012443Y018796D01*
X012483Y018858D01*
X012525Y018917D01*
X012571Y018974D01*
X012620Y019028D01*
X012672Y019080D01*
X012726Y019129D01*
X012783Y019175D01*
X012842Y019217D01*
X012904Y019257D01*
X012968Y019293D01*
X013033Y019325D01*
X013100Y019354D01*
X013169Y019379D01*
X013239Y019401D01*
X013310Y019418D01*
X013382Y019432D01*
X013454Y019442D01*
X013527Y019448D01*
X013600Y019450D01*
X013673Y019448D01*
X013746Y019442D01*
X013818Y019432D01*
X013890Y019418D01*
X013961Y019401D01*
X014031Y019379D01*
X014100Y019354D01*
X014167Y019325D01*
X014232Y019293D01*
X014296Y019257D01*
X014358Y019217D01*
X014417Y019175D01*
X014474Y019129D01*
X014528Y019080D01*
X014580Y019028D01*
X014629Y018974D01*
X014675Y018917D01*
X014717Y018858D01*
X014757Y018796D01*
X014793Y018732D01*
X014825Y018667D01*
X014854Y018600D01*
X014879Y018531D01*
X014901Y018461D01*
X014918Y018390D01*
X014932Y018318D01*
X014942Y018246D01*
X014948Y018173D01*
X014950Y018100D01*
X014948Y018027D01*
X014942Y017954D01*
X014932Y017882D01*
X014918Y017810D01*
X014901Y017739D01*
X014879Y017669D01*
X014854Y017600D01*
X014825Y017533D01*
X014793Y017468D01*
X014757Y017404D01*
X014717Y017342D01*
X014675Y017283D01*
X014629Y017226D01*
X014580Y017172D01*
X014528Y017120D01*
X014474Y017071D01*
X014417Y017025D01*
X014358Y016983D01*
X014296Y016943D01*
X014232Y016907D01*
X014167Y016875D01*
X014100Y016846D01*
X014031Y016821D01*
X013961Y016799D01*
X013890Y016782D01*
X013818Y016768D01*
X013746Y016758D01*
X013673Y016752D01*
X013600Y016750D01*
X013527Y016752D01*
X013454Y016758D01*
X013382Y016768D01*
X013310Y016782D01*
X013239Y016799D01*
X013169Y016821D01*
X013100Y016846D01*
X013033Y016875D01*
X012968Y016907D01*
X012904Y016943D01*
X012842Y016983D01*
X012783Y017025D01*
X012726Y017071D01*
X012672Y017120D01*
X012620Y017172D01*
X012571Y017226D01*
X012525Y017283D01*
X012483Y017342D01*
X012443Y017404D01*
X012407Y017468D01*
X012375Y017533D01*
X012346Y017600D01*
X012321Y017669D01*
X012299Y017739D01*
X012282Y017810D01*
X012268Y017882D01*
X012258Y017954D01*
X012252Y018027D01*
X012250Y018100D01*
X011557Y018737D02*
X011557Y018950D01*
X011344Y018950D01*
X011557Y018737D02*
X011450Y018630D01*
X011237Y018630D01*
X011130Y018737D01*
X011130Y019164D01*
X011237Y019271D01*
X011450Y019271D01*
X011557Y019164D01*
X009600Y019350D02*
X009600Y018850D01*
X002350Y010600D02*
X002600Y010350D01*
X002600Y009850D01*
X002350Y009600D01*
X002600Y009350D01*
X002600Y008850D01*
X002350Y008600D01*
X002600Y008350D01*
X002600Y007850D01*
X002350Y007600D01*
X002600Y007350D01*
X002600Y006850D01*
X002350Y006600D01*
X002600Y006350D01*
X002600Y005850D01*
X002350Y005600D01*
X002600Y005350D01*
X002600Y004850D01*
X002350Y004600D01*
X001850Y004600D01*
X001600Y004850D01*
X001600Y005350D01*
X001850Y005600D01*
X001600Y005850D01*
X001600Y006350D01*
X001850Y006600D01*
X002350Y006600D01*
X001850Y006600D02*
X001600Y006850D01*
X001600Y007350D01*
X001850Y007600D01*
X001600Y007850D01*
X001600Y008350D01*
X001850Y008600D01*
X001600Y008850D01*
X001600Y009350D01*
X001850Y009600D01*
X001600Y009850D01*
X001600Y010350D01*
X001850Y010600D01*
X002350Y010600D01*
X002350Y009600D02*
X001850Y009600D01*
X001850Y008600D02*
X002350Y008600D01*
X002350Y007600D02*
X001850Y007600D01*
X001850Y005600D02*
X002350Y005600D01*
X001070Y005057D02*
X001070Y004630D01*
X001070Y004844D02*
X000429Y004844D01*
X000643Y004630D01*
X000750Y002100D02*
X000752Y002173D01*
X000758Y002246D01*
X000768Y002318D01*
X000782Y002390D01*
X000799Y002461D01*
X000821Y002531D01*
X000846Y002600D01*
X000875Y002667D01*
X000907Y002732D01*
X000943Y002796D01*
X000983Y002858D01*
X001025Y002917D01*
X001071Y002974D01*
X001120Y003028D01*
X001172Y003080D01*
X001226Y003129D01*
X001283Y003175D01*
X001342Y003217D01*
X001404Y003257D01*
X001468Y003293D01*
X001533Y003325D01*
X001600Y003354D01*
X001669Y003379D01*
X001739Y003401D01*
X001810Y003418D01*
X001882Y003432D01*
X001954Y003442D01*
X002027Y003448D01*
X002100Y003450D01*
X002173Y003448D01*
X002246Y003442D01*
X002318Y003432D01*
X002390Y003418D01*
X002461Y003401D01*
X002531Y003379D01*
X002600Y003354D01*
X002667Y003325D01*
X002732Y003293D01*
X002796Y003257D01*
X002858Y003217D01*
X002917Y003175D01*
X002974Y003129D01*
X003028Y003080D01*
X003080Y003028D01*
X003129Y002974D01*
X003175Y002917D01*
X003217Y002858D01*
X003257Y002796D01*
X003293Y002732D01*
X003325Y002667D01*
X003354Y002600D01*
X003379Y002531D01*
X003401Y002461D01*
X003418Y002390D01*
X003432Y002318D01*
X003442Y002246D01*
X003448Y002173D01*
X003450Y002100D01*
X003448Y002027D01*
X003442Y001954D01*
X003432Y001882D01*
X003418Y001810D01*
X003401Y001739D01*
X003379Y001669D01*
X003354Y001600D01*
X003325Y001533D01*
X003293Y001468D01*
X003257Y001404D01*
X003217Y001342D01*
X003175Y001283D01*
X003129Y001226D01*
X003080Y001172D01*
X003028Y001120D01*
X002974Y001071D01*
X002917Y001025D01*
X002858Y000983D01*
X002796Y000943D01*
X002732Y000907D01*
X002667Y000875D01*
X002600Y000846D01*
X002531Y000821D01*
X002461Y000799D01*
X002390Y000782D01*
X002318Y000768D01*
X002246Y000758D01*
X002173Y000752D01*
X002100Y000750D01*
X002027Y000752D01*
X001954Y000758D01*
X001882Y000768D01*
X001810Y000782D01*
X001739Y000799D01*
X001669Y000821D01*
X001600Y000846D01*
X001533Y000875D01*
X001468Y000907D01*
X001404Y000943D01*
X001342Y000983D01*
X001283Y001025D01*
X001226Y001071D01*
X001172Y001120D01*
X001120Y001172D01*
X001071Y001226D01*
X001025Y001283D01*
X000983Y001342D01*
X000943Y001404D01*
X000907Y001468D01*
X000875Y001533D01*
X000846Y001600D01*
X000821Y001669D01*
X000799Y001739D01*
X000782Y001810D01*
X000768Y001882D01*
X000758Y001954D01*
X000752Y002027D01*
X000750Y002100D01*
D12*
X000870Y007120D02*
X000870Y007273D01*
X000870Y007197D02*
X001330Y007197D01*
X001330Y007273D02*
X001330Y007120D01*
X001253Y007427D02*
X001330Y007504D01*
X001330Y007657D01*
X001253Y007734D01*
X001253Y007887D02*
X001330Y007964D01*
X001330Y008118D01*
X001253Y008194D01*
X001177Y008194D01*
X001100Y008118D01*
X001100Y007964D01*
X001023Y007887D01*
X000946Y007887D01*
X000870Y007964D01*
X000870Y008118D01*
X000946Y008194D01*
X000870Y008348D02*
X000870Y008578D01*
X000946Y008655D01*
X001100Y008655D01*
X001177Y008578D01*
X001177Y008348D01*
X001330Y008348D02*
X000870Y008348D01*
X000946Y007734D02*
X000870Y007657D01*
X000870Y007504D01*
X000946Y007427D01*
X001253Y007427D01*
X007270Y015470D02*
X007270Y015930D01*
X007500Y015930D01*
X007577Y015854D01*
X007577Y015700D01*
X007500Y015623D01*
X007270Y015623D01*
X007730Y015470D02*
X007884Y015470D01*
X007807Y015470D02*
X007807Y015930D01*
X007730Y015930D02*
X007884Y015930D01*
X008037Y015854D02*
X008037Y015547D01*
X008114Y015470D01*
X008268Y015470D01*
X008344Y015547D01*
X008498Y015470D02*
X008805Y015470D01*
X008651Y015470D02*
X008651Y015930D01*
X008498Y015777D01*
X008344Y015854D02*
X008268Y015930D01*
X008114Y015930D01*
X008037Y015854D01*
X008958Y015700D02*
X008958Y015547D01*
X009035Y015470D01*
X009188Y015470D01*
X009265Y015547D01*
X009265Y015623D01*
X009188Y015700D01*
X008958Y015700D01*
X009112Y015854D01*
X009265Y015930D01*
X009418Y015930D02*
X009725Y015930D01*
X009879Y015777D02*
X010032Y015930D01*
X010032Y015470D01*
X009879Y015470D02*
X010186Y015470D01*
X010339Y015547D02*
X010339Y015623D01*
X010416Y015700D01*
X010569Y015700D01*
X010646Y015623D01*
X010646Y015547D01*
X010569Y015470D01*
X010416Y015470D01*
X010339Y015547D01*
X010416Y015700D02*
X010339Y015777D01*
X010339Y015854D01*
X010416Y015930D01*
X010569Y015930D01*
X010646Y015854D01*
X010646Y015777D01*
X010569Y015700D01*
X010800Y015854D02*
X010876Y015930D01*
X011030Y015930D01*
X011107Y015854D01*
X011107Y015777D01*
X010800Y015470D01*
X011107Y015470D01*
X011260Y015547D02*
X011337Y015470D01*
X011490Y015470D01*
X011567Y015547D01*
X011567Y015854D01*
X011490Y015930D01*
X011337Y015930D01*
X011260Y015854D01*
X011260Y015777D01*
X011337Y015700D01*
X011567Y015700D01*
X010967Y017370D02*
X010660Y017370D01*
X010660Y017830D01*
X010967Y017830D01*
X010813Y017600D02*
X010660Y017600D01*
X010506Y017830D02*
X010199Y017830D01*
X010046Y017830D02*
X009892Y017830D01*
X009969Y017830D02*
X009969Y017370D01*
X009892Y017370D02*
X010046Y017370D01*
X010353Y017370D02*
X010353Y017830D01*
X009739Y017754D02*
X009739Y017600D01*
X009662Y017523D01*
X009432Y017523D01*
X009432Y017370D02*
X009432Y017830D01*
X009662Y017830D01*
X009739Y017754D01*
X009585Y017523D02*
X009739Y017370D01*
X009278Y017447D02*
X009202Y017370D01*
X008971Y017370D01*
X008971Y017830D01*
X009202Y017830D01*
X009278Y017754D01*
X009278Y017677D01*
X009202Y017600D01*
X008971Y017600D01*
X008818Y017830D02*
X008511Y017830D01*
X008358Y017830D02*
X008051Y017830D01*
X008051Y017370D01*
X007897Y017370D02*
X007744Y017370D01*
X007821Y017370D02*
X007821Y017830D01*
X007897Y017830D02*
X007744Y017830D01*
X007590Y017830D02*
X007590Y017370D01*
X007590Y017600D02*
X007283Y017600D01*
X007130Y017523D02*
X007130Y017447D01*
X007053Y017370D01*
X006900Y017370D01*
X006823Y017447D01*
X006900Y017600D02*
X006823Y017677D01*
X006823Y017754D01*
X006900Y017830D01*
X007053Y017830D01*
X007130Y017754D01*
X007283Y017830D02*
X007283Y017370D01*
X007130Y017523D02*
X007053Y017600D01*
X006900Y017600D01*
X008051Y017600D02*
X008204Y017600D01*
X008665Y017370D02*
X008665Y017830D01*
X009202Y017600D02*
X009278Y017523D01*
X009278Y017447D01*
X009418Y015930D02*
X009418Y015470D01*
X009418Y015700D02*
X009572Y015700D01*
D13*
X005230Y016350D02*
X005230Y016600D01*
X005230Y016850D01*
X004980Y016850D02*
X004980Y016600D01*
X004980Y016350D01*
X004980Y014350D02*
X004980Y014100D01*
X004980Y013850D01*
X005230Y013850D02*
X005230Y014100D01*
X005230Y014350D01*
X005230Y011850D02*
X005230Y011600D01*
X005230Y011350D01*
X004980Y011350D02*
X004980Y011600D01*
X004980Y011850D01*
X004980Y009350D02*
X004980Y009100D01*
X004980Y008850D01*
X005230Y008850D02*
X005230Y009100D01*
X005230Y009350D01*
D14*
X005065Y009975D02*
X005065Y010425D01*
X005365Y010425D01*
X005215Y010200D02*
X005065Y010200D01*
X004904Y010200D02*
X004904Y009975D01*
X004904Y010200D02*
X004829Y010275D01*
X004604Y010275D01*
X004604Y009975D01*
X004444Y010050D02*
X004369Y009975D01*
X004219Y009975D01*
X004144Y010050D01*
X004444Y010350D01*
X004444Y010050D01*
X004144Y010050D02*
X004144Y010350D01*
X004219Y010425D01*
X004369Y010425D01*
X004444Y010350D01*
X003984Y009975D02*
X003683Y009975D01*
X003834Y009975D02*
X003834Y010425D01*
X003683Y010275D01*
X002650Y011600D02*
X001500Y011650D01*
X001400Y011750D01*
X001400Y015450D01*
X001500Y015550D01*
X002650Y015600D01*
X003453Y015050D02*
X003528Y015050D01*
X003528Y014975D01*
X003453Y014975D01*
X003453Y015050D01*
X003683Y015200D02*
X003984Y015200D01*
X004144Y015050D02*
X004144Y014975D01*
X004144Y015050D02*
X004444Y015350D01*
X004444Y015425D01*
X004144Y015425D01*
X003909Y015425D02*
X003683Y015200D01*
X003909Y014975D02*
X003909Y015425D01*
X004604Y015275D02*
X004604Y015050D01*
X004679Y014975D01*
X004904Y014975D01*
X004904Y015275D01*
X005065Y015200D02*
X005215Y015200D01*
X005065Y014975D02*
X005065Y015425D01*
X005365Y015425D01*
X005065Y017475D02*
X005065Y017925D01*
X005365Y017925D01*
X005215Y017700D02*
X005065Y017700D01*
X004904Y017775D02*
X004904Y017475D01*
X004679Y017475D01*
X004604Y017550D01*
X004604Y017775D01*
X004444Y017775D02*
X004444Y017850D01*
X004369Y017925D01*
X004219Y017925D01*
X004144Y017850D01*
X003984Y017850D02*
X003909Y017925D01*
X003758Y017925D01*
X003683Y017850D01*
X003984Y017850D02*
X003984Y017775D01*
X003683Y017475D01*
X003984Y017475D01*
X004144Y017475D02*
X004444Y017775D01*
X004444Y017475D02*
X004144Y017475D01*
X001540Y015370D02*
X001542Y015390D01*
X001548Y015408D01*
X001557Y015426D01*
X001569Y015441D01*
X001584Y015453D01*
X001602Y015462D01*
X001620Y015468D01*
X001640Y015470D01*
X001660Y015468D01*
X001678Y015462D01*
X001696Y015453D01*
X001711Y015441D01*
X001723Y015426D01*
X001732Y015408D01*
X001738Y015390D01*
X001740Y015370D01*
X001738Y015350D01*
X001732Y015332D01*
X001723Y015314D01*
X001711Y015299D01*
X001696Y015287D01*
X001678Y015278D01*
X001660Y015272D01*
X001640Y015270D01*
X001620Y015272D01*
X001602Y015278D01*
X001584Y015287D01*
X001569Y015299D01*
X001557Y015314D01*
X001548Y015332D01*
X001542Y015350D01*
X001540Y015370D01*
X001075Y014890D02*
X001075Y014740D01*
X001000Y014665D01*
X000700Y014965D01*
X001000Y014965D01*
X001075Y014890D01*
X001000Y014665D02*
X000700Y014665D01*
X000625Y014740D01*
X000625Y014890D01*
X000700Y014965D01*
X000850Y014504D02*
X000850Y014204D01*
X000625Y014429D01*
X001075Y014429D01*
X001000Y014044D02*
X000700Y014044D01*
X000625Y013969D01*
X000625Y013819D01*
X000700Y013744D01*
X000775Y013744D01*
X000850Y013819D01*
X000850Y014044D01*
X001000Y014044D02*
X001075Y013969D01*
X001075Y013819D01*
X001000Y013744D01*
X001075Y013584D02*
X001075Y013283D01*
X000775Y013584D01*
X000700Y013584D01*
X000625Y013509D01*
X000625Y013358D01*
X000700Y013283D01*
X000625Y013123D02*
X001075Y013123D01*
X001075Y012823D02*
X000625Y012823D01*
X000775Y012973D01*
X000625Y013123D01*
X001075Y012663D02*
X001075Y012363D01*
X000625Y012363D01*
X003223Y012475D02*
X003523Y012475D01*
X003373Y012475D02*
X003373Y012925D01*
X003223Y012775D01*
X003683Y012850D02*
X003683Y012550D01*
X003984Y012850D01*
X003984Y012550D01*
X003909Y012475D01*
X003758Y012475D01*
X003683Y012550D01*
X003683Y012850D02*
X003758Y012925D01*
X003909Y012925D01*
X003984Y012850D01*
X004144Y012850D02*
X004144Y012550D01*
X004444Y012850D01*
X004444Y012550D01*
X004369Y012475D01*
X004219Y012475D01*
X004144Y012550D01*
X004144Y012850D02*
X004219Y012925D01*
X004369Y012925D01*
X004444Y012850D01*
X004604Y012775D02*
X004829Y012775D01*
X004904Y012700D01*
X004904Y012475D01*
X005065Y012475D02*
X005065Y012925D01*
X005365Y012925D01*
X005215Y012700D02*
X005065Y012700D01*
X004604Y012775D02*
X004604Y012475D01*
X012155Y014718D02*
X012605Y015019D01*
X012605Y015179D02*
X012605Y015479D01*
X012605Y015329D02*
X012155Y015329D01*
X012305Y015179D01*
X012155Y015019D02*
X012605Y014718D01*
X014375Y015599D02*
X014825Y015599D01*
X014825Y015449D02*
X014825Y015749D01*
X014525Y015449D02*
X014375Y015599D01*
X014450Y013799D02*
X014375Y013724D01*
X014375Y013574D01*
X014450Y013499D01*
X014450Y013799D02*
X014525Y013799D01*
X014825Y013499D01*
X014825Y013799D01*
X014270Y005096D02*
X013970Y005096D01*
X014270Y004796D01*
X014345Y004871D01*
X014345Y005021D01*
X014270Y005096D01*
X014270Y004796D02*
X013970Y004796D01*
X013895Y004871D01*
X013895Y005021D01*
X013970Y005096D01*
X013970Y004636D02*
X014270Y004335D01*
X014345Y004410D01*
X014345Y004561D01*
X014270Y004636D01*
X013970Y004636D01*
X013895Y004561D01*
X013895Y004410D01*
X013970Y004335D01*
X014270Y004335D01*
X014345Y004175D02*
X014345Y003875D01*
X014345Y004025D02*
X013895Y004025D01*
X014045Y003875D01*
X012845Y003875D02*
X012845Y004175D01*
X012845Y004025D02*
X012395Y004025D01*
X012545Y003875D01*
X012470Y004335D02*
X012395Y004410D01*
X012395Y004561D01*
X012470Y004636D01*
X012770Y004335D01*
X012845Y004410D01*
X012845Y004561D01*
X012770Y004636D01*
X012470Y004636D01*
X012395Y004796D02*
X012845Y004796D01*
X012695Y004796D02*
X012845Y005021D01*
X012695Y004796D02*
X012545Y005021D01*
X012470Y004335D02*
X012770Y004335D01*
X010600Y000600D02*
X007600Y000600D01*
D15*
X012600Y006230D03*
X014100Y006230D03*
X014100Y009970D03*
X012600Y009970D03*
D16*
X002950Y013600D03*
D17*
X002700Y015325D03*
X002700Y011875D03*
D18*
X002700Y013100D03*
X002700Y014100D03*
D19*
X001470Y018100D02*
X001472Y018150D01*
X001478Y018200D01*
X001488Y018249D01*
X001502Y018297D01*
X001519Y018344D01*
X001540Y018389D01*
X001565Y018433D01*
X001593Y018474D01*
X001625Y018513D01*
X001659Y018550D01*
X001696Y018584D01*
X001736Y018614D01*
X001778Y018641D01*
X001822Y018665D01*
X001868Y018686D01*
X001915Y018702D01*
X001963Y018715D01*
X002013Y018724D01*
X002062Y018729D01*
X002113Y018730D01*
X002163Y018727D01*
X002212Y018720D01*
X002261Y018709D01*
X002309Y018694D01*
X002355Y018676D01*
X002400Y018654D01*
X002443Y018628D01*
X002484Y018599D01*
X002523Y018567D01*
X002559Y018532D01*
X002591Y018494D01*
X002621Y018454D01*
X002648Y018411D01*
X002671Y018367D01*
X002690Y018321D01*
X002706Y018273D01*
X002718Y018224D01*
X002726Y018175D01*
X002730Y018125D01*
X002730Y018075D01*
X002726Y018025D01*
X002718Y017976D01*
X002706Y017927D01*
X002690Y017879D01*
X002671Y017833D01*
X002648Y017789D01*
X002621Y017746D01*
X002591Y017706D01*
X002559Y017668D01*
X002523Y017633D01*
X002484Y017601D01*
X002443Y017572D01*
X002400Y017546D01*
X002355Y017524D01*
X002309Y017506D01*
X002261Y017491D01*
X002212Y017480D01*
X002163Y017473D01*
X002113Y017470D01*
X002062Y017471D01*
X002013Y017476D01*
X001963Y017485D01*
X001915Y017498D01*
X001868Y017514D01*
X001822Y017535D01*
X001778Y017559D01*
X001736Y017586D01*
X001696Y017616D01*
X001659Y017650D01*
X001625Y017687D01*
X001593Y017726D01*
X001565Y017767D01*
X001540Y017811D01*
X001519Y017856D01*
X001502Y017903D01*
X001488Y017951D01*
X001478Y018000D01*
X001472Y018050D01*
X001470Y018100D01*
X007407Y004135D02*
X008037Y004135D01*
X007407Y004135D02*
X007407Y000506D01*
X010163Y004135D02*
X010793Y004135D01*
X010793Y003506D01*
X012970Y002100D02*
X012972Y002150D01*
X012978Y002200D01*
X012988Y002249D01*
X013002Y002297D01*
X013019Y002344D01*
X013040Y002389D01*
X013065Y002433D01*
X013093Y002474D01*
X013125Y002513D01*
X013159Y002550D01*
X013196Y002584D01*
X013236Y002614D01*
X013278Y002641D01*
X013322Y002665D01*
X013368Y002686D01*
X013415Y002702D01*
X013463Y002715D01*
X013513Y002724D01*
X013562Y002729D01*
X013613Y002730D01*
X013663Y002727D01*
X013712Y002720D01*
X013761Y002709D01*
X013809Y002694D01*
X013855Y002676D01*
X013900Y002654D01*
X013943Y002628D01*
X013984Y002599D01*
X014023Y002567D01*
X014059Y002532D01*
X014091Y002494D01*
X014121Y002454D01*
X014148Y002411D01*
X014171Y002367D01*
X014190Y002321D01*
X014206Y002273D01*
X014218Y002224D01*
X014226Y002175D01*
X014230Y002125D01*
X014230Y002075D01*
X014226Y002025D01*
X014218Y001976D01*
X014206Y001927D01*
X014190Y001879D01*
X014171Y001833D01*
X014148Y001789D01*
X014121Y001746D01*
X014091Y001706D01*
X014059Y001668D01*
X014023Y001633D01*
X013984Y001601D01*
X013943Y001572D01*
X013900Y001546D01*
X013855Y001524D01*
X013809Y001506D01*
X013761Y001491D01*
X013712Y001480D01*
X013663Y001473D01*
X013613Y001470D01*
X013562Y001471D01*
X013513Y001476D01*
X013463Y001485D01*
X013415Y001498D01*
X013368Y001514D01*
X013322Y001535D01*
X013278Y001559D01*
X013236Y001586D01*
X013196Y001616D01*
X013159Y001650D01*
X013125Y001687D01*
X013093Y001726D01*
X013065Y001767D01*
X013040Y001811D01*
X013019Y001856D01*
X013002Y001903D01*
X012988Y001951D01*
X012978Y002000D01*
X012972Y002050D01*
X012970Y002100D01*
X001470Y002100D02*
X001472Y002150D01*
X001478Y002200D01*
X001488Y002249D01*
X001502Y002297D01*
X001519Y002344D01*
X001540Y002389D01*
X001565Y002433D01*
X001593Y002474D01*
X001625Y002513D01*
X001659Y002550D01*
X001696Y002584D01*
X001736Y002614D01*
X001778Y002641D01*
X001822Y002665D01*
X001868Y002686D01*
X001915Y002702D01*
X001963Y002715D01*
X002013Y002724D01*
X002062Y002729D01*
X002113Y002730D01*
X002163Y002727D01*
X002212Y002720D01*
X002261Y002709D01*
X002309Y002694D01*
X002355Y002676D01*
X002400Y002654D01*
X002443Y002628D01*
X002484Y002599D01*
X002523Y002567D01*
X002559Y002532D01*
X002591Y002494D01*
X002621Y002454D01*
X002648Y002411D01*
X002671Y002367D01*
X002690Y002321D01*
X002706Y002273D01*
X002718Y002224D01*
X002726Y002175D01*
X002730Y002125D01*
X002730Y002075D01*
X002726Y002025D01*
X002718Y001976D01*
X002706Y001927D01*
X002690Y001879D01*
X002671Y001833D01*
X002648Y001789D01*
X002621Y001746D01*
X002591Y001706D01*
X002559Y001668D01*
X002523Y001633D01*
X002484Y001601D01*
X002443Y001572D01*
X002400Y001546D01*
X002355Y001524D01*
X002309Y001506D01*
X002261Y001491D01*
X002212Y001480D01*
X002163Y001473D01*
X002113Y001470D01*
X002062Y001471D01*
X002013Y001476D01*
X001963Y001485D01*
X001915Y001498D01*
X001868Y001514D01*
X001822Y001535D01*
X001778Y001559D01*
X001736Y001586D01*
X001696Y001616D01*
X001659Y001650D01*
X001625Y001687D01*
X001593Y001726D01*
X001565Y001767D01*
X001540Y001811D01*
X001519Y001856D01*
X001502Y001903D01*
X001488Y001951D01*
X001478Y002000D01*
X001472Y002050D01*
X001470Y002100D01*
X012970Y018100D02*
X012972Y018150D01*
X012978Y018200D01*
X012988Y018249D01*
X013002Y018297D01*
X013019Y018344D01*
X013040Y018389D01*
X013065Y018433D01*
X013093Y018474D01*
X013125Y018513D01*
X013159Y018550D01*
X013196Y018584D01*
X013236Y018614D01*
X013278Y018641D01*
X013322Y018665D01*
X013368Y018686D01*
X013415Y018702D01*
X013463Y018715D01*
X013513Y018724D01*
X013562Y018729D01*
X013613Y018730D01*
X013663Y018727D01*
X013712Y018720D01*
X013761Y018709D01*
X013809Y018694D01*
X013855Y018676D01*
X013900Y018654D01*
X013943Y018628D01*
X013984Y018599D01*
X014023Y018567D01*
X014059Y018532D01*
X014091Y018494D01*
X014121Y018454D01*
X014148Y018411D01*
X014171Y018367D01*
X014190Y018321D01*
X014206Y018273D01*
X014218Y018224D01*
X014226Y018175D01*
X014230Y018125D01*
X014230Y018075D01*
X014226Y018025D01*
X014218Y017976D01*
X014206Y017927D01*
X014190Y017879D01*
X014171Y017833D01*
X014148Y017789D01*
X014121Y017746D01*
X014091Y017706D01*
X014059Y017668D01*
X014023Y017633D01*
X013984Y017601D01*
X013943Y017572D01*
X013900Y017546D01*
X013855Y017524D01*
X013809Y017506D01*
X013761Y017491D01*
X013712Y017480D01*
X013663Y017473D01*
X013613Y017470D01*
X013562Y017471D01*
X013513Y017476D01*
X013463Y017485D01*
X013415Y017498D01*
X013368Y017514D01*
X013322Y017535D01*
X013278Y017559D01*
X013236Y017586D01*
X013196Y017616D01*
X013159Y017650D01*
X013125Y017687D01*
X013093Y017726D01*
X013065Y017767D01*
X013040Y017811D01*
X013019Y017856D01*
X013002Y017903D01*
X012988Y017951D01*
X012978Y018000D01*
X012972Y018050D01*
X012970Y018100D01*
D20*
X005100Y006450D03*
D21*
X005100Y008100D03*
D22*
X003625Y002825D03*
X006575Y002825D03*
D23*
X005100Y001850D03*
M02*
